STARTFONT 2.1
COMMENT "$Id: 10x20.bdf,v 1.91 2009-04-06 19:10:19+01 mgk25 Rel $"
COMMENT "Send bug reports to Markus Kuhn <http://www.cl.cam.ac.uk/~mgk25/>"
FONT -Misc-Fixed-Medium-R-Normal--20-200-75-75-C-100-ISO10646-1
SIZE 30 75 75
FONTBOUNDINGBOX 15 30 0 -6
STARTPROPERTIES 22
FONTNAME_REGISTRY ""
FOUNDRY "Misc"
FAMILY_NAME "Fixed"
WEIGHT_NAME "Medium"
SLANT "R"
SETWIDTH_NAME "Normal"
ADD_STYLE_NAME ""
PIXEL_SIZE 30
POINT_SIZE 300
RESOLUTION_X 75
RESOLUTION_Y 75
SPACING "C"
AVERAGE_WIDTH 150
CHARSET_REGISTRY "ISO10646"
CHARSET_ENCODING "1"
DEFAULT_CHAR 0
FONT_DESCENT 6
FONT_ASCENT 24
X_HEIGHT 12
CAP_HEIGHT 20
COPYRIGHT "Public domain font.  Share and enjoy."
_GBDFED_INFO "Edited with gbdfed 1.3."
ENDPROPERTIES
CHARS 5206
STARTCHAR char0
ENCODING 0
SWIDTH 720 0
DWIDTH 15 0
BBX 15 30 0 -6
BITMAP
0000
0000
0000
0000
0000
3C7C
200C
200C
200C
0000
0000
0000
200C
200C
200C
200C
200C
0000
0000
0000
200C
200C
200C
3C7C
0000
0000
0000
0000
0000
0000
ENDCHAR
STARTCHAR space
ENCODING 32
SWIDTH 720 0
DWIDTH 15 0
BBX 15 30 0 -6
BITMAP
0000
0000
0000
0000
0000
0000
0000
0000
0000
0000
0000
0000
0000
0000
0000
0000
0000
0000
0000
0000
0000
0000
0000
0000
0000
0000
0000
0000
0000
0000
ENDCHAR
STARTCHAR exclam
ENCODING 33
SWIDTH 720 0
DWIDTH 15 0
BBX 15 30 0 -6
BITMAP
0000
0000
0000
0000
0000
0380
0380
0380
0380
0380
0380
0380
0380
0380
0380
0380
0380
0380
0380
0380
0000
0380
0380
0380
0000
0000
0000
0000
0000
0000
ENDCHAR
STARTCHAR quotedbl
ENCODING 34
SWIDTH 720 0
DWIDTH 15 0
BBX 15 30 0 -6
BITMAP
0000
0000
0000
0000
0000
1C70
1C70
1C70
1C70
0460
0460
0000
0000
0000
0000
0000
0000
0000
0000
0000
0000
0000
0000
0000
0000
0000
0000
0000
0000
0000
ENDCHAR
STARTCHAR numbersign
ENCODING 35
SWIDTH 720 0
DWIDTH 15 0
BBX 15 30 0 -6
BITMAP
0000
0000
0000
0000
0000
0000
039C
039C
039C
039C
039C
1FFE
0770
0770
0770
0770
0770
3FFC
1CE0
1CE0
1CE0
1CE0
1CE0
0000
0000
0000
0000
0000
0000
0000
ENDCHAR
STARTCHAR dollar
ENCODING 36
SWIDTH 720 0
DWIDTH 15 0
BBX 15 30 0 -6
BITMAP
0000
0000
0000
0000
0000
0380
1FF0
1FF0
3B9C
3B80
3B80
3B80
3B80
3B80
1FF0
039C
039C
039C
039C
039C
3B9C
1FF0
1FF0
0380
0000
0000
0000
0000
0000
0000
ENDCHAR
STARTCHAR percent
ENCODING 37
SWIDTH 720 0
DWIDTH 15 0
BBX 15 30 0 -6
BITMAP
0000
0000
0000
0000
0000
0000
1F1C
1F1C
3B9C
3BF0
3BF0
1F70
00E0
00E0
00E0
0380
0380
0380
077C
077C
07EE
1CEE
1CEE
1C7C
0000
0000
0000
0000
0000
0000
ENDCHAR
STARTCHAR ampersand
ENCODING 38
SWIDTH 720 0
DWIDTH 15 0
BBX 15 30 0 -6
BITMAP
0000
0000
0000
0000
0000
0780
1CE0
1CE0
1CE0
1CE0
1CE0
1F80
0700
0700
1F00
3B80
3B80
38EE
387C
387C
3870
3CFC
3CFC
1F8E
0000
0000
0000
0000
0000
0000
ENDCHAR
STARTCHAR quotesingle
ENCODING 39
SWIDTH 720 0
DWIDTH 15 0
BBX 15 30 0 -6
BITMAP
0000
0000
0000
0000
0000
0380
0380
0380
0380
0380
0380
0300
0000
0000
0000
0000
0000
0000
0000
0000
0000
0000
0000
0000
0000
0000
0000
0000
0000
0000
ENDCHAR
STARTCHAR parenleft
ENCODING 40
SWIDTH 720 0
DWIDTH 15 0
BBX 15 30 0 -6
BITMAP
0000
0000
0000
0000
0000
0070
00E0
00E0
0380
0380
0380
0700
0700
0700
0700
0700
0700
0700
0380
0380
0380
00E0
00E0
0070
0000
0000
0000
0000
0000
0000
ENDCHAR
STARTCHAR parenright
ENCODING 41
SWIDTH 720 0
DWIDTH 15 0
BBX 15 30 0 -6
BITMAP
0000
0000
0000
0000
0000
1C00
0700
0700
0380
0380
0380
00E0
00E0
00E0
00E0
00E0
00E0
00E0
0380
0380
0380
0700
0700
1C00
0000
0000
0000
0000
0000
0000
ENDCHAR
STARTCHAR asterisk
ENCODING 42
SWIDTH 720 0
DWIDTH 15 0
BBX 15 30 0 -6
BITMAP
0000
0000
0000
0000
0000
0000
0000
0000
0000
1C70
1C70
1C70
07E0
07E0
3FFC
07E0
07E0
1C70
1C70
1C70
0000
0000
0000
0000
0000
0000
0000
0000
0000
0000
ENDCHAR
STARTCHAR plus
ENCODING 43
SWIDTH 720 0
DWIDTH 15 0
BBX 15 30 0 -6
BITMAP
0000
0000
0000
0000
0000
0000
0000
0000
0000
0380
0380
0380
0380
0380
3FFC
0380
0380
0380
0380
0380
0000
0000
0000
0000
0000
0000
0000
0000
0000
0000
ENDCHAR
STARTCHAR comma
ENCODING 44
SWIDTH 720 0
DWIDTH 15 0
BBX 15 30 0 -6
BITMAP
0000
0000
0000
0000
0000
0000
0000
0000
0000
0000
0000
0000
0000
0000
0000
0000
0000
0000
0000
0000
0000
03E0
03E0
03E0
0780
0780
0000
0000
0000
0000
ENDCHAR
STARTCHAR hyphen
ENCODING 45
SWIDTH 720 0
DWIDTH 15 0
BBX 15 30 0 -6
BITMAP
0000
0000
0000
0000
0000
0000
0000
0000
0000
0000
0000
0000
0000
0000
3FFC
0000
0000
0000
0000
0000
0000
0000
0000
0000
0000
0000
0000
0000
0000
0000
ENDCHAR
STARTCHAR period
ENCODING 46
SWIDTH 720 0
DWIDTH 15 0
BBX 15 30 0 -6
BITMAP
0000
0000
0000
0000
0000
0000
0000
0000
0000
0000
0000
0000
0000
0000
0000
0000
0000
0000
0000
0000
03E0
03E0
03E0
03E0
0000
0000
0000
0000
0000
0000
ENDCHAR
STARTCHAR slash
ENCODING 47
SWIDTH 720 0
DWIDTH 15 0
BBX 15 30 0 -6
BITMAP
0000
0000
0000
0000
0000
0000
001C
001C
001C
0070
0070
0070
00E0
00E0
00E0
0380
0380
0380
0700
0700
0700
1C00
1C00
1C00
0000
0000
0000
0000
0000
0000
ENDCHAR
STARTCHAR zero
ENCODING 48
SWIDTH 720 0
DWIDTH 15 0
BBX 15 30 0 -6
BITMAP
0000
0000
0000
0000
0000
0380
07E0
07E0
1C70
1C70
1C70
381C
381C
381C
381C
381C
381C
381C
1C70
1C70
1C70
07E0
07E0
0380
0000
0000
0000
0000
0000
0000
ENDCHAR
STARTCHAR one
ENCODING 49
SWIDTH 720 0
DWIDTH 15 0
BBX 15 30 0 -6
BITMAP
0000
0000
0000
0000
0000
0380
0780
0780
1F80
3B80
3B80
0380
0380
0380
0380
0380
0380
0380
0380
0380
0380
0380
0380
3FFC
0000
0000
0000
0000
0000
0000
ENDCHAR
STARTCHAR two
ENCODING 50
SWIDTH 720 0
DWIDTH 15 0
BBX 15 30 0 -6
BITMAP
0000
0000
0000
0000
0000
07E0
1C70
1C70
381C
381C
381C
001C
001C
001C
0070
03E0
03E0
0700
1C00
1C00
3800
3800
3800
3FFC
0000
0000
0000
0000
0000
0000
ENDCHAR
STARTCHAR three
ENCODING 51
SWIDTH 720 0
DWIDTH 15 0
BBX 15 30 0 -6
BITMAP
0000
0000
0000
0000
0000
07E0
1C70
1C70
381C
381C
381C
001C
0070
0070
03E0
0070
0070
001C
381C
381C
381C
1C70
1C70
07E0
0000
0000
0000
0000
0000
0000
ENDCHAR
STARTCHAR four
ENCODING 52
SWIDTH 720 0
DWIDTH 15 0
BBX 15 30 0 -6
BITMAP
0000
0000
0000
0000
0000
0010
0070
0070
00F0
03F0
03F0
0770
1C70
1C70
3870
3870
3870
3FFC
0070
0070
0070
0070
0070
0070
0000
0000
0000
0000
0000
0000
ENDCHAR
STARTCHAR five
ENCODING 53
SWIDTH 720 0
DWIDTH 15 0
BBX 15 30 0 -6
BITMAP
0000
0000
0000
0000
0000
3FFC
3800
3800
3800
3800
3800
3800
3BE0
3BE0
3C70
001C
001C
001C
001C
001C
381C
1C70
1C70
07E0
0000
0000
0000
0000
0000
0000
ENDCHAR
STARTCHAR six
ENCODING 54
SWIDTH 720 0
DWIDTH 15 0
BBX 15 30 0 -6
BITMAP
0000
0000
0000
0000
0000
07E0
1C70
1C70
3810
3800
3800
3800
3BE0
3BE0
3C70
381C
381C
381C
381C
381C
381C
1C70
1C70
07E0
0000
0000
0000
0000
0000
0000
ENDCHAR
STARTCHAR seven
ENCODING 55
SWIDTH 720 0
DWIDTH 15 0
BBX 15 30 0 -6
BITMAP
0000
0000
0000
0000
0000
3FFC
001C
001C
001C
0070
0070
0070
00E0
00E0
00E0
0380
0380
0380
0700
0700
0700
1C00
1C00
1C00
0000
0000
0000
0000
0000
0000
ENDCHAR
STARTCHAR eight
ENCODING 56
SWIDTH 720 0
DWIDTH 15 0
BBX 15 30 0 -6
BITMAP
0000
0000
0000
0000
0000
07E0
1C70
1C70
381C
381C
381C
381C
1C70
1C70
07E0
1C70
1C70
381C
381C
381C
381C
1C70
1C70
07E0
0000
0000
0000
0000
0000
0000
ENDCHAR
STARTCHAR nine
ENCODING 57
SWIDTH 720 0
DWIDTH 15 0
BBX 15 30 0 -6
BITMAP
0000
0000
0000
0000
0000
07E0
1C70
1C70
381C
381C
381C
381C
381C
381C
1C7C
079C
079C
001C
001C
001C
181C
1C70
1C70
07E0
0000
0000
0000
0000
0000
0000
ENDCHAR
STARTCHAR colon
ENCODING 58
SWIDTH 720 0
DWIDTH 15 0
BBX 15 30 0 -6
BITMAP
0000
0000
0000
0000
0000
0000
0000
0000
0000
0000
0000
0000
03E0
03E0
03E0
0000
0000
0000
0000
0000
0000
03E0
03E0
03E0
0000
0000
0000
0000
0000
0000
ENDCHAR
STARTCHAR semicolon
ENCODING 59
SWIDTH 720 0
DWIDTH 15 0
BBX 15 30 0 -6
BITMAP
0000
0000
0000
0000
0000
0000
0000
0000
0000
0000
0000
0000
03E0
03E0
03E0
0000
0000
0000
0000
0000
0000
03E0
03E0
03E0
0780
0780
0000
0000
0000
0000
ENDCHAR
STARTCHAR less
ENCODING 60
SWIDTH 720 0
DWIDTH 15 0
BBX 15 30 0 -6
BITMAP
0000
0000
0000
0000
0000
0010
0070
0070
00E0
0380
0380
0700
1C00
1C00
3800
1C00
1C00
0700
0380
0380
00E0
0070
0070
0010
0000
0000
0000
0000
0000
0000
ENDCHAR
STARTCHAR equal
ENCODING 61
SWIDTH 720 0
DWIDTH 15 0
BBX 15 30 0 -6
BITMAP
0000
0000
0000
0000
0000
0000
0000
0000
0000
0000
0000
3FFC
0000
0000
0000
0000
0000
0000
3FFC
3FFC
0000
0000
0000
0000
0000
0000
0000
0000
0000
0000
ENDCHAR
STARTCHAR greater
ENCODING 62
SWIDTH 720 0
DWIDTH 15 0
BBX 15 30 0 -6
BITMAP
0000
0000
0000
0000
0000
1800
1C00
1C00
0700
0380
0380
00E0
0070
0070
001C
0070
0070
00E0
0380
0380
0700
1C00
1C00
1800
0000
0000
0000
0000
0000
0000
ENDCHAR
STARTCHAR question
ENCODING 63
SWIDTH 720 0
DWIDTH 15 0
BBX 15 30 0 -6
BITMAP
0000
0000
0000
0000
0000
07E0
1C70
1C70
381C
381C
381C
381C
0070
0070
00E0
0380
0380
0380
0380
0380
0000
0380
0380
0380
0000
0000
0000
0000
0000
0000
ENDCHAR
STARTCHAR at
ENCODING 64
SWIDTH 720 0
DWIDTH 15 0
BBX 15 30 0 -6
BITMAP
0000
0000
0000
0000
0000
07E0
1C70
1C70
381C
38FC
38FC
3BFC
3B9C
3B9C
3B9C
3B9C
3B9C
3BF0
38E0
38E0
3800
1C1C
1C1C
07F0
0000
0000
0000
0000
0000
0000
ENDCHAR
STARTCHAR A
ENCODING 65
SWIDTH 720 0
DWIDTH 15 0
BBX 15 30 0 -6
BITMAP
0000
0000
0000
0000
0000
0380
07E0
07E0
1C70
1C70
1C70
381C
381C
381C
381C
3FFC
3FFC
381C
381C
381C
381C
381C
381C
381C
0000
0000
0000
0000
0000
0000
ENDCHAR
STARTCHAR B
ENCODING 66
SWIDTH 720 0
DWIDTH 15 0
BBX 15 30 0 -6
BITMAP
0000
0000
0000
0000
0000
3F80
38E0
38E0
3870
3870
3870
3870
38E0
38E0
3FE0
3870
3870
381C
381C
381C
381C
3870
3870
3FE0
0000
0000
0000
0000
0000
0000
ENDCHAR
STARTCHAR C
ENCODING 67
SWIDTH 720 0
DWIDTH 15 0
BBX 15 30 0 -6
BITMAP
0000
0000
0000
0000
0000
07E0
1C70
1C70
381C
3800
3800
3800
3800
3800
3800
3800
3800
3800
3800
3800
381C
1C70
1C70
07E0
0000
0000
0000
0000
0000
0000
ENDCHAR
STARTCHAR D
ENCODING 68
SWIDTH 720 0
DWIDTH 15 0
BBX 15 30 0 -6
BITMAP
0000
0000
0000
0000
0000
3FE0
3870
3870
381C
381C
381C
381C
381C
381C
381C
381C
381C
381C
381C
381C
381C
3870
3870
3FE0
0000
0000
0000
0000
0000
0000
ENDCHAR
STARTCHAR E
ENCODING 69
SWIDTH 720 0
DWIDTH 15 0
BBX 15 30 0 -6
BITMAP
0000
0000
0000
0000
0000
3FFC
3800
3800
3800
3800
3800
3800
3800
3800
3FE0
3800
3800
3800
3800
3800
3800
3800
3800
3FFC
0000
0000
0000
0000
0000
0000
ENDCHAR
STARTCHAR F
ENCODING 70
SWIDTH 720 0
DWIDTH 15 0
BBX 15 30 0 -6
BITMAP
0000
0000
0000
0000
0000
3FFC
3800
3800
3800
3800
3800
3800
3800
3800
3FE0
3800
3800
3800
3800
3800
3800
3800
3800
3800
0000
0000
0000
0000
0000
0000
ENDCHAR
STARTCHAR G
ENCODING 71
SWIDTH 720 0
DWIDTH 15 0
BBX 15 30 0 -6
BITMAP
0000
0000
0000
0000
0000
07E0
1C70
1C70
381C
3800
3800
3800
3800
3800
38FC
381C
381C
381C
381C
381C
381C
1C7C
1C7C
07EC
0000
0000
0000
0000
0000
0000
ENDCHAR
STARTCHAR H
ENCODING 72
SWIDTH 720 0
DWIDTH 15 0
BBX 15 30 0 -6
BITMAP
0000
0000
0000
0000
0000
381C
381C
381C
381C
381C
381C
381C
381C
381C
3FFC
381C
381C
381C
381C
381C
381C
381C
381C
381C
0000
0000
0000
0000
0000
0000
ENDCHAR
STARTCHAR I
ENCODING 73
SWIDTH 720 0
DWIDTH 15 0
BBX 15 30 0 -6
BITMAP
0000
0000
0000
0000
0000
3FFC
0380
0380
0380
0380
0380
0380
0380
0380
0380
0380
0380
0380
0380
0380
0380
0380
0380
3FFC
0000
0000
0000
0000
0000
0000
ENDCHAR
STARTCHAR J
ENCODING 74
SWIDTH 720 0
DWIDTH 15 0
BBX 15 30 0 -6
BITMAP
0000
0000
0000
0000
0000
03FE
0070
0070
0070
0070
0070
0070
0070
0070
0070
0070
0070
0070
3870
3870
3870
1CE0
1CE0
0780
0000
0000
0000
0000
0000
0000
ENDCHAR
STARTCHAR K
ENCODING 75
SWIDTH 720 0
DWIDTH 15 0
BBX 15 30 0 -6
BITMAP
0000
0000
0000
0000
0000
381C
381C
381C
3870
3870
3870
38E0
38E0
38E0
3F80
38E0
38E0
38E0
3870
3870
3870
381C
381C
381C
0000
0000
0000
0000
0000
0000
ENDCHAR
STARTCHAR L
ENCODING 76
SWIDTH 720 0
DWIDTH 15 0
BBX 15 30 0 -6
BITMAP
0000
0000
0000
0000
0000
3800
3800
3800
3800
3800
3800
3800
3800
3800
3800
3800
3800
3800
3800
3800
3800
3800
3800
3FFC
0000
0000
0000
0000
0000
0000
ENDCHAR
STARTCHAR M
ENCODING 77
SWIDTH 720 0
DWIDTH 15 0
BBX 15 30 0 -6
BITMAP
0000
0000
0000
0000
0000
381C
381C
381C
3C7C
3C7C
3C7C
3FFC
3B9C
3B9C
3B9C
3B9C
3B9C
3B9C
381C
381C
381C
381C
381C
381C
0000
0000
0000
0000
0000
0000
ENDCHAR
STARTCHAR N
ENCODING 78
SWIDTH 720 0
DWIDTH 15 0
BBX 15 30 0 -6
BITMAP
0000
0000
0000
0000
0000
381C
3C1C
3C1C
3C1C
3F1C
3F1C
3F1C
3B9C
3B9C
3B9C
38FC
38FC
38FC
387C
387C
387C
381C
381C
381C
0000
0000
0000
0000
0000
0000
ENDCHAR
STARTCHAR O
ENCODING 79
SWIDTH 720 0
DWIDTH 15 0
BBX 15 30 0 -6
BITMAP
0000
0000
0000
0000
0000
07E0
1C70
1C70
381C
381C
381C
381C
381C
381C
381C
381C
381C
381C
381C
381C
381C
1C70
1C70
07E0
0000
0000
0000
0000
0000
0000
ENDCHAR
STARTCHAR P
ENCODING 80
SWIDTH 720 0
DWIDTH 15 0
BBX 15 30 0 -6
BITMAP
0000
0000
0000
0000
0000
3FE0
3870
3870
381C
381C
381C
381C
381C
381C
3870
3FE0
3FE0
3800
3800
3800
3800
3800
3800
3800
0000
0000
0000
0000
0000
0000
ENDCHAR
STARTCHAR Q
ENCODING 81
SWIDTH 720 0
DWIDTH 15 0
BBX 15 30 0 -6
BITMAP
0000
0000
0000
0000
0000
07E0
1C70
1C70
381C
381C
381C
381C
381C
381C
381C
381C
381C
381C
3B9C
3B9C
38FC
1C70
1C70
07F0
001C
001C
0000
0000
0000
0000
ENDCHAR
STARTCHAR R
ENCODING 82
SWIDTH 720 0
DWIDTH 15 0
BBX 15 30 0 -6
BITMAP
0000
0000
0000
0000
0000
3FE0
3870
3870
381C
381C
381C
381C
381C
381C
3870
3FE0
3FE0
38E0
3870
3870
3870
381C
381C
381C
0000
0000
0000
0000
0000
0000
ENDCHAR
STARTCHAR S
ENCODING 83
SWIDTH 720 0
DWIDTH 15 0
BBX 15 30 0 -6
BITMAP
0000
0000
0000
0000
0000
07E0
1C70
1C70
381C
3800
3800
3800
1C00
1C00
07E0
0070
0070
001C
001C
001C
381C
1C70
1C70
07E0
0000
0000
0000
0000
0000
0000
ENDCHAR
STARTCHAR T
ENCODING 84
SWIDTH 720 0
DWIDTH 15 0
BBX 15 30 0 -6
BITMAP
0000
0000
0000
0000
0000
3FFC
0380
0380
0380
0380
0380
0380
0380
0380
0380
0380
0380
0380
0380
0380
0380
0380
0380
0380
0000
0000
0000
0000
0000
0000
ENDCHAR
STARTCHAR U
ENCODING 85
SWIDTH 720 0
DWIDTH 15 0
BBX 15 30 0 -6
BITMAP
0000
0000
0000
0000
0000
381C
381C
381C
381C
381C
381C
381C
381C
381C
381C
381C
381C
381C
381C
381C
381C
1C70
1C70
07E0
0000
0000
0000
0000
0000
0000
ENDCHAR
STARTCHAR V
ENCODING 86
SWIDTH 720 0
DWIDTH 15 0
BBX 15 30 0 -6
BITMAP
0000
0000
0000
0000
0000
381C
381C
381C
381C
381C
381C
1C70
1C70
1C70
1C70
07E0
07E0
07E0
07E0
07E0
0380
0380
0380
0380
0000
0000
0000
0000
0000
0000
ENDCHAR
STARTCHAR W
ENCODING 87
SWIDTH 720 0
DWIDTH 15 0
BBX 15 30 0 -6
BITMAP
0000
0000
0000
0000
0000
381C
381C
381C
381C
381C
381C
381C
3B9C
3B9C
3B9C
3B9C
3B9C
3B9C
3C7C
3C7C
3C7C
381C
381C
381C
0000
0000
0000
0000
0000
0000
ENDCHAR
STARTCHAR X
ENCODING 88
SWIDTH 720 0
DWIDTH 15 0
BBX 15 30 0 -6
BITMAP
0000
0000
0000
0000
0000
381C
381C
381C
1C70
1C70
1C70
07E0
07E0
07E0
0380
07E0
07E0
07E0
1C70
1C70
1C70
381C
381C
381C
0000
0000
0000
0000
0000
0000
ENDCHAR
STARTCHAR Y
ENCODING 89
SWIDTH 720 0
DWIDTH 15 0
BBX 15 30 0 -6
BITMAP
0000
0000
0000
0000
0000
381C
381C
381C
1C70
1C70
1C70
07E0
07E0
07E0
0380
0380
0380
0380
0380
0380
0380
0380
0380
0380
0000
0000
0000
0000
0000
0000
ENDCHAR
STARTCHAR Z
ENCODING 90
SWIDTH 720 0
DWIDTH 15 0
BBX 15 30 0 -6
BITMAP
0000
0000
0000
0000
0000
3FFC
001C
001C
001C
0070
0070
00E0
00E0
00E0
0380
0700
0700
0700
1C00
1C00
3800
3800
3800
3FFC
0000
0000
0000
0000
0000
0000
ENDCHAR
STARTCHAR bracketleft
ENCODING 91
SWIDTH 720 0
DWIDTH 15 0
BBX 15 30 0 -6
BITMAP
0000
0000
0000
0000
0000
1FF0
1C00
1C00
1C00
1C00
1C00
1C00
1C00
1C00
1C00
1C00
1C00
1C00
1C00
1C00
1C00
1C00
1C00
1FF0
0000
0000
0000
0000
0000
0000
ENDCHAR
STARTCHAR backslash
ENCODING 92
SWIDTH 720 0
DWIDTH 15 0
BBX 15 30 0 -6
BITMAP
0000
0000
0000
0000
0000
0000
1C00
1C00
1C00
0700
0700
0700
0380
0380
0380
00E0
00E0
00E0
0070
0070
0070
001C
001C
001C
0000
0000
0000
0000
0000
0000
ENDCHAR
STARTCHAR bracketright
ENCODING 93
SWIDTH 720 0
DWIDTH 15 0
BBX 15 30 0 -6
BITMAP
0000
0000
0000
0000
0000
1FF0
0070
0070
0070
0070
0070
0070
0070
0070
0070
0070
0070
0070
0070
0070
0070
0070
0070
1FF0
0000
0000
0000
0000
0000
0000
ENDCHAR
STARTCHAR asciicircum
ENCODING 94
SWIDTH 720 0
DWIDTH 15 0
BBX 15 30 0 -6
BITMAP
0000
0000
0000
0000
0000
0380
07E0
07E0
1C70
381C
381C
0000
0000
0000
0000
0000
0000
0000
0000
0000
0000
0000
0000
0000
0000
0000
0000
0000
0000
0000
ENDCHAR
STARTCHAR underscore
ENCODING 95
SWIDTH 720 0
DWIDTH 15 0
BBX 15 30 0 -6
BITMAP
0000
0000
0000
0000
0000
0000
0000
0000
0000
0000
0000
0000
0000
0000
0000
0000
0000
0000
0000
0000
0000
0000
0000
0000
3FFE
3FFE
0000
0000
0000
0000
ENDCHAR
STARTCHAR grave
ENCODING 96
SWIDTH 720 0
DWIDTH 15 0
BBX 15 30 0 -6
BITMAP
0000
0000
0000
0000
0000
0700
0380
0380
00E0
0000
0000
0000
0000
0000
0000
0000
0000
0000
0000
0000
0000
0000
0000
0000
0000
0000
0000
0000
0000
0000
ENDCHAR
STARTCHAR a
ENCODING 97
SWIDTH 720 0
DWIDTH 15 0
BBX 15 30 0 -6
BITMAP
0000
0000
0000
0000
0000
0000
0000
0000
0000
0000
0000
0000
07F0
07F0
1C1C
001C
001C
1FFC
381C
381C
381C
381C
381C
1FEC
0000
0000
0000
0000
0000
0000
ENDCHAR
STARTCHAR b
ENCODING 98
SWIDTH 720 0
DWIDTH 15 0
BBX 15 30 0 -6
BITMAP
0000
0000
0000
0000
0000
3800
3800
3800
3800
3800
3800
3800
3BE0
3BE0
3C70
381C
381C
381C
381C
381C
381C
3C70
3C70
3BE0
0000
0000
0000
0000
0000
0000
ENDCHAR
STARTCHAR c
ENCODING 99
SWIDTH 720 0
DWIDTH 15 0
BBX 15 30 0 -6
BITMAP
0000
0000
0000
0000
0000
0000
0000
0000
0000
0000
0000
0000
07F0
07F0
1C1C
3800
3800
3800
3800
3800
3800
1C1C
1C1C
07F0
0000
0000
0000
0000
0000
0000
ENDCHAR
STARTCHAR d
ENCODING 100
SWIDTH 720 0
DWIDTH 15 0
BBX 15 30 0 -6
BITMAP
0000
0000
0000
0000
0000
001C
001C
001C
001C
001C
001C
001C
079C
079C
1C7C
381C
381C
381C
381C
381C
381C
1C7C
1C7C
079C
0000
0000
0000
0000
0000
0000
ENDCHAR
STARTCHAR e
ENCODING 101
SWIDTH 720 0
DWIDTH 15 0
BBX 15 30 0 -6
BITMAP
0000
0000
0000
0000
0000
0000
0000
0000
0000
0000
0000
0000
07E0
07E0
1C70
381C
381C
3FFC
3800
3800
3800
1C1C
1C1C
07F0
0000
0000
0000
0000
0000
0000
ENDCHAR
STARTCHAR f
ENCODING 102
SWIDTH 720 0
DWIDTH 15 0
BBX 15 30 0 -6
BITMAP
0000
0000
0000
0000
0000
03F0
071C
071C
071C
0700
0700
0700
3FE0
3FE0
0700
0700
0700
0700
0700
0700
0700
0700
0700
0700
0000
0000
0000
0000
0000
0000
ENDCHAR
STARTCHAR g
ENCODING 103
SWIDTH 720 0
DWIDTH 15 0
BBX 15 30 0 -6
BITMAP
0000
0000
0000
0000
0000
0000
0000
0000
0000
0000
0000
0000
1FEC
1FEC
387C
3870
3870
3870
3870
3870
1FE0
3800
3800
1FF0
381C
381C
381C
381C
381C
1FF0
ENDCHAR
STARTCHAR h
ENCODING 104
SWIDTH 720 0
DWIDTH 15 0
BBX 15 30 0 -6
BITMAP
0000
0000
0000
0000
0000
3800
3800
3800
3800
3800
3800
3800
3BE0
3BE0
3C70
381C
381C
381C
381C
381C
381C
381C
381C
381C
0000
0000
0000
0000
0000
0000
ENDCHAR
STARTCHAR i
ENCODING 105
SWIDTH 720 0
DWIDTH 15 0
BBX 15 30 0 -6
BITMAP
0000
0000
0000
0000
0000
0000
0000
0000
0380
0380
0380
0000
1F80
1F80
0380
0380
0380
0380
0380
0380
0380
0380
0380
3FFC
0000
0000
0000
0000
0000
0000
ENDCHAR
STARTCHAR j
ENCODING 106
SWIDTH 720 0
DWIDTH 15 0
BBX 15 30 0 -6
BITMAP
0000
0000
0000
0000
0000
0000
0000
0000
001C
001C
001C
0000
00FC
00FC
001C
001C
001C
001C
001C
001C
001C
001C
001C
001C
1C1C
1C1C
1C1C
1C1C
1C1C
07F0
ENDCHAR
STARTCHAR k
ENCODING 107
SWIDTH 720 0
DWIDTH 15 0
BBX 15 30 0 -6
BITMAP
0000
0000
0000
0000
0000
3800
3800
3800
3800
3800
3800
3800
3870
3870
38E0
3B80
3B80
3F00
3F80
3F80
38E0
3870
3870
381C
0000
0000
0000
0000
0000
0000
ENDCHAR
STARTCHAR l
ENCODING 108
SWIDTH 720 0
DWIDTH 15 0
BBX 15 30 0 -6
BITMAP
0000
0000
0000
0000
0000
1F80
0380
0380
0380
0380
0380
0380
0380
0380
0380
0380
0380
0380
0380
0380
0380
0380
0380
3FFC
0000
0000
0000
0000
0000
0000
ENDCHAR
STARTCHAR m
ENCODING 109
SWIDTH 720 0
DWIDTH 15 0
BBX 15 30 0 -6
BITMAP
0000
0000
0000
0000
0000
0000
0000
0000
0000
0000
0000
0000
2770
2770
3FFC
3B9C
3B9C
3B9C
3B9C
3B9C
3B9C
3B9C
3B9C
3B9C
0000
0000
0000
0000
0000
0000
ENDCHAR
STARTCHAR n
ENCODING 110
SWIDTH 720 0
DWIDTH 15 0
BBX 15 30 0 -6
BITMAP
0000
0000
0000
0000
0000
0000
0000
0000
0000
0000
0000
0000
3BE0
3BE0
3C70
381C
381C
381C
381C
381C
381C
381C
381C
381C
0000
0000
0000
0000
0000
0000
ENDCHAR
STARTCHAR o
ENCODING 111
SWIDTH 720 0
DWIDTH 15 0
BBX 15 30 0 -6
BITMAP
0000
0000
0000
0000
0000
0000
0000
0000
0000
0000
0000
0000
07E0
07E0
1C70
381C
381C
381C
381C
381C
381C
1C70
1C70
07E0
0000
0000
0000
0000
0000
0000
ENDCHAR
STARTCHAR p
ENCODING 112
SWIDTH 720 0
DWIDTH 15 0
BBX 15 30 0 -6
BITMAP
0000
0000
0000
0000
0000
0000
0000
0000
0000
0000
0000
0000
3BE0
3BE0
3C70
381C
381C
381C
381C
381C
381C
3C70
3C70
3BE0
3800
3800
3800
3800
3800
3800
ENDCHAR
STARTCHAR q
ENCODING 113
SWIDTH 720 0
DWIDTH 15 0
BBX 15 30 0 -6
BITMAP
0000
0000
0000
0000
0000
0000
0000
0000
0000
0000
0000
0000
079C
079C
1C7C
381C
381C
381C
381C
381C
381C
1C7C
1C7C
079C
001C
001C
001C
001C
001C
001C
ENDCHAR
STARTCHAR r
ENCODING 114
SWIDTH 720 0
DWIDTH 15 0
BBX 15 30 0 -6
BITMAP
0000
0000
0000
0000
0000
0000
0000
0000
0000
0000
0000
0000
3BF0
3BF0
1F1C
1C00
1C00
1C00
1C00
1C00
1C00
1C00
1C00
1C00
0000
0000
0000
0000
0000
0000
ENDCHAR
STARTCHAR s
ENCODING 115
SWIDTH 720 0
DWIDTH 15 0
BBX 15 30 0 -6
BITMAP
0000
0000
0000
0000
0000
0000
0000
0000
0000
0000
0000
0000
1FF0
1FF0
381C
3800
3800
1FF0
001C
001C
001C
381C
381C
1FF0
0000
0000
0000
0000
0000
0000
ENDCHAR
STARTCHAR t
ENCODING 116
SWIDTH 720 0
DWIDTH 15 0
BBX 15 30 0 -6
BITMAP
0000
0000
0000
0000
0000
0000
0000
0000
0700
0700
0700
0700
3FE0
3FE0
0700
0700
0700
0700
0700
0700
0700
071C
071C
03F0
0000
0000
0000
0000
0000
0000
ENDCHAR
STARTCHAR u
ENCODING 117
SWIDTH 720 0
DWIDTH 15 0
BBX 15 30 0 -6
BITMAP
0000
0000
0000
0000
0000
0000
0000
0000
0000
0000
0000
0000
381C
381C
381C
381C
381C
381C
381C
381C
381C
1C7C
1C7C
079C
0000
0000
0000
0000
0000
0000
ENDCHAR
STARTCHAR v
ENCODING 118
SWIDTH 720 0
DWIDTH 15 0
BBX 15 30 0 -6
BITMAP
0000
0000
0000
0000
0000
0000
0000
0000
0000
0000
0000
0000
381C
381C
381C
1C70
1C70
1C70
07E0
07E0
07E0
0380
0380
0380
0000
0000
0000
0000
0000
0000
ENDCHAR
STARTCHAR w
ENCODING 119
SWIDTH 720 0
DWIDTH 15 0
BBX 15 30 0 -6
BITMAP
0000
0000
0000
0000
0000
0000
0000
0000
0000
0000
0000
0000
381C
381C
381C
381C
381C
3B9C
3B9C
3B9C
3B9C
3FFC
3FFC
1C70
0000
0000
0000
0000
0000
0000
ENDCHAR
STARTCHAR x
ENCODING 120
SWIDTH 720 0
DWIDTH 15 0
BBX 15 30 0 -6
BITMAP
0000
0000
0000
0000
0000
0000
0000
0000
0000
0000
0000
0000
381C
381C
1C70
07E0
07E0
0380
0380
0380
07E0
1C70
1C70
381C
0000
0000
0000
0000
0000
0000
ENDCHAR
STARTCHAR y
ENCODING 121
SWIDTH 720 0
DWIDTH 15 0
BBX 15 30 0 -6
BITMAP
0000
0000
0000
0000
0000
0000
0000
0000
0000
0000
0000
0000
381C
381C
381C
381C
381C
381C
381C
381C
381C
1C7C
1C7C
079C
001C
001C
381C
1C70
1C70
07E0
ENDCHAR
STARTCHAR z
ENCODING 122
SWIDTH 720 0
DWIDTH 15 0
BBX 15 30 0 -6
BITMAP
0000
0000
0000
0000
0000
0000
0000
0000
0000
0000
0000
0000
1FFC
1FFC
001C
0070
0070
00E0
0380
0380
0700
1C00
1C00
1FFC
0000
0000
0000
0000
0000
0000
ENDCHAR
STARTCHAR braceleft
ENCODING 123
SWIDTH 720 0
DWIDTH 15 0
BBX 15 30 0 -6
BITMAP
0000
0000
0000
0000
0000
00FC
0380
0380
0380
0380
0380
0380
0380
0380
3F00
0380
0380
0380
0380
0380
0380
0380
0380
00FC
0000
0000
0000
0000
0000
0000
ENDCHAR
STARTCHAR bar
ENCODING 124
SWIDTH 720 0
DWIDTH 15 0
BBX 15 30 0 -6
BITMAP
0000
0000
0000
0000
0000
0380
0380
0380
0380
0380
0380
0380
0380
0380
0380
0380
0380
0380
0380
0380
0380
0380
0380
0380
0000
0000
0000
0000
0000
0000
ENDCHAR
STARTCHAR braceright
ENCODING 125
SWIDTH 720 0
DWIDTH 15 0
BBX 15 30 0 -6
BITMAP
0000
0000
0000
0000
0000
3F00
0380
0380
0380
0380
0380
0380
0380
0380
00FC
0380
0380
0380
0380
0380
0380
0380
0380
3F00
0000
0000
0000
0000
0000
0000
ENDCHAR
STARTCHAR asciitilde
ENCODING 126
SWIDTH 720 0
DWIDTH 15 0
BBX 15 30 0 -6
BITMAP
0000
0000
0000
0000
0000
1F1C
3B9C
3B9C
38F0
0000
0000
0000
0000
0000
0000
0000
0000
0000
0000
0000
0000
0000
0000
0000
0000
0000
0000
0000
0000
0000
ENDCHAR
STARTCHAR space
ENCODING 160
SWIDTH 720 0
DWIDTH 15 0
BBX 15 30 0 -6
BITMAP
0000
0000
0000
0000
0000
0000
0000
0000
0000
0000
0000
0000
0000
0000
0000
0000
0000
0000
0000
0000
0000
0000
0000
0000
0000
0000
0000
0000
0000
0000
ENDCHAR
STARTCHAR exclamdown
ENCODING 161
SWIDTH 720 0
DWIDTH 15 0
BBX 15 30 0 -6
BITMAP
0000
0000
0000
0000
0000
0380
0380
0380
0000
0380
0380
0380
0380
0380
0380
0380
0380
0380
0380
0380
0380
0380
0380
0380
0000
0000
0000
0000
0000
0000
ENDCHAR
STARTCHAR cent
ENCODING 162
SWIDTH 720 0
DWIDTH 15 0
BBX 15 30 0 -6
BITMAP
0000
0000
0000
0000
0000
0000
0380
0380
0380
07E0
07E0
1C70
3810
3810
3800
3800
3800
3810
1C70
1C70
07E0
0380
0380
0380
0000
0000
0000
0000
0000
0000
ENDCHAR
STARTCHAR sterling
ENCODING 163
SWIDTH 720 0
DWIDTH 15 0
BBX 15 30 0 -6
BITMAP
0000
0000
0000
0000
0000
0000
03F0
03F0
071C
071C
071C
0700
0700
0700
3FE0
0700
0700
0700
0700
0700
3F80
24EE
24EE
3C7C
0000
0000
0000
0000
0000
0000
ENDCHAR
STARTCHAR currency
ENCODING 164
SWIDTH 720 0
DWIDTH 15 0
BBX 15 30 0 -6
BITMAP
0000
0000
0000
0000
0000
0000
0000
0000
0000
C00C
C00C
E79C
3FF0
3FF0
3870
3870
3870
3870
3FF0
3FF0
E79C
C00C
C00C
0000
0000
0000
0000
0000
0000
0000
ENDCHAR
STARTCHAR yen
ENCODING 165
SWIDTH 720 0
DWIDTH 15 0
BBX 15 30 0 -6
BITMAP
0000
0000
0000
0000
0000
0000
0000
0000
200C
381C
381C
1C70
07E0
07E0
1FF0
0380
0380
1FF0
0380
0380
0380
0380
0380
0380
0000
0000
0000
0000
0000
0000
ENDCHAR
STARTCHAR brokenbar
ENCODING 166
SWIDTH 720 0
DWIDTH 15 0
BBX 15 30 0 -6
BITMAP
0000
0000
0000
0000
0000
0380
0380
0380
0380
0380
0380
0380
0000
0000
0000
0000
0000
0380
0380
0380
0380
0380
0380
0380
0000
0000
0000
0000
0000
0000
ENDCHAR
STARTCHAR section
ENCODING 167
SWIDTH 720 0
DWIDTH 15 0
BBX 15 30 0 -6
BITMAP
0000
0000
0000
0000
0000
07E0
1C70
1C70
3870
1C00
1C00
1F80
38E0
38E0
1C70
071C
071C
03F0
0070
0070
1C1C
1C70
1C70
07E0
0000
0000
0000
0000
0000
0000
ENDCHAR
STARTCHAR dieresis
ENCODING 168
SWIDTH 720 0
DWIDTH 15 0
BBX 15 30 0 -6
BITMAP
0000
0000
0000
0000
0000
1C70
1C70
1C70
0000
0000
0000
0000
0000
0000
0000
0000
0000
0000
0000
0000
0000
0000
0000
0000
0000
0000
0000
0000
0000
0000
ENDCHAR
STARTCHAR copyright
ENCODING 169
SWIDTH 720 0
DWIDTH 15 0
BBX 15 30 0 -6
BITMAP
0000
0000
0000
0000
0000
0000
0000
0000
07E0
1C70
1C70
381C
27EC
27EC
246C
240C
240C
246C
27EC
27EC
381C
1C70
1C70
07E0
0000
0000
0000
0000
0000
0000
ENDCHAR
STARTCHAR ordfeminine
ENCODING 170
SWIDTH 720 0
DWIDTH 15 0
BBX 15 30 0 -6
BITMAP
0000
0000
0000
0000
0000
07F0
181C
181C
001C
1FFC
1FFC
381C
381C
381C
1FEC
0000
0000
3FFC
0000
0000
0000
0000
0000
0000
0000
0000
0000
0000
0000
0000
ENDCHAR
STARTCHAR guillemotleft
ENCODING 171
SWIDTH 720 0
DWIDTH 15 0
BBX 15 30 0 -6
BITMAP
0000
0000
0000
0000
0000
0000
0000
0000
008C
039C
039C
0770
1CE0
1CE0
3B80
E700
E700
3B80
1CE0
1CE0
0770
039C
039C
008C
0000
0000
0000
0000
0000
0000
ENDCHAR
STARTCHAR logicalnot
ENCODING 172
SWIDTH 720 0
DWIDTH 15 0
BBX 15 30 0 -6
BITMAP
0000
0000
0000
0000
0000
0000
0000
0000
0000
0000
0000
0000
3FFC
3FFC
3FFC
001C
001C
001C
0000
0000
0000
0000
0000
0000
0000
0000
0000
0000
0000
0000
ENDCHAR
STARTCHAR hyphen
ENCODING 173
SWIDTH 720 0
DWIDTH 15 0
BBX 15 30 0 -6
BITMAP
0000
0000
0000
0000
0000
0000
0000
0000
0000
0000
0000
0000
0000
0000
1FF0
0000
0000
0000
0000
0000
0000
0000
0000
0000
0000
0000
0000
0000
0000
0000
ENDCHAR
STARTCHAR registered
ENCODING 174
SWIDTH 720 0
DWIDTH 15 0
BBX 15 30 0 -6
BITMAP
0000
0000
0000
0000
0000
0000
0000
0000
07E0
1C70
1C70
381C
27EC
27EC
246C
27EC
27EC
248C
24EC
24EC
381C
1C70
1C70
07E0
0000
0000
0000
0000
0000
0000
ENDCHAR
STARTCHAR macron
ENCODING 175
SWIDTH 720 0
DWIDTH 15 0
BBX 15 30 0 -6
BITMAP
0000
0000
0000
3FFC
3FFC
0000
0000
0000
0000
0000
0000
0000
0000
0000
0000
0000
0000
0000
0000
0000
0000
0000
0000
0000
0000
0000
0000
0000
0000
0000
ENDCHAR
STARTCHAR degree
ENCODING 176
SWIDTH 720 0
DWIDTH 15 0
BBX 15 30 0 -6
BITMAP
0000
0000
0000
0000
0000
0380
07E0
07E0
1C70
1C70
1C70
07E0
0380
0380
0000
0000
0000
0000
0000
0000
0000
0000
0000
0000
0000
0000
0000
0000
0000
0000
ENDCHAR
STARTCHAR plusminus
ENCODING 177
SWIDTH 720 0
DWIDTH 15 0
BBX 15 30 0 -6
BITMAP
0000
0000
0000
0000
0000
0000
0000
0000
0000
0000
0000
0380
0380
0380
3FFC
0380
0380
0380
0000
0000
3FFC
0000
0000
0000
0000
0000
0000
0000
0000
0000
ENDCHAR
STARTCHAR twosuperior
ENCODING 178
SWIDTH 720 0
DWIDTH 15 0
BBX 15 30 0 -6
BITMAP
0000
0000
0000
0000
0000
0780
1CE0
1CE0
00E0
0380
0380
0700
1C00
1C00
1FE0
0000
0000
0000
0000
0000
0000
0000
0000
0000
0000
0000
0000
0000
0000
0000
ENDCHAR
STARTCHAR threesuperior
ENCODING 179
SWIDTH 720 0
DWIDTH 15 0
BBX 15 30 0 -6
BITMAP
0000
0000
0000
0000
0000
0780
1CE0
1CE0
00E0
0380
0380
00E0
1CE0
1CE0
0780
0000
0000
0000
0000
0000
0000
0000
0000
0000
0000
0000
0000
0000
0000
0000
ENDCHAR
STARTCHAR acute
ENCODING 180
SWIDTH 720 0
DWIDTH 15 0
BBX 15 30 0 -6
BITMAP
0000
0000
0000
0000
0000
00E0
0380
0380
0700
0000
0000
0000
0000
0000
0000
0000
0000
0000
0000
0000
0000
0000
0000
0000
0000
0000
0000
0000
0000
0000
ENDCHAR
STARTCHAR mu
ENCODING 181
SWIDTH 720 0
DWIDTH 15 0
BBX 15 30 0 -6
BITMAP
0000
0000
0000
0000
0000
0000
0000
0000
0000
0000
0000
0000
0000
0000
3870
3870
3870
3870
3870
3870
3870
3CF0
3CF0
3F90
3800
3800
3800
3800
3800
0000
ENDCHAR
STARTCHAR paragraph
ENCODING 182
SWIDTH 720 0
DWIDTH 15 0
BBX 15 30 0 -6
BITMAP
0000
0000
0000
0000
0000
1FFC
3FFC
3FFC
3F9C
3F9C
3F9C
3F9C
1F9C
1F9C
039C
039C
039C
039C
039C
039C
039C
039C
039C
039C
0000
0000
0000
0000
0000
0000
ENDCHAR
STARTCHAR periodcentered
ENCODING 183
SWIDTH 720 0
DWIDTH 15 0
BBX 15 30 0 -6
BITMAP
0000
0000
0000
0000
0000
0000
0000
0000
0000
0000
0000
0000
03E0
03E0
03E0
03E0
03E0
0000
0000
0000
0000
0000
0000
0000
0000
0000
0000
0000
0000
0000
ENDCHAR
STARTCHAR cedilla
ENCODING 184
SWIDTH 720 0
DWIDTH 15 0
BBX 15 30 0 -6
BITMAP
0000
0000
0000
0000
0000
0000
0000
0000
0000
0000
0000
0000
0000
0000
0000
0000
0000
0000
0000
0000
0000
0000
0000
0000
0380
0380
00E0
1CE0
1CE0
0780
ENDCHAR
STARTCHAR onesuperior
ENCODING 185
SWIDTH 720 0
DWIDTH 15 0
BBX 15 30 0 -6
BITMAP
0000
0000
0000
0000
0000
0700
1F00
1F00
0700
0700
0700
0700
0700
0700
1F80
0000
0000
0000
0000
0000
0000
0000
0000
0000
0000
0000
0000
0000
0000
0000
ENDCHAR
STARTCHAR ordmasculine
ENCODING 186
SWIDTH 720 0
DWIDTH 15 0
BBX 15 30 0 -6
BITMAP
0000
0000
0000
0000
0000
0780
1CE0
1CE0
3870
3870
3870
3870
1CE0
1CE0
0780
0000
0000
3FF0
0000
0000
0000
0000
0000
0000
0000
0000
0000
0000
0000
0000
ENDCHAR
STARTCHAR guillemotright
ENCODING 187
SWIDTH 720 0
DWIDTH 15 0
BBX 15 30 0 -6
BITMAP
0000
0000
0000
0000
0000
0000
0000
0000
2300
3B80
3B80
1CE0
0770
0770
039C
00EE
00EE
039C
0770
0770
1CE0
3B80
3B80
2300
0000
0000
0000
0000
0000
0000
ENDCHAR
STARTCHAR onequarter
ENCODING 188
SWIDTH 720 0
DWIDTH 15 0
BBX 15 30 0 -6
BITMAP
0000
0000
0000
0000
0000
1800
3800
3800
180C
1810
1810
3C60
0080
0080
0310
0470
0470
1890
23F0
23F0
0010
0010
0010
0000
0000
0000
0000
0000
0000
0000
ENDCHAR
STARTCHAR onehalf
ENCODING 189
SWIDTH 720 0
DWIDTH 15 0
BBX 15 30 0 -6
BITMAP
0000
0000
0000
0000
0000
1800
3800
3800
180C
1810
1810
3C60
0080
0080
0370
048C
048C
180C
2010
2010
0060
00FC
00FC
0000
0000
0000
0000
0000
0000
0000
ENDCHAR
STARTCHAR threequarters
ENCODING 190
SWIDTH 720 0
DWIDTH 15 0
BBX 15 30 0 -6
BITMAP
0000
0000
0000
0000
0000
3C00
0300
0300
1C0C
0310
0310
3C60
0080
0080
0310
0470
0470
1890
23FC
23FC
0010
0010
0010
0000
0000
0000
0000
0000
0000
0000
ENDCHAR
STARTCHAR questiondown
ENCODING 191
SWIDTH 720 0
DWIDTH 15 0
BBX 15 30 0 -6
BITMAP
0000
0000
0000
0000
0000
0380
0380
0380
0000
0380
0380
0380
0380
0380
0700
1C00
1C00
381C
381C
381C
381C
1C70
1C70
07E0
0000
0000
0000
0000
0000
0000
ENDCHAR
STARTCHAR Agrave
ENCODING 192
SWIDTH 720 0
DWIDTH 15 0
BBX 15 30 0 -6
BITMAP
0000
0000
1C00
0700
0700
0380
0000
0000
0380
07E0
07E0
1C70
381C
381C
381C
381C
381C
3FFC
381C
381C
381C
381C
381C
381C
0000
0000
0000
0000
0000
0000
ENDCHAR
STARTCHAR Aacute
ENCODING 193
SWIDTH 720 0
DWIDTH 15 0
BBX 15 30 0 -6
BITMAP
0000
0000
0070
00E0
00E0
0380
0000
0000
0380
07E0
07E0
1C70
381C
381C
381C
381C
381C
3FFC
381C
381C
381C
381C
381C
381C
0000
0000
0000
0000
0000
0000
ENDCHAR
STARTCHAR Acircumflex
ENCODING 194
SWIDTH 720 0
DWIDTH 15 0
BBX 15 30 0 -6
BITMAP
0000
0000
0380
07E0
07E0
1C70
0000
0000
0380
07E0
07E0
1C70
381C
381C
381C
381C
381C
3FFC
381C
381C
381C
381C
381C
381C
0000
0000
0000
0000
0000
0000
ENDCHAR
STARTCHAR Atilde
ENCODING 195
SWIDTH 720 0
DWIDTH 15 0
BBX 15 30 0 -6
BITMAP
0000
0000
0710
1FF0
1FF0
18E0
0000
0000
0380
07E0
07E0
1C70
381C
381C
381C
381C
381C
3FFC
381C
381C
381C
381C
381C
381C
0000
0000
0000
0000
0000
0000
ENDCHAR
STARTCHAR Adieresis
ENCODING 196
SWIDTH 720 0
DWIDTH 15 0
BBX 15 30 0 -6
BITMAP
0000
0000
1C70
1C70
1C70
0000
0380
0380
07E0
1C70
1C70
1C70
381C
381C
381C
381C
381C
3FFC
381C
381C
381C
381C
381C
381C
0000
0000
0000
0000
0000
0000
ENDCHAR
STARTCHAR Aring
ENCODING 197
SWIDTH 720 0
DWIDTH 15 0
BBX 15 30 0 -6
BITMAP
07E0
07E0
1C70
1C70
1C70
07E0
0000
0000
0380
07E0
07E0
1C70
381C
381C
381C
381C
381C
3FFC
381C
381C
381C
381C
381C
381C
0000
0000
0000
0000
0000
0000
ENDCHAR
STARTCHAR AE
ENCODING 198
SWIDTH 720 0
DWIDTH 15 0
BBX 15 30 0 -6
BITMAP
0000
0000
0000
0000
0000
03FC
07E0
07E0
1CE0
1CE0
1CE0
38E0
38E0
38E0
3FFC
38E0
38E0
38E0
38E0
38E0
38E0
38E0
38E0
38FC
0000
0000
0000
0000
0000
0000
ENDCHAR
STARTCHAR Ccedilla
ENCODING 199
SWIDTH 720 0
DWIDTH 15 0
BBX 15 30 0 -6
BITMAP
0000
0000
0000
0000
0000
07E0
1C70
1C70
381C
3800
3800
3800
3800
3800
3800
3800
3800
3800
3800
3800
381C
1C70
1C70
07E0
0380
0380
00E0
1CE0
1CE0
0780
ENDCHAR
STARTCHAR Egrave
ENCODING 200
SWIDTH 720 0
DWIDTH 15 0
BBX 15 30 0 -6
BITMAP
0000
0000
1C00
0700
0700
0380
0000
0000
3FFC
3800
3800
3800
3800
3800
3800
3FE0
3FE0
3800
3800
3800
3800
3800
3800
3FFC
0000
0000
0000
0000
0000
0000
ENDCHAR
STARTCHAR Eacute
ENCODING 201
SWIDTH 720 0
DWIDTH 15 0
BBX 15 30 0 -6
BITMAP
0000
0000
00E0
0380
0380
0700
0000
0000
3FFC
3800
3800
3800
3800
3800
3800
3FE0
3FE0
3800
3800
3800
3800
3800
3800
3FFC
0000
0000
0000
0000
0000
0000
ENDCHAR
STARTCHAR Ecircumflex
ENCODING 202
SWIDTH 720 0
DWIDTH 15 0
BBX 15 30 0 -6
BITMAP
0000
0000
0380
07E0
07E0
1C70
0000
0000
3FFC
3800
3800
3800
3800
3800
3800
3FE0
3FE0
3800
3800
3800
3800
3800
3800
3FFC
0000
0000
0000
0000
0000
0000
ENDCHAR
STARTCHAR Edieresis
ENCODING 203
SWIDTH 720 0
DWIDTH 15 0
BBX 15 30 0 -6
BITMAP
0000
0000
1C70
1C70
1C70
0000
0000
0000
3FFC
3800
3800
3800
3800
3800
3800
3FE0
3FE0
3800
3800
3800
3800
3800
3800
3FFC
0000
0000
0000
0000
0000
0000
ENDCHAR
STARTCHAR Igrave
ENCODING 204
SWIDTH 720 0
DWIDTH 15 0
BBX 15 30 0 -6
BITMAP
0000
0000
0700
0380
0380
00E0
0000
0000
1FF0
0380
0380
0380
0380
0380
0380
0380
0380
0380
0380
0380
0380
0380
0380
1FF0
0000
0000
0000
0000
0000
0000
ENDCHAR
STARTCHAR Iacute
ENCODING 205
SWIDTH 720 0
DWIDTH 15 0
BBX 15 30 0 -6
BITMAP
0000
0000
00E0
0380
0380
0700
0000
0000
1FF0
0380
0380
0380
0380
0380
0380
0380
0380
0380
0380
0380
0380
0380
0380
1FF0
0000
0000
0000
0000
0000
0000
ENDCHAR
STARTCHAR Icircumflex
ENCODING 206
SWIDTH 720 0
DWIDTH 15 0
BBX 15 30 0 -6
BITMAP
0000
0000
0380
07E0
07E0
1C70
0000
0000
1FF0
0380
0380
0380
0380
0380
0380
0380
0380
0380
0380
0380
0380
0380
0380
1FF0
0000
0000
0000
0000
0000
0000
ENDCHAR
STARTCHAR Idieresis
ENCODING 207
SWIDTH 720 0
DWIDTH 15 0
BBX 15 30 0 -6
BITMAP
0000
0000
1C70
1C70
1C70
0000
1FF0
1FF0
0380
0380
0380
0380
0380
0380
0380
0380
0380
0380
0380
0380
0380
0380
0380
1FF0
0000
0000
0000
0000
0000
0000
ENDCHAR
STARTCHAR Eth
ENCODING 208
SWIDTH 720 0
DWIDTH 15 0
BBX 15 30 0 -6
BITMAP
0000
0000
0000
0000
0000
3FE0
3870
3870
381C
381C
381C
381C
381C
381C
FF1C
381C
381C
381C
381C
381C
381C
3870
3870
3FE0
0000
0000
0000
0000
0000
0000
ENDCHAR
STARTCHAR Ntilde
ENCODING 209
SWIDTH 720 0
DWIDTH 15 0
BBX 15 30 0 -6
BITMAP
0000
0000
0710
1FF0
1FF0
18E0
0000
0000
381C
3C1C
3C1C
3F1C
3F1C
3F1C
3B9C
3B9C
3B9C
38FC
38FC
38FC
387C
381C
381C
381C
0000
0000
0000
0000
0000
0000
ENDCHAR
STARTCHAR Ograve
ENCODING 210
SWIDTH 720 0
DWIDTH 15 0
BBX 15 30 0 -6
BITMAP
0000
0000
0700
0380
0380
00E0
0000
0000
07E0
1C70
1C70
381C
381C
381C
381C
381C
381C
381C
381C
381C
381C
1C70
1C70
07E0
0000
0000
0000
0000
0000
0000
ENDCHAR
STARTCHAR Oacute
ENCODING 211
SWIDTH 720 0
DWIDTH 15 0
BBX 15 30 0 -6
BITMAP
0000
0000
00E0
0380
0380
0700
0000
0000
07E0
1C70
1C70
381C
381C
381C
381C
381C
381C
381C
381C
381C
381C
1C70
1C70
07E0
0000
0000
0000
0000
0000
0000
ENDCHAR
STARTCHAR Ocircumflex
ENCODING 212
SWIDTH 720 0
DWIDTH 15 0
BBX 15 30 0 -6
BITMAP
0000
0000
0380
07E0
07E0
1C70
0000
0000
07E0
1C70
1C70
381C
381C
381C
381C
381C
381C
381C
381C
381C
381C
1C70
1C70
07E0
0000
0000
0000
0000
0000
0000
ENDCHAR
STARTCHAR Otilde
ENCODING 213
SWIDTH 720 0
DWIDTH 15 0
BBX 15 30 0 -6
BITMAP
0000
0000
0710
1FF0
1FF0
18E0
0000
0000
07E0
1C70
1C70
381C
381C
381C
381C
381C
381C
381C
381C
381C
381C
1C70
1C70
07E0
0000
0000
0000
0000
0000
0000
ENDCHAR
STARTCHAR Odieresis
ENCODING 214
SWIDTH 720 0
DWIDTH 15 0
BBX 15 30 0 -6
BITMAP
0000
0000
1C70
1C70
1C70
0000
07E0
07E0
1C70
381C
381C
381C
381C
381C
381C
381C
381C
381C
381C
381C
381C
1C70
1C70
07E0
0000
0000
0000
0000
0000
0000
ENDCHAR
STARTCHAR multiply
ENCODING 215
SWIDTH 720 0
DWIDTH 15 0
BBX 15 30 0 -6
BITMAP
0000
0000
0000
0000
0000
0000
0000
0000
0000
0000
0000
0000
2010
2010
3870
1CE0
1CE0
0780
0780
0780
1CE0
3870
3870
2010
0000
0000
0000
0000
0000
0000
ENDCHAR
STARTCHAR Oslash
ENCODING 216
SWIDTH 720 0
DWIDTH 15 0
BBX 15 30 0 -6
BITMAP
0000
0000
0000
000C
000C
07F0
1C70
1C70
387C
387C
387C
389C
389C
389C
389C
3B1C
3B1C
3B1C
3B1C
3B1C
3C1C
1C70
1C70
1FE0
2000
2000
0000
0000
0000
0000
ENDCHAR
STARTCHAR Ugrave
ENCODING 217
SWIDTH 720 0
DWIDTH 15 0
BBX 15 30 0 -6
BITMAP
0000
0000
0700
0380
0380
00E0
0000
0000
381C
381C
381C
381C
381C
381C
381C
381C
381C
381C
381C
381C
381C
1C70
1C70
07E0
0000
0000
0000
0000
0000
0000
ENDCHAR
STARTCHAR Uacute
ENCODING 218
SWIDTH 720 0
DWIDTH 15 0
BBX 15 30 0 -6
BITMAP
0000
0000
00E0
0380
0380
0700
0000
0000
381C
381C
381C
381C
381C
381C
381C
381C
381C
381C
381C
381C
381C
1C70
1C70
07E0
0000
0000
0000
0000
0000
0000
ENDCHAR
STARTCHAR Ucircumflex
ENCODING 219
SWIDTH 720 0
DWIDTH 15 0
BBX 15 30 0 -6
BITMAP
0000
0000
0380
07E0
07E0
1C70
0000
0000
381C
381C
381C
381C
381C
381C
381C
381C
381C
381C
381C
381C
381C
1C70
1C70
07E0
0000
0000
0000
0000
0000
0000
ENDCHAR
STARTCHAR Udieresis
ENCODING 220
SWIDTH 720 0
DWIDTH 15 0
BBX 15 30 0 -6
BITMAP
0000
0000
1C70
1C70
1C70
0000
381C
381C
381C
381C
381C
381C
381C
381C
381C
381C
381C
381C
381C
381C
381C
1C70
1C70
07E0
0000
0000
0000
0000
0000
0000
ENDCHAR
STARTCHAR Yacute
ENCODING 221
SWIDTH 720 0
DWIDTH 15 0
BBX 15 30 0 -6
BITMAP
0000
0000
00E0
0380
0380
0700
0000
0000
381C
381C
381C
1C70
1C70
1C70
07E0
07E0
07E0
0380
0380
0380
0380
0380
0380
0380
0000
0000
0000
0000
0000
0000
ENDCHAR
STARTCHAR Thorn
ENCODING 222
SWIDTH 720 0
DWIDTH 15 0
BBX 15 30 0 -6
BITMAP
0000
0000
0000
0000
0000
1C00
1C00
1C00
1C00
1FF0
1FF0
1C1C
1C1C
1C1C
1C1C
1C1C
1C1C
1C1C
1FF0
1FF0
1C00
1C00
1C00
1C00
0000
0000
0000
0000
0000
0000
ENDCHAR
STARTCHAR germandbls
ENCODING 223
SWIDTH 720 0
DWIDTH 15 0
BBX 15 30 0 -6
BITMAP
0000
0000
0000
0000
0000
03E0
0770
0770
1C1C
1C1C
1C1C
1C70
3CE0
3CE0
1CE0
1C70
1C70
1C1C
1C1C
1C1C
1C1C
1C70
1C70
1CE0
0000
0000
0000
0000
0000
0000
ENDCHAR
STARTCHAR agrave
ENCODING 224
SWIDTH 720 0
DWIDTH 15 0
BBX 15 30 0 -6
BITMAP
0000
0000
0000
0000
0000
0000
0700
0700
0380
00E0
00E0
0000
1FF0
1FF0
381C
001C
001C
1FFC
381C
381C
381C
381C
381C
1FEC
0000
0000
0000
0000
0000
0000
ENDCHAR
STARTCHAR aacute
ENCODING 225
SWIDTH 720 0
DWIDTH 15 0
BBX 15 30 0 -6
BITMAP
0000
0000
0000
0000
0000
0000
00E0
00E0
0380
0700
0700
0000
1FF0
1FF0
381C
001C
001C
1FFC
381C
381C
381C
381C
381C
1FEC
0000
0000
0000
0000
0000
0000
ENDCHAR
STARTCHAR acircumflex
ENCODING 226
SWIDTH 720 0
DWIDTH 15 0
BBX 15 30 0 -6
BITMAP
0000
0000
0000
0000
0000
0000
0380
0380
07E0
1C70
1C70
0000
1FF0
1FF0
381C
001C
001C
1FFC
381C
381C
381C
381C
381C
1FEC
0000
0000
0000
0000
0000
0000
ENDCHAR
STARTCHAR atilde
ENCODING 227
SWIDTH 720 0
DWIDTH 15 0
BBX 15 30 0 -6
BITMAP
0000
0000
0000
0000
0000
0000
0710
0710
1FF0
18E0
18E0
0000
1FF0
1FF0
381C
001C
001C
1FFC
381C
381C
381C
381C
381C
1FEC
0000
0000
0000
0000
0000
0000
ENDCHAR
STARTCHAR adieresis
ENCODING 228
SWIDTH 720 0
DWIDTH 15 0
BBX 15 30 0 -6
BITMAP
0000
0000
0000
0000
0000
0000
0000
0000
1C70
1C70
1C70
0000
1FF0
1FF0
381C
001C
001C
1FFC
381C
381C
381C
381C
381C
1FEC
0000
0000
0000
0000
0000
0000
ENDCHAR
STARTCHAR aring
ENCODING 229
SWIDTH 720 0
DWIDTH 15 0
BBX 15 30 0 -6
BITMAP
0000
0000
0000
0000
0000
07E0
1C70
1C70
1C70
07E0
07E0
0000
1FF0
1FF0
381C
001C
001C
1FFC
381C
381C
381C
381C
381C
1FEC
0000
0000
0000
0000
0000
0000
ENDCHAR
STARTCHAR ae
ENCODING 230
SWIDTH 720 0
DWIDTH 15 0
BBX 15 30 0 -6
BITMAP
0000
0000
0000
0000
0000
0000
0000
0000
0000
0000
0000
0000
1F70
1F70
239C
039C
039C
03F0
1F80
1F80
3B80
3B8C
3B8C
1CF0
0000
0000
0000
0000
0000
0000
ENDCHAR
STARTCHAR ccedilla
ENCODING 231
SWIDTH 720 0
DWIDTH 15 0
BBX 15 30 0 -6
BITMAP
0000
0000
0000
0000
0000
0000
0000
0000
0000
0000
0000
0000
07F0
07F0
1C1C
3800
3800
3800
3800
3800
3800
1C1C
1C1C
07F0
0380
0380
00E0
1CE0
1CE0
0780
ENDCHAR
STARTCHAR egrave
ENCODING 232
SWIDTH 720 0
DWIDTH 15 0
BBX 15 30 0 -6
BITMAP
0000
0000
0000
0000
0000
0000
1C00
1C00
0700
0380
0380
0000
07E0
07E0
1C70
381C
381C
3FFC
3800
3800
3800
1C1C
1C1C
07F0
0000
0000
0000
0000
0000
0000
ENDCHAR
STARTCHAR eacute
ENCODING 233
SWIDTH 720 0
DWIDTH 15 0
BBX 15 30 0 -6
BITMAP
0000
0000
0000
0000
0000
0000
0070
0070
00E0
0380
0380
0000
07E0
07E0
1C70
381C
381C
3FFC
3800
3800
3800
1C1C
1C1C
07F0
0000
0000
0000
0000
0000
0000
ENDCHAR
STARTCHAR ecircumflex
ENCODING 234
SWIDTH 720 0
DWIDTH 15 0
BBX 15 30 0 -6
BITMAP
0000
0000
0000
0000
0000
0000
0380
0380
07E0
1C70
1C70
0000
07E0
07E0
1C70
381C
381C
3FFC
3800
3800
3800
1C1C
1C1C
07F0
0000
0000
0000
0000
0000
0000
ENDCHAR
STARTCHAR edieresis
ENCODING 235
SWIDTH 720 0
DWIDTH 15 0
BBX 15 30 0 -6
BITMAP
0000
0000
0000
0000
0000
0000
0000
0000
1C70
1C70
1C70
0000
07E0
07E0
1C70
381C
381C
3FFC
3800
3800
3800
1C1C
1C1C
07F0
0000
0000
0000
0000
0000
0000
ENDCHAR
STARTCHAR igrave
ENCODING 236
SWIDTH 720 0
DWIDTH 15 0
BBX 15 30 0 -6
BITMAP
0000
0000
0000
0000
0000
0000
1C00
1C00
0700
0380
0380
0000
1F80
1F80
0380
0380
0380
0380
0380
0380
0380
0380
0380
3FFC
0000
0000
0000
0000
0000
0000
ENDCHAR
STARTCHAR iacute
ENCODING 237
SWIDTH 720 0
DWIDTH 15 0
BBX 15 30 0 -6
BITMAP
0000
0000
0000
0000
0000
0000
00E0
00E0
0380
0700
0700
0000
1F80
1F80
0380
0380
0380
0380
0380
0380
0380
0380
0380
3FFC
0000
0000
0000
0000
0000
0000
ENDCHAR
STARTCHAR icircumflex
ENCODING 238
SWIDTH 720 0
DWIDTH 15 0
BBX 15 30 0 -6
BITMAP
0000
0000
0000
0000
0000
0000
0380
0380
07E0
1C70
1C70
0000
1F80
1F80
0380
0380
0380
0380
0380
0380
0380
0380
0380
3FFC
0000
0000
0000
0000
0000
0000
ENDCHAR
STARTCHAR idieresis
ENCODING 239
SWIDTH 720 0
DWIDTH 15 0
BBX 15 30 0 -6
BITMAP
0000
0000
0000
0000
0000
0000
0000
0000
1C70
1C70
1C70
0000
1F80
1F80
0380
0380
0380
0380
0380
0380
0380
0380
0380
3FFC
0000
0000
0000
0000
0000
0000
ENDCHAR
STARTCHAR eth
ENCODING 240
SWIDTH 720 0
DWIDTH 15 0
BBX 15 30 0 -6
BITMAP
0000
0000
0000
0000
0000
2080
3B80
3B80
1F00
1F00
1F00
3B80
20E0
20E0
07F0
1C7C
1C7C
381C
381C
381C
381C
1C70
1C70
07E0
0000
0000
0000
0000
0000
0000
ENDCHAR
STARTCHAR ntilde
ENCODING 241
SWIDTH 720 0
DWIDTH 15 0
BBX 15 30 0 -6
BITMAP
0000
0000
0000
0000
0000
0000
0710
0710
1FF0
18E0
18E0
0000
3BE0
3BE0
3C70
381C
381C
381C
381C
381C
381C
381C
381C
381C
0000
0000
0000
0000
0000
0000
ENDCHAR
STARTCHAR ograve
ENCODING 242
SWIDTH 720 0
DWIDTH 15 0
BBX 15 30 0 -6
BITMAP
0000
0000
0000
0000
0000
0000
1C00
1C00
0700
0380
0380
0000
07E0
07E0
1C70
381C
381C
381C
381C
381C
381C
1C70
1C70
07E0
0000
0000
0000
0000
0000
0000
ENDCHAR
STARTCHAR oacute
ENCODING 243
SWIDTH 720 0
DWIDTH 15 0
BBX 15 30 0 -6
BITMAP
0000
0000
0000
0000
0000
0000
0070
0070
00E0
0380
0380
0000
07E0
07E0
1C70
381C
381C
381C
381C
381C
381C
1C70
1C70
07E0
0000
0000
0000
0000
0000
0000
ENDCHAR
STARTCHAR ocircumflex
ENCODING 244
SWIDTH 720 0
DWIDTH 15 0
BBX 15 30 0 -6
BITMAP
0000
0000
0000
0000
0000
0000
0380
0380
07E0
1C70
1C70
0000
07E0
07E0
1C70
381C
381C
381C
381C
381C
381C
1C70
1C70
07E0
0000
0000
0000
0000
0000
0000
ENDCHAR
STARTCHAR otilde
ENCODING 245
SWIDTH 720 0
DWIDTH 15 0
BBX 15 30 0 -6
BITMAP
0000
0000
0000
0000
0000
0000
0710
0710
1FF0
18E0
18E0
0000
07E0
07E0
1C70
381C
381C
381C
381C
381C
381C
1C70
1C70
07E0
0000
0000
0000
0000
0000
0000
ENDCHAR
STARTCHAR odieresis
ENCODING 246
SWIDTH 720 0
DWIDTH 15 0
BBX 15 30 0 -6
BITMAP
0000
0000
0000
0000
0000
0000
0000
0000
1C70
1C70
1C70
0000
07E0
07E0
1C70
381C
381C
381C
381C
381C
381C
1C70
1C70
07E0
0000
0000
0000
0000
0000
0000
ENDCHAR
STARTCHAR divide
ENCODING 247
SWIDTH 720 0
DWIDTH 15 0
BBX 15 30 0 -6
BITMAP
0000
0000
0000
0000
0000
0000
0000
0000
0380
0380
0380
0000
0000
0000
3FFC
3FFC
3FFC
0000
0000
0000
0380
0380
0380
0000
0000
0000
0000
0000
0000
0000
ENDCHAR
STARTCHAR oslash
ENCODING 248
SWIDTH 720 0
DWIDTH 15 0
BBX 15 30 0 -6
BITMAP
0000
0000
0000
0000
0000
0000
0000
0000
0000
0000
0000
000C
07F0
07F0
1C70
389C
389C
389C
3B1C
3B1C
3B1C
1C70
1C70
1FE0
2000
2000
0000
0000
0000
0000
ENDCHAR
STARTCHAR ugrave
ENCODING 249
SWIDTH 720 0
DWIDTH 15 0
BBX 15 30 0 -6
BITMAP
0000
0000
0000
0000
0000
0000
0700
0700
0380
00E0
00E0
0000
381C
381C
381C
381C
381C
381C
381C
381C
381C
1C7C
1C7C
079C
0000
0000
0000
0000
0000
0000
ENDCHAR
STARTCHAR uacute
ENCODING 250
SWIDTH 720 0
DWIDTH 15 0
BBX 15 30 0 -6
BITMAP
0000
0000
0000
0000
0000
0000
0070
0070
00E0
0380
0380
0000
381C
381C
381C
381C
381C
381C
381C
381C
381C
1C7C
1C7C
079C
0000
0000
0000
0000
0000
0000
ENDCHAR
STARTCHAR ucircumflex
ENCODING 251
SWIDTH 720 0
DWIDTH 15 0
BBX 15 30 0 -6
BITMAP
0000
0000
0000
0000
0000
0000
0380
0380
07E0
1C70
1C70
0000
381C
381C
381C
381C
381C
381C
381C
381C
381C
1C7C
1C7C
079C
0000
0000
0000
0000
0000
0000
ENDCHAR
STARTCHAR udieresis
ENCODING 252
SWIDTH 720 0
DWIDTH 15 0
BBX 15 30 0 -6
BITMAP
0000
0000
0000
0000
0000
0000
0000
0000
1C70
1C70
1C70
0000
381C
381C
381C
381C
381C
381C
381C
381C
381C
1C7C
1C7C
079C
0000
0000
0000
0000
0000
0000
ENDCHAR
STARTCHAR yacute
ENCODING 253
SWIDTH 720 0
DWIDTH 15 0
BBX 15 30 0 -6
BITMAP
0000
0000
0000
0000
0000
0000
00E0
00E0
0380
0700
0700
0000
381C
381C
381C
381C
381C
381C
381C
381C
381C
1C7C
1C7C
079C
001C
001C
381C
1C70
1C70
07E0
ENDCHAR
STARTCHAR thorn
ENCODING 254
SWIDTH 720 0
DWIDTH 15 0
BBX 15 30 0 -6
BITMAP
0000
0000
0000
0000
0000
1C00
1C00
1C00
1C00
1C00
1C00
1C00
1C00
1C00
1FE0
1C70
1C70
1C1C
1C1C
1C1C
1C1C
1C70
1C70
1FE0
1C00
1C00
1C00
1C00
1C00
1C00
ENDCHAR
STARTCHAR ydieresis
ENCODING 255
SWIDTH 720 0
DWIDTH 15 0
BBX 15 30 0 -6
BITMAP
0000
0000
0000
0000
0000
0000
0000
0000
1C70
1C70
1C70
0000
381C
381C
381C
381C
381C
381C
381C
381C
381C
1C7C
1C7C
079C
001C
001C
381C
1C70
1C70
07E0
ENDCHAR
STARTCHAR Amacron
ENCODING 256
SWIDTH 720 0
DWIDTH 15 0
BBX 15 30 0 -6
BITMAP
0000
0000
3FFC
0000
0000
0380
07E0
07E0
1C70
1C70
1C70
381C
381C
381C
381C
3FFC
3FFC
381C
381C
381C
381C
381C
381C
381C
0000
0000
0000
0000
0000
0000
ENDCHAR
STARTCHAR amacron
ENCODING 257
SWIDTH 720 0
DWIDTH 15 0
BBX 15 30 0 -6
BITMAP
0000
0000
0000
0000
0000
0000
0000
0000
0000
3FFC
3FFC
0000
07F0
07F0
1C1C
001C
001C
1FFC
381C
381C
381C
381C
381C
1FEC
0000
0000
0000
0000
0000
0000
ENDCHAR
STARTCHAR Abreve
ENCODING 258
SWIDTH 720 0
DWIDTH 15 0
BBX 15 30 0 -6
BITMAP
0000
0000
1810
1C70
1C70
07E0
0000
0000
07E0
1C70
1C70
1C70
381C
381C
381C
381C
381C
3FFC
381C
381C
381C
381C
381C
381C
0000
0000
0000
0000
0000
0000
ENDCHAR
STARTCHAR abreve
ENCODING 259
SWIDTH 720 0
DWIDTH 15 0
BBX 15 30 0 -6
BITMAP
0000
0000
0000
0000
0000
0000
1810
1810
1C70
07E0
07E0
0000
07F0
07F0
1C1C
001C
001C
1FFC
381C
381C
381C
381C
381C
1FEC
0000
0000
0000
0000
0000
0000
ENDCHAR
STARTCHAR Aogonek
ENCODING 260
SWIDTH 720 0
DWIDTH 15 0
BBX 15 30 0 -6
BITMAP
0000
0000
0000
0000
0000
0380
07E0
07E0
1C70
1C70
1C70
381C
381C
381C
381C
3FFC
3FFC
381C
381C
381C
381C
381C
381C
381C
007C
007C
0070
001E
001E
0000
ENDCHAR
STARTCHAR aogonek
ENCODING 261
SWIDTH 720 0
DWIDTH 15 0
BBX 15 30 0 -6
BITMAP
0000
0000
0000
0000
0000
0000
0000
0000
0000
0000
0000
0000
07F0
07F0
1C1C
001C
001C
1FFC
381C
381C
381C
381C
381C
1FEC
000E
000E
001E
001C
001C
000E
ENDCHAR
STARTCHAR Cacute
ENCODING 262
SWIDTH 720 0
DWIDTH 15 0
BBX 15 30 0 -6
BITMAP
0000
0000
0070
00E0
00E0
0380
0000
0000
07E0
1C70
1C70
381C
3800
3800
3800
3800
3800
3800
3800
3800
381C
1C70
1C70
07E0
0000
0000
0000
0000
0000
0000
ENDCHAR
STARTCHAR cacute
ENCODING 263
SWIDTH 720 0
DWIDTH 15 0
BBX 15 30 0 -6
BITMAP
0000
0000
0000
0000
0000
0000
0070
0070
00E0
0380
0380
0000
07F0
07F0
1C1C
3800
3800
3800
3800
3800
3800
1C1C
1C1C
07F0
0000
0000
0000
0000
0000
0000
ENDCHAR
STARTCHAR Ccircumflex
ENCODING 264
SWIDTH 720 0
DWIDTH 15 0
BBX 15 30 0 -6
BITMAP
0000
0000
0380
07E0
07E0
1C70
0000
0000
07E0
1C70
1C70
381C
3800
3800
3800
3800
3800
3800
3800
3800
381C
1C70
1C70
07E0
0000
0000
0000
0000
0000
0000
ENDCHAR
STARTCHAR ccircumflex
ENCODING 265
SWIDTH 720 0
DWIDTH 15 0
BBX 15 30 0 -6
BITMAP
0000
0000
0000
0000
0000
0000
0380
0380
07E0
1C70
1C70
0000
07F0
07F0
1C1C
3800
3800
3800
3800
3800
3800
1C1C
1C1C
07F0
0000
0000
0000
0000
0000
0000
ENDCHAR
STARTCHAR Cdotaccent
ENCODING 266
SWIDTH 720 0
DWIDTH 15 0
BBX 15 30 0 -6
BITMAP
0000
0000
0380
0380
0380
0000
07E0
07E0
1C70
381C
381C
3800
3800
3800
3800
3800
3800
3800
3800
3800
381C
1C70
1C70
07E0
0000
0000
0000
0000
0000
0000
ENDCHAR
STARTCHAR cdotaccent
ENCODING 267
SWIDTH 720 0
DWIDTH 15 0
BBX 15 30 0 -6
BITMAP
0000
0000
0000
0000
0000
0000
0000
0000
0380
0380
0380
0000
07F0
07F0
1C1C
3800
3800
3800
3800
3800
3800
1C1C
1C1C
07F0
0000
0000
0000
0000
0000
0000
ENDCHAR
STARTCHAR Ccaron
ENCODING 268
SWIDTH 720 0
DWIDTH 15 0
BBX 15 30 0 -6
BITMAP
0000
0000
1C70
07E0
07E0
0380
0000
0000
07E0
1C70
1C70
381C
3800
3800
3800
3800
3800
3800
3800
3800
381C
1C70
1C70
07E0
0000
0000
0000
0000
0000
0000
ENDCHAR
STARTCHAR ccaron
ENCODING 269
SWIDTH 720 0
DWIDTH 15 0
BBX 15 30 0 -6
BITMAP
0000
0000
0000
0000
0000
0000
1C70
1C70
07E0
0380
0380
0000
07F0
07F0
1C1C
3800
3800
3800
3800
3800
3800
1C1C
1C1C
07F0
0000
0000
0000
0000
0000
0000
ENDCHAR
STARTCHAR Dcaron
ENCODING 270
SWIDTH 720 0
DWIDTH 15 0
BBX 15 30 0 -6
BITMAP
0000
0000
1C70
07E0
07E0
0380
0000
0000
3FE0
3870
3870
381C
381C
381C
381C
381C
381C
381C
381C
381C
381C
3870
3870
3FE0
0000
0000
0000
0000
0000
0000
ENDCHAR
STARTCHAR dcaron
ENCODING 271
SWIDTH 720 0
DWIDTH 15 0
BBX 15 30 0 -6
BITMAP
0000
0000
38E0
1F80
1F80
071C
001C
001C
001C
001C
001C
001C
079C
079C
1C7C
381C
381C
381C
381C
381C
381C
1C7C
1C7C
079C
0000
0000
0000
0000
0000
0000
ENDCHAR
STARTCHAR Dcroat
ENCODING 272
SWIDTH 720 0
DWIDTH 15 0
BBX 15 30 0 -6
BITMAP
0000
0000
0000
0000
0000
3FE0
3870
3870
381C
381C
381C
381C
381C
381C
FF1C
381C
381C
381C
381C
381C
381C
3870
3870
3FE0
0000
0000
0000
0000
0000
0000
ENDCHAR
STARTCHAR dcroat
ENCODING 273
SWIDTH 720 0
DWIDTH 15 0
BBX 15 30 0 -6
BITMAP
0000
0000
0000
0000
0000
001C
001C
001C
001C
00FE
00FE
001C
079C
079C
1C7C
381C
381C
381C
381C
381C
381C
1C7C
1C7C
079C
0000
0000
0000
0000
0000
0000
ENDCHAR
STARTCHAR Emacron
ENCODING 274
SWIDTH 720 0
DWIDTH 15 0
BBX 15 30 0 -6
BITMAP
0000
0000
3FFC
0000
0000
3FFC
3800
3800
3800
3800
3800
3800
3800
3800
3FE0
3800
3800
3800
3800
3800
3800
3800
3800
3FFC
0000
0000
0000
0000
0000
0000
ENDCHAR
STARTCHAR emacron
ENCODING 275
SWIDTH 720 0
DWIDTH 15 0
BBX 15 30 0 -6
BITMAP
0000
0000
0000
0000
0000
0000
0000
0000
0000
3FFC
3FFC
0000
07E0
07E0
1C70
381C
381C
3FFC
3800
3800
3800
1C1C
1C1C
07F0
0000
0000
0000
0000
0000
0000
ENDCHAR
STARTCHAR Ebreve
ENCODING 276
SWIDTH 720 0
DWIDTH 15 0
BBX 15 30 0 -6
BITMAP
0000
0000
1810
1C70
1C70
07E0
0000
0000
3FFC
3800
3800
3800
3800
3800
3800
3FE0
3FE0
3800
3800
3800
3800
3800
3800
3FFC
0000
0000
0000
0000
0000
0000
ENDCHAR
STARTCHAR ebreve
ENCODING 277
SWIDTH 720 0
DWIDTH 15 0
BBX 15 30 0 -6
BITMAP
0000
0000
0000
0000
0000
0000
1810
1810
1C70
07E0
07E0
0000
07E0
07E0
1C70
381C
381C
3FFC
3800
3800
3800
1C1C
1C1C
07F0
0000
0000
0000
0000
0000
0000
ENDCHAR
STARTCHAR Edotaccent
ENCODING 278
SWIDTH 720 0
DWIDTH 15 0
BBX 15 30 0 -6
BITMAP
0000
0000
0380
0380
0380
0000
3FFC
3FFC
3800
3800
3800
3800
3800
3800
3FE0
3800
3800
3800
3800
3800
3800
3800
3800
3FFC
0000
0000
0000
0000
0000
0000
ENDCHAR
STARTCHAR edotaccent
ENCODING 279
SWIDTH 720 0
DWIDTH 15 0
BBX 15 30 0 -6
BITMAP
0000
0000
0000
0000
0000
0000
0000
0000
0380
0380
0380
0000
07E0
07E0
1C70
381C
381C
3FFC
3800
3800
3800
1C1C
1C1C
07F0
0000
0000
0000
0000
0000
0000
ENDCHAR
STARTCHAR Eogonek
ENCODING 280
SWIDTH 720 0
DWIDTH 15 0
BBX 15 30 0 -6
BITMAP
0000
0000
0000
0000
0000
3FFC
3800
3800
3800
3800
3800
3800
3800
3800
3FE0
3800
3800
3800
3800
3800
3800
3800
3800
3FFC
0070
0070
00F0
00E0
00E0
007C
ENDCHAR
STARTCHAR eogonek
ENCODING 281
SWIDTH 720 0
DWIDTH 15 0
BBX 15 30 0 -6
BITMAP
0000
0000
0000
0000
0000
0000
0000
0000
0000
0000
0000
0000
07E0
07E0
1C70
381C
381C
3FFC
3800
3800
3800
1C1C
1C1C
07F0
00E0
00E0
03E0
0380
0380
00F0
ENDCHAR
STARTCHAR Ecaron
ENCODING 282
SWIDTH 720 0
DWIDTH 15 0
BBX 15 30 0 -6
BITMAP
0000
0000
1C70
07E0
07E0
0380
0000
0000
3FFC
3800
3800
3800
3800
3800
3800
3FE0
3FE0
3800
3800
3800
3800
3800
3800
3FFC
0000
0000
0000
0000
0000
0000
ENDCHAR
STARTCHAR ecaron
ENCODING 283
SWIDTH 720 0
DWIDTH 15 0
BBX 15 30 0 -6
BITMAP
0000
0000
0000
0000
0000
0000
1C70
1C70
07E0
0380
0380
0000
07E0
07E0
1C70
381C
381C
3FFC
3800
3800
3800
1C1C
1C1C
07F0
0000
0000
0000
0000
0000
0000
ENDCHAR
STARTCHAR Gcircumflex
ENCODING 284
SWIDTH 720 0
DWIDTH 15 0
BBX 15 30 0 -6
BITMAP
0000
0000
0380
07E0
07E0
1C70
0000
0000
07E0
1C70
1C70
381C
3800
3800
3800
38FC
38FC
381C
381C
381C
381C
1C7C
1C7C
07EC
0000
0000
0000
0000
0000
0000
ENDCHAR
STARTCHAR gcircumflex
ENCODING 285
SWIDTH 720 0
DWIDTH 15 0
BBX 15 30 0 -6
BITMAP
0000
0000
0000
0000
0000
0000
0380
0380
07E0
1C70
1C70
0000
1FEC
1FEC
387C
3870
3870
3870
3870
3870
1FE0
3800
3800
1FF0
381C
381C
381C
381C
381C
1FF0
ENDCHAR
STARTCHAR Gbreve
ENCODING 286
SWIDTH 720 0
DWIDTH 15 0
BBX 15 30 0 -6
BITMAP
0000
0000
1810
1C70
1C70
07E0
0000
0000
07E0
1C70
1C70
381C
3800
3800
3800
38FC
38FC
381C
381C
381C
381C
1C7C
1C7C
07EC
0000
0000
0000
0000
0000
0000
ENDCHAR
STARTCHAR gbreve
ENCODING 287
SWIDTH 720 0
DWIDTH 15 0
BBX 15 30 0 -6
BITMAP
0000
0000
0000
0000
0000
0000
1810
1810
1C70
07E0
07E0
0000
1FEC
1FEC
387C
3870
3870
3870
3870
3870
1FE0
3800
3800
1FF0
381C
381C
381C
381C
381C
1FF0
ENDCHAR
STARTCHAR Gdotaccent
ENCODING 288
SWIDTH 720 0
DWIDTH 15 0
BBX 15 30 0 -6
BITMAP
0000
0000
0380
0380
0380
0000
07E0
07E0
1C70
381C
381C
3800
3800
3800
38FC
381C
381C
381C
381C
381C
381C
1C7C
1C7C
07EC
0000
0000
0000
0000
0000
0000
ENDCHAR
STARTCHAR gdotaccent
ENCODING 289
SWIDTH 720 0
DWIDTH 15 0
BBX 15 30 0 -6
BITMAP
0000
0000
0000
0000
0000
0000
0000
0000
0380
0380
0380
0000
1FEC
1FEC
387C
3870
3870
3870
3870
3870
1FE0
3800
3800
1FF0
381C
381C
381C
381C
381C
1FF0
ENDCHAR
STARTCHAR Gcommaaccent
ENCODING 290
SWIDTH 720 0
DWIDTH 15 0
BBX 15 30 0 -6
BITMAP
0000
0000
0000
0000
0000
07E0
1C70
1C70
381C
3800
3800
3800
3800
3800
38FC
381C
381C
381C
381C
381C
381C
1C7C
1C7C
07EC
0380
0380
00E0
0780
0780
0000
ENDCHAR
STARTCHAR gcommaaccent
ENCODING 291
SWIDTH 720 0
DWIDTH 15 0
BBX 15 30 0 -6
BITMAP
0000
0000
0000
0000
0000
0300
0400
0400
0700
0700
0700
0000
1FEC
1FEC
387C
3870
3870
3870
3870
3870
1FE0
3800
3800
1FF0
381C
381C
381C
381C
381C
1FF0
ENDCHAR
STARTCHAR Hcircumflex
ENCODING 292
SWIDTH 720 0
DWIDTH 15 0
BBX 15 30 0 -6
BITMAP
0000
0000
0380
07E0
07E0
1C70
0000
0000
381C
381C
381C
381C
381C
381C
3FFC
381C
381C
381C
381C
381C
381C
381C
381C
381C
0000
0000
0000
0000
0000
0000
ENDCHAR
STARTCHAR hcircumflex
ENCODING 293
SWIDTH 720 0
DWIDTH 15 0
BBX 15 30 0 -6
BITMAP
0380
0380
07E0
1C70
1C70
0000
3800
3800
3800
3800
3800
3800
3BE0
3BE0
3C70
381C
381C
381C
381C
381C
381C
381C
381C
381C
0000
0000
0000
0000
0000
0000
ENDCHAR
STARTCHAR Hbar
ENCODING 294
SWIDTH 720 0
DWIDTH 15 0
BBX 15 30 0 -6
BITMAP
0000
0000
0000
0000
0000
381C
381C
381C
FFFE
381C
381C
381C
381C
381C
3FFC
381C
381C
381C
381C
381C
381C
381C
381C
381C
0000
0000
0000
0000
0000
0000
ENDCHAR
STARTCHAR hbar
ENCODING 295
SWIDTH 720 0
DWIDTH 15 0
BBX 15 30 0 -6
BITMAP
0000
0000
0000
0000
0000
3800
3800
3800
3800
FF00
FF00
3800
3BE0
3BE0
3C70
381C
381C
381C
381C
381C
381C
381C
381C
381C
0000
0000
0000
0000
0000
0000
ENDCHAR
STARTCHAR Itilde
ENCODING 296
SWIDTH 720 0
DWIDTH 15 0
BBX 15 30 0 -6
BITMAP
0000
0000
0710
1FF0
1FF0
18E0
0000
0000
3FFC
0380
0380
0380
0380
0380
0380
0380
0380
0380
0380
0380
0380
0380
0380
3FFC
0000
0000
0000
0000
0000
0000
ENDCHAR
STARTCHAR itilde
ENCODING 297
SWIDTH 720 0
DWIDTH 15 0
BBX 15 30 0 -6
BITMAP
0000
0000
0000
0000
0000
0000
0710
0710
1FF0
18E0
18E0
0000
1F80
1F80
0380
0380
0380
0380
0380
0380
0380
0380
0380
3FFC
0000
0000
0000
0000
0000
0000
ENDCHAR
STARTCHAR Imacron
ENCODING 298
SWIDTH 720 0
DWIDTH 15 0
BBX 15 30 0 -6
BITMAP
0000
0000
3FFC
0000
0000
3FFC
0380
0380
0380
0380
0380
0380
0380
0380
0380
0380
0380
0380
0380
0380
0380
0380
0380
3FFC
0000
0000
0000
0000
0000
0000
ENDCHAR
STARTCHAR imacron
ENCODING 299
SWIDTH 720 0
DWIDTH 15 0
BBX 15 30 0 -6
BITMAP
0000
0000
0000
0000
0000
0000
0000
0000
0000
3FF0
3FF0
0000
1F80
1F80
0380
0380
0380
0380
0380
0380
0380
0380
0380
3FFC
0000
0000
0000
0000
0000
0000
ENDCHAR
STARTCHAR Ibreve
ENCODING 300
SWIDTH 720 0
DWIDTH 15 0
BBX 15 30 0 -6
BITMAP
0000
0000
1810
1C70
1C70
07E0
0000
0000
3FFC
0380
0380
0380
0380
0380
0380
0380
0380
0380
0380
0380
0380
0380
0380
3FFC
0000
0000
0000
0000
0000
0000
ENDCHAR
STARTCHAR ibreve
ENCODING 301
SWIDTH 720 0
DWIDTH 15 0
BBX 15 30 0 -6
BITMAP
0000
0000
0000
0000
0000
0000
1810
1810
1C70
07E0
07E0
0000
1F80
1F80
0380
0380
0380
0380
0380
0380
0380
0380
0380
3FFC
0000
0000
0000
0000
0000
0000
ENDCHAR
STARTCHAR Iogonek
ENCODING 302
SWIDTH 720 0
DWIDTH 15 0
BBX 15 30 0 -6
BITMAP
0000
0000
0000
0000
0000
3FFC
0380
0380
0380
0380
0380
0380
0380
0380
0380
0380
0380
0380
0380
0380
0380
0380
0380
3FFC
0070
0070
00F0
00E0
00E0
007C
ENDCHAR
STARTCHAR iogonek
ENCODING 303
SWIDTH 720 0
DWIDTH 15 0
BBX 15 30 0 -6
BITMAP
0000
0000
0000
0000
0000
0000
0000
0000
0380
0380
0380
0000
1F80
1F80
0380
0380
0380
0380
0380
0380
0380
0380
0380
3FFC
001C
001C
007C
0070
0070
001C
ENDCHAR
STARTCHAR Idotaccent
ENCODING 304
SWIDTH 720 0
DWIDTH 15 0
BBX 15 30 0 -6
BITMAP
0000
0000
0380
0380
0380
0000
3FFC
3FFC
0380
0380
0380
0380
0380
0380
0380
0380
0380
0380
0380
0380
0380
0380
0380
3FFC
0000
0000
0000
0000
0000
0000
ENDCHAR
STARTCHAR dotlessi
ENCODING 305
SWIDTH 720 0
DWIDTH 15 0
BBX 15 30 0 -6
BITMAP
0000
0000
0000
0000
0000
0000
0000
0000
0000
0000
0000
0000
1F80
1F80
0380
0380
0380
0380
0380
0380
0380
0380
0380
3FFC
0000
0000
0000
0000
0000
0000
ENDCHAR
STARTCHAR IJ
ENCODING 306
SWIDTH 720 0
DWIDTH 15 0
BBX 15 30 0 -6
BITMAP
0000
0000
0000
0000
0000
FFFC
1C1C
1C1C
1C1C
1C1C
1C1C
1C1C
1C1C
1C1C
1C1C
1C1C
1C1C
1C1C
1C1C
1C1C
1C1C
1C1C
1C1C
FF9C
001C
001C
1C1C
07F0
07F0
0000
ENDCHAR
STARTCHAR ij
ENCODING 307
SWIDTH 720 0
DWIDTH 15 0
BBX 15 30 0 -6
BITMAP
0000
0000
0000
0000
0000
0000
0000
0000
1C1C
1C1C
1C1C
0000
FCFC
FCFC
1C1C
1C1C
1C1C
1C1C
1C1C
1C1C
1C1C
1C1C
1C1C
FF9C
001C
001C
1C1C
1C1C
1C1C
07F0
ENDCHAR
STARTCHAR Jcircumflex
ENCODING 308
SWIDTH 720 0
DWIDTH 15 0
BBX 15 30 0 -6
BITMAP
0000
0000
00E0
03F0
03F0
071C
0000
0000
07F0
0070
0070
0070
0070
0070
0070
0070
0070
0070
E070
E070
E070
38E0
38E0
1F80
0000
0000
0000
0000
0000
0000
ENDCHAR
STARTCHAR jcircumflex
ENCODING 309
SWIDTH 720 0
DWIDTH 15 0
BBX 15 30 0 -6
BITMAP
0000
0000
0000
0000
0000
0000
00E0
00E0
03F0
071C
071C
0000
03F0
03F0
0070
0070
0070
0070
0070
0070
0070
0070
0070
0070
3870
3870
3870
3870
3870
1FE0
ENDCHAR
STARTCHAR Kcommaaccent
ENCODING 310
SWIDTH 720 0
DWIDTH 15 0
BBX 15 30 0 -6
BITMAP
0000
0000
0000
0000
0000
381C
381C
381C
3870
3870
3870
38E0
38E0
38E0
3F80
38E0
38E0
38E0
3870
3870
3870
381C
381C
381C
3C00
3C00
0700
0700
0700
3C00
ENDCHAR
STARTCHAR kcommaaccent
ENCODING 311
SWIDTH 720 0
DWIDTH 15 0
BBX 15 30 0 -6
BITMAP
0000
0000
0000
0000
0000
3800
3800
3800
3800
3800
3800
3800
3870
3870
38E0
3B80
3B80
3F00
3F80
3F80
38E0
3870
3870
381C
3C00
3C00
0700
0700
0700
3C00
ENDCHAR
STARTCHAR kgreenlandic
ENCODING 312
SWIDTH 720 0
DWIDTH 15 0
BBX 15 30 0 -6
BITMAP
0000
0000
0000
0000
0000
0000
0000
0000
0000
0000
0000
0000
38E0
38E0
3B80
3F00
3F00
3C00
3F00
3F00
3B80
38E0
38E0
3870
0000
0000
0000
0000
0000
0000
ENDCHAR
STARTCHAR Lacute
ENCODING 313
SWIDTH 720 0
DWIDTH 15 0
BBX 15 30 0 -6
BITMAP
0000
0000
0700
1C00
1C00
3800
0000
0000
3800
3800
3800
3800
3800
3800
3800
3800
3800
3800
3800
3800
3800
3800
3800
3FFC
0000
0000
0000
0000
0000
0000
ENDCHAR
STARTCHAR lacute
ENCODING 314
SWIDTH 720 0
DWIDTH 15 0
BBX 15 30 0 -6
BITMAP
0000
0000
00E0
0380
0380
0700
0000
0000
1F80
0380
0380
0380
0380
0380
0380
0380
0380
0380
0380
0380
0380
0380
0380
3FFC
0000
0000
0000
0000
0000
0000
ENDCHAR
STARTCHAR Lcommaaccent
ENCODING 315
SWIDTH 720 0
DWIDTH 15 0
BBX 15 30 0 -6
BITMAP
0000
0000
0000
0000
0000
3800
3800
3800
3800
3800
3800
3800
3800
3800
3800
3800
3800
3800
3800
3800
3800
3800
3800
3FFC
1C00
1C00
0700
0700
0700
3C00
ENDCHAR
STARTCHAR lcommaaccent
ENCODING 316
SWIDTH 720 0
DWIDTH 15 0
BBX 15 30 0 -6
BITMAP
0000
0000
0000
0000
0000
1F80
0380
0380
0380
0380
0380
0380
0380
0380
0380
0380
0380
0380
0380
0380
0380
0380
0380
3FFC
0380
0380
00E0
00E0
00E0
0780
ENDCHAR
STARTCHAR Lcaron
ENCODING 317
SWIDTH 720 0
DWIDTH 15 0
BBX 15 30 0 -6
BITMAP
0000
0000
E380
3F00
3F00
1C00
0000
0000
3800
3800
3800
3800
3800
3800
3800
3800
3800
3800
3800
3800
3800
3800
3800
3FFC
0000
0000
0000
0000
0000
0000
ENDCHAR
STARTCHAR lcaron
ENCODING 318
SWIDTH 720 0
DWIDTH 15 0
BBX 15 30 0 -6
BITMAP
0000
0000
1C70
07E0
07E0
0380
0000
0000
1F80
0380
0380
0380
0380
0380
0380
0380
0380
0380
0380
0380
0380
0380
0380
3FFC
0000
0000
0000
0000
0000
0000
ENDCHAR
STARTCHAR Ldot
ENCODING 319
SWIDTH 720 0
DWIDTH 15 0
BBX 15 30 0 -6
BITMAP
0000
0000
0000
0000
0000
3800
3800
3800
3800
3800
3800
3800
38E0
38E0
38E0
3800
3800
3800
3800
3800
3800
3800
3800
3FFC
0000
0000
0000
0000
0000
0000
ENDCHAR
STARTCHAR ldot
ENCODING 320
SWIDTH 720 0
DWIDTH 15 0
BBX 15 30 0 -6
BITMAP
0000
0000
0000
0000
0000
3F00
0700
0700
0700
0700
0700
0700
0700
0700
071C
071C
071C
0700
0700
0700
0700
0700
0700
FFF0
0000
0000
0000
0000
0000
0000
ENDCHAR
STARTCHAR Lslash
ENCODING 321
SWIDTH 720 0
DWIDTH 15 0
BBX 15 30 0 -6
BITMAP
0000
0000
0000
0000
0000
3800
3800
3800
3800
3800
3800
3800
3B80
3B80
3C00
F800
F800
3800
3800
3800
3800
3800
3800
3FFC
0000
0000
0000
0000
0000
0000
ENDCHAR
STARTCHAR lslash
ENCODING 322
SWIDTH 720 0
DWIDTH 15 0
BBX 15 30 0 -6
BITMAP
0000
0000
0000
0000
0000
1F80
0380
0380
0380
0380
0380
0380
0380
0380
03F0
1F80
1F80
0380
0380
0380
0380
0380
0380
3FFC
0000
0000
0000
0000
0000
0000
ENDCHAR
STARTCHAR Nacute
ENCODING 323
SWIDTH 720 0
DWIDTH 15 0
BBX 15 30 0 -6
BITMAP
0000
0000
0070
00E0
00E0
0380
381C
381C
3C1C
3C1C
3C1C
3F1C
3F1C
3F1C
3B9C
3B9C
3B9C
38FC
38FC
38FC
387C
387C
387C
381C
0000
0000
0000
0000
0000
0000
ENDCHAR
STARTCHAR nacute
ENCODING 324
SWIDTH 720 0
DWIDTH 15 0
BBX 15 30 0 -6
BITMAP
0000
0000
0000
0000
0000
0000
0070
0070
00E0
0380
0380
0000
3BE0
3BE0
3C70
381C
381C
381C
381C
381C
381C
381C
381C
381C
0000
0000
0000
0000
0000
0000
ENDCHAR
STARTCHAR Ncommaaccent
ENCODING 325
SWIDTH 720 0
DWIDTH 15 0
BBX 15 30 0 -6
BITMAP
0000
0000
0000
0000
0000
381C
3C1C
3C1C
3C1C
3F1C
3F1C
3F1C
3B9C
3B9C
3B9C
38FC
38FC
38FC
387C
387C
387C
381C
381C
381C
3C00
3C00
0700
0700
0700
3C00
ENDCHAR
STARTCHAR ncommaaccent
ENCODING 326
SWIDTH 720 0
DWIDTH 15 0
BBX 15 30 0 -6
BITMAP
0000
0000
0000
0000
0000
0000
0000
0000
0000
0000
0000
0000
3BE0
3BE0
3C70
381C
381C
381C
381C
381C
381C
381C
381C
381C
3C00
3C00
0700
0700
0700
3C00
ENDCHAR
STARTCHAR Ncaron
ENCODING 327
SWIDTH 720 0
DWIDTH 15 0
BBX 15 30 0 -6
BITMAP
0000
0000
1C70
07E0
07E0
0380
381C
381C
3C1C
3C1C
3C1C
3F1C
3F1C
3F1C
3B9C
3B9C
3B9C
38FC
38FC
38FC
387C
387C
387C
381C
0000
0000
0000
0000
0000
0000
ENDCHAR
STARTCHAR ncaron
ENCODING 328
SWIDTH 720 0
DWIDTH 15 0
BBX 15 30 0 -6
BITMAP
0000
0000
0000
0000
0000
0000
1C70
1C70
07E0
0380
0380
0000
3BE0
3BE0
3C70
381C
381C
381C
381C
381C
381C
381C
381C
381C
0000
0000
0000
0000
0000
0000
ENDCHAR
STARTCHAR napostrophe
ENCODING 329
SWIDTH 720 0
DWIDTH 15 0
BBX 15 30 0 -6
BITMAP
0000
0000
0000
0000
0000
E000
E000
E000
2000
C000
C000
0000
3BE0
3BE0
3C70
381C
381C
381C
381C
381C
381C
381C
381C
381C
0000
0000
0000
0000
0000
0000
ENDCHAR
STARTCHAR Eng
ENCODING 330
SWIDTH 720 0
DWIDTH 15 0
BBX 15 30 0 -6
BITMAP
0000
0000
0000
0000
0000
381C
3C1C
3C1C
3C1C
3F1C
3F1C
3F1C
3B9C
3B9C
3B9C
38FC
38FC
38FC
387C
387C
387C
381C
381C
381C
001C
001C
001C
001C
001C
0070
ENDCHAR
STARTCHAR eng
ENCODING 331
SWIDTH 720 0
DWIDTH 15 0
BBX 15 30 0 -6
BITMAP
0000
0000
0000
0000
0000
0000
0000
0000
0000
0000
0000
0000
3BE0
3BE0
3C70
381C
381C
381C
381C
381C
381C
381C
381C
381C
001C
001C
001C
001C
001C
0070
ENDCHAR
STARTCHAR Omacron
ENCODING 332
SWIDTH 720 0
DWIDTH 15 0
BBX 15 30 0 -6
BITMAP
0000
0000
3FFC
0000
0000
07E0
1C70
1C70
381C
381C
381C
381C
381C
381C
381C
381C
381C
381C
381C
381C
381C
1C70
1C70
07E0
0000
0000
0000
0000
0000
0000
ENDCHAR
STARTCHAR omacron
ENCODING 333
SWIDTH 720 0
DWIDTH 15 0
BBX 15 30 0 -6
BITMAP
0000
0000
0000
0000
0000
0000
0000
0000
0000
3FFC
3FFC
0000
07E0
07E0
1C70
381C
381C
381C
381C
381C
381C
1C70
1C70
07E0
0000
0000
0000
0000
0000
0000
ENDCHAR
STARTCHAR Obreve
ENCODING 334
SWIDTH 720 0
DWIDTH 15 0
BBX 15 30 0 -6
BITMAP
0000
0000
1810
1C70
1C70
07E0
0000
0000
07E0
1C70
1C70
381C
381C
381C
381C
381C
381C
381C
381C
381C
381C
1C70
1C70
07E0
0000
0000
0000
0000
0000
0000
ENDCHAR
STARTCHAR obreve
ENCODING 335
SWIDTH 720 0
DWIDTH 15 0
BBX 15 30 0 -6
BITMAP
0000
0000
0000
0000
0000
0000
1810
1810
1C70
07E0
07E0
0000
07E0
07E0
1C70
381C
381C
381C
381C
381C
381C
1C70
1C70
07E0
0000
0000
0000
0000
0000
0000
ENDCHAR
STARTCHAR Ohungarumlaut
ENCODING 336
SWIDTH 720 0
DWIDTH 15 0
BBX 15 30 0 -6
BITMAP
0000
0000
071C
1C70
1C70
0000
07E0
07E0
1C70
381C
381C
381C
381C
381C
381C
381C
381C
381C
381C
381C
381C
1C70
1C70
07E0
0000
0000
0000
0000
0000
0000
ENDCHAR
STARTCHAR ohungarumlaut
ENCODING 337
SWIDTH 720 0
DWIDTH 15 0
BBX 15 30 0 -6
BITMAP
0000
0000
0000
0000
0000
0000
0000
0000
071C
1C70
1C70
0000
07E0
07E0
1C70
381C
381C
381C
381C
381C
381C
1C70
1C70
07E0
0000
0000
0000
0000
0000
0000
ENDCHAR
STARTCHAR OE
ENCODING 338
SWIDTH 720 0
DWIDTH 15 0
BBX 15 30 0 -6
BITMAP
0000
0000
0000
0000
0000
07FC
1CE0
1CE0
38E0
38E0
38E0
38E0
38E0
38E0
38FC
38E0
38E0
38E0
38E0
38E0
38E0
1CE0
1CE0
07FC
0000
0000
0000
0000
0000
0000
ENDCHAR
STARTCHAR oe
ENCODING 339
SWIDTH 720 0
DWIDTH 15 0
BBX 15 30 0 -6
BITMAP
0000
0000
0000
0000
0000
0000
0000
0000
0000
0000
0000
0000
1FF0
1FF0
3B9C
3B9C
3B9C
3BFC
3B80
3B80
3B80
3B9C
3B9C
1FF0
0000
0000
0000
0000
0000
0000
ENDCHAR
STARTCHAR Racute
ENCODING 340
SWIDTH 720 0
DWIDTH 15 0
BBX 15 30 0 -6
BITMAP
0000
0000
00E0
0380
0380
0700
0000
0000
3FE0
3870
3870
381C
381C
381C
3870
3FE0
3FE0
38E0
3870
3870
3870
381C
381C
381C
0000
0000
0000
0000
0000
0000
ENDCHAR
STARTCHAR racute
ENCODING 341
SWIDTH 720 0
DWIDTH 15 0
BBX 15 30 0 -6
BITMAP
0000
0000
0000
0000
0000
0000
0070
0070
00E0
0380
0380
0000
3BF0
3BF0
1F1C
1C00
1C00
1C00
1C00
1C00
1C00
1C00
1C00
1C00
0000
0000
0000
0000
0000
0000
ENDCHAR
STARTCHAR Rcommaaccent
ENCODING 342
SWIDTH 720 0
DWIDTH 15 0
BBX 15 30 0 -6
BITMAP
0000
0000
0000
0000
0000
3FE0
3870
3870
381C
381C
381C
381C
381C
381C
3870
3FE0
3FE0
38E0
3870
3870
3870
381C
381C
381C
3C00
3C00
0700
0700
0700
3C00
ENDCHAR
STARTCHAR rcommaaccent
ENCODING 343
SWIDTH 720 0
DWIDTH 15 0
BBX 15 30 0 -6
BITMAP
0000
0000
0000
0000
0000
0000
0000
0000
0000
0000
0000
0000
3BF0
3BF0
1F1C
1C00
1C00
1C00
1C00
1C00
1C00
1C00
1C00
1C00
1F00
1F00
0380
0380
0380
1F00
ENDCHAR
STARTCHAR Rcaron
ENCODING 344
SWIDTH 720 0
DWIDTH 15 0
BBX 15 30 0 -6
BITMAP
0000
0000
1C70
07E0
07E0
0380
0000
0000
3FE0
3870
3870
381C
381C
381C
3870
3FE0
3FE0
38E0
3870
3870
3870
381C
381C
381C
0000
0000
0000
0000
0000
0000
ENDCHAR
STARTCHAR rcaron
ENCODING 345
SWIDTH 720 0
DWIDTH 15 0
BBX 15 30 0 -6
BITMAP
0000
0000
0000
0000
0000
0000
1C70
1C70
07E0
0380
0380
0000
3BF0
3BF0
1F1C
1C00
1C00
1C00
1C00
1C00
1C00
1C00
1C00
1C00
0000
0000
0000
0000
0000
0000
ENDCHAR
STARTCHAR Sacute
ENCODING 346
SWIDTH 720 0
DWIDTH 15 0
BBX 15 30 0 -6
BITMAP
0000
0000
0070
00E0
00E0
0380
0000
0000
07E0
1C70
1C70
381C
3800
3800
1C00
07E0
07E0
0070
001C
001C
381C
1C70
1C70
07E0
0000
0000
0000
0000
0000
0000
ENDCHAR
STARTCHAR sacute
ENCODING 347
SWIDTH 720 0
DWIDTH 15 0
BBX 15 30 0 -6
BITMAP
0000
0000
0000
0000
0000
0000
0070
0070
00E0
0380
0380
0000
1FF0
1FF0
381C
3800
3800
1FF0
001C
001C
001C
381C
381C
1FF0
0000
0000
0000
0000
0000
0000
ENDCHAR
STARTCHAR Scircumflex
ENCODING 348
SWIDTH 720 0
DWIDTH 15 0
BBX 15 30 0 -6
BITMAP
0000
0000
0380
07E0
07E0
1C70
0000
0000
07E0
1C70
1C70
381C
3800
3800
1C00
07E0
07E0
0070
001C
001C
381C
1C70
1C70
07E0
0000
0000
0000
0000
0000
0000
ENDCHAR
STARTCHAR scircumflex
ENCODING 349
SWIDTH 720 0
DWIDTH 15 0
BBX 15 30 0 -6
BITMAP
0000
0000
0000
0000
0000
0000
0380
0380
07E0
1C70
1C70
0000
1FF0
1FF0
381C
3800
3800
1FF0
001C
001C
001C
381C
381C
1FF0
0000
0000
0000
0000
0000
0000
ENDCHAR
STARTCHAR Scedilla
ENCODING 350
SWIDTH 720 0
DWIDTH 15 0
BBX 15 30 0 -6
BITMAP
0000
0000
0000
0000
0000
07E0
1C70
1C70
381C
3800
3800
3800
1C00
1C00
07E0
0070
0070
001C
001C
001C
381C
1C70
1C70
07E0
0380
0380
00E0
00E0
00E0
0780
ENDCHAR
STARTCHAR scedilla
ENCODING 351
SWIDTH 720 0
DWIDTH 15 0
BBX 15 30 0 -6
BITMAP
0000
0000
0000
0000
0000
0000
0000
0000
0000
0000
0000
0000
1FF0
1FF0
381C
3800
3800
1FF0
001C
001C
001C
381C
381C
1FF0
0380
0380
00E0
00E0
00E0
0780
ENDCHAR
STARTCHAR Scaron
ENCODING 352
SWIDTH 720 0
DWIDTH 15 0
BBX 15 30 0 -6
BITMAP
0000
0000
1C70
07E0
07E0
0380
0000
0000
07E0
1C70
1C70
381C
3800
3800
1C00
07E0
07E0
0070
001C
001C
381C
1C70
1C70
07E0
0000
0000
0000
0000
0000
0000
ENDCHAR
STARTCHAR scaron
ENCODING 353
SWIDTH 720 0
DWIDTH 15 0
BBX 15 30 0 -6
BITMAP
0000
0000
0000
0000
0000
0000
1C70
1C70
07E0
0380
0380
0000
1FF0
1FF0
381C
3800
3800
1FF0
001C
001C
001C
381C
381C
1FF0
0000
0000
0000
0000
0000
0000
ENDCHAR
STARTCHAR Tcommaaccent
ENCODING 354
SWIDTH 720 0
DWIDTH 15 0
BBX 15 30 0 -6
BITMAP
0000
0000
0000
0000
0000
3FFC
0380
0380
0380
0380
0380
0380
0380
0380
0380
0380
0380
0380
0380
0380
0380
0380
0380
0380
0380
0380
00E0
00E0
00E0
0780
ENDCHAR
STARTCHAR tcommaaccent
ENCODING 355
SWIDTH 720 0
DWIDTH 15 0
BBX 15 30 0 -6
BITMAP
0000
0000
0000
0000
0000
0000
0000
0000
0700
0700
0700
0700
3FE0
3FE0
0700
0700
0700
0700
0700
0700
0700
071C
071C
03F0
00E0
00E0
0070
0070
0070
03E0
ENDCHAR
STARTCHAR Tcaron
ENCODING 356
SWIDTH 720 0
DWIDTH 15 0
BBX 15 30 0 -6
BITMAP
0000
0000
1C70
07E0
07E0
0380
0000
0000
3FFC
0380
0380
0380
0380
0380
0380
0380
0380
0380
0380
0380
0380
0380
0380
0380
0000
0000
0000
0000
0000
0000
ENDCHAR
STARTCHAR tcaron
ENCODING 357
SWIDTH 720 0
DWIDTH 15 0
BBX 15 30 0 -6
BITMAP
0000
0000
38E0
1F80
1F80
0700
0000
0000
0700
0700
0700
0700
3FE0
3FE0
0700
0700
0700
0700
0700
0700
0700
071C
071C
03F0
0000
0000
0000
0000
0000
0000
ENDCHAR
STARTCHAR Tbar
ENCODING 358
SWIDTH 720 0
DWIDTH 15 0
BBX 15 30 0 -6
BITMAP
0000
0000
0000
0000
0000
3FFC
0380
0380
0380
0380
0380
0380
1FF0
1FF0
0380
0380
0380
0380
0380
0380
0380
0380
0380
0380
0000
0000
0000
0000
0000
0000
ENDCHAR
STARTCHAR tbar
ENCODING 359
SWIDTH 720 0
DWIDTH 15 0
BBX 15 30 0 -6
BITMAP
0000
0000
0000
0000
0000
0000
0000
0000
0700
0700
0700
0700
3FE0
3FE0
0700
1F80
1F80
0700
0700
0700
0700
071C
071C
03F0
0000
0000
0000
0000
0000
0000
ENDCHAR
STARTCHAR Utilde
ENCODING 360
SWIDTH 720 0
DWIDTH 15 0
BBX 15 30 0 -6
BITMAP
0000
0000
0710
1FF0
1FF0
18E0
0000
0000
381C
381C
381C
381C
381C
381C
381C
381C
381C
381C
381C
381C
381C
1C70
1C70
07E0
0000
0000
0000
0000
0000
0000
ENDCHAR
STARTCHAR utilde
ENCODING 361
SWIDTH 720 0
DWIDTH 15 0
BBX 15 30 0 -6
BITMAP
0000
0000
0000
0000
0000
0000
0710
0710
1FF0
18E0
18E0
0000
381C
381C
381C
381C
381C
381C
381C
381C
381C
1C7C
1C7C
079C
0000
0000
0000
0000
0000
0000
ENDCHAR
STARTCHAR Umacron
ENCODING 362
SWIDTH 720 0
DWIDTH 15 0
BBX 15 30 0 -6
BITMAP
0000
0000
3FFC
0000
0000
381C
381C
381C
381C
381C
381C
381C
381C
381C
381C
381C
381C
381C
381C
381C
381C
1C70
1C70
07E0
0000
0000
0000
0000
0000
0000
ENDCHAR
STARTCHAR umacron
ENCODING 363
SWIDTH 720 0
DWIDTH 15 0
BBX 15 30 0 -6
BITMAP
0000
0000
0000
0000
0000
0000
0000
0000
0000
3FFC
3FFC
0000
381C
381C
381C
381C
381C
381C
381C
381C
381C
1C7C
1C7C
079C
0000
0000
0000
0000
0000
0000
ENDCHAR
STARTCHAR Ubreve
ENCODING 364
SWIDTH 720 0
DWIDTH 15 0
BBX 15 30 0 -6
BITMAP
0000
0000
1810
1C70
1C70
07E0
0000
0000
381C
381C
381C
381C
381C
381C
381C
381C
381C
381C
381C
381C
381C
1C70
1C70
07E0
0000
0000
0000
0000
0000
0000
ENDCHAR
STARTCHAR ubreve
ENCODING 365
SWIDTH 720 0
DWIDTH 15 0
BBX 15 30 0 -6
BITMAP
0000
0000
0000
0000
0000
0000
1810
1810
1C70
07E0
07E0
0000
381C
381C
381C
381C
381C
381C
381C
381C
381C
1C7C
1C7C
079C
0000
0000
0000
0000
0000
0000
ENDCHAR
STARTCHAR Uring
ENCODING 366
SWIDTH 720 0
DWIDTH 15 0
BBX 15 30 0 -6
BITMAP
0380
0380
0460
0460
0460
0380
0000
0000
381C
381C
381C
381C
381C
381C
381C
381C
381C
381C
381C
381C
381C
1C70
1C70
07E0
0000
0000
0000
0000
0000
0000
ENDCHAR
STARTCHAR uring
ENCODING 367
SWIDTH 720 0
DWIDTH 15 0
BBX 15 30 0 -6
BITMAP
0000
0000
0000
0000
0000
0380
0460
0460
0460
0380
0380
0000
381C
381C
381C
381C
381C
381C
381C
381C
381C
1C7C
1C7C
079C
0000
0000
0000
0000
0000
0000
ENDCHAR
STARTCHAR Uhungarumlaut
ENCODING 368
SWIDTH 720 0
DWIDTH 15 0
BBX 15 30 0 -6
BITMAP
0000
0000
071C
1C70
1C70
0000
381C
381C
381C
381C
381C
381C
381C
381C
381C
381C
381C
381C
381C
381C
381C
1C70
1C70
07E0
0000
0000
0000
0000
0000
0000
ENDCHAR
STARTCHAR uhungarumlaut
ENCODING 369
SWIDTH 720 0
DWIDTH 15 0
BBX 15 30 0 -6
BITMAP
0000
0000
0000
0000
0000
0000
0000
0000
071C
1C70
1C70
0000
381C
381C
381C
381C
381C
381C
381C
381C
381C
1C7C
1C7C
079C
0000
0000
0000
0000
0000
0000
ENDCHAR
STARTCHAR Uogonek
ENCODING 370
SWIDTH 720 0
DWIDTH 15 0
BBX 15 30 0 -6
BITMAP
0000
0000
0000
0000
0000
381C
381C
381C
381C
381C
381C
381C
381C
381C
381C
381C
381C
381C
381C
381C
381C
1C70
1C70
07E0
00E0
00E0
03E0
0380
0380
00F0
ENDCHAR
STARTCHAR uogonek
ENCODING 371
SWIDTH 720 0
DWIDTH 15 0
BBX 15 30 0 -6
BITMAP
0000
0000
0000
0000
0000
0000
0000
0000
0000
0000
0000
0000
381C
381C
381C
381C
381C
381C
381C
381C
381C
1C7C
1C7C
079C
007C
007C
00E0
00E0
00E0
007C
ENDCHAR
STARTCHAR Wcircumflex
ENCODING 372
SWIDTH 720 0
DWIDTH 15 0
BBX 15 30 0 -6
BITMAP
0380
0380
07E0
1C70
1C70
0000
381C
381C
381C
381C
381C
381C
3B9C
3B9C
3B9C
3B9C
3B9C
3B9C
3C7C
3C7C
3C7C
381C
381C
381C
0000
0000
0000
0000
0000
0000
ENDCHAR
STARTCHAR wcircumflex
ENCODING 373
SWIDTH 720 0
DWIDTH 15 0
BBX 15 30 0 -6
BITMAP
0000
0000
0000
0000
0000
0000
0380
0380
07E0
1C70
1C70
0000
381C
381C
381C
381C
381C
3B9C
3B9C
3B9C
3B9C
3FFC
3FFC
1C70
0000
0000
0000
0000
0000
0000
ENDCHAR
STARTCHAR Ycircumflex
ENCODING 374
SWIDTH 720 0
DWIDTH 15 0
BBX 15 30 0 -6
BITMAP
0380
0380
07E0
1C70
1C70
0000
381C
381C
1C70
1C70
1C70
07E0
07E0
07E0
0380
0380
0380
0380
0380
0380
0380
0380
0380
0380
0000
0000
0000
0000
0000
0000
ENDCHAR
STARTCHAR ycircumflex
ENCODING 375
SWIDTH 720 0
DWIDTH 15 0
BBX 15 30 0 -6
BITMAP
0000
0000
0000
0000
0000
0000
0380
0380
07E0
1C70
1C70
0000
381C
381C
381C
381C
381C
381C
381C
381C
381C
1C7C
1C7C
079C
001C
001C
381C
1C70
1C70
07E0
ENDCHAR
STARTCHAR Ydieresis
ENCODING 376
SWIDTH 720 0
DWIDTH 15 0
BBX 15 30 0 -6
BITMAP
0000
0000
1C70
1C70
1C70
0000
381C
381C
381C
1C70
1C70
1C70
07E0
07E0
07E0
0380
0380
0380
0380
0380
0380
0380
0380
0380
0000
0000
0000
0000
0000
0000
ENDCHAR
STARTCHAR Zacute
ENCODING 377
SWIDTH 720 0
DWIDTH 15 0
BBX 15 30 0 -6
BITMAP
0070
0070
00E0
0380
0380
0000
3FFC
3FFC
001C
0070
0070
00E0
00E0
00E0
0380
0700
0700
0700
1C00
1C00
3800
3800
3800
3FFC
0000
0000
0000
0000
0000
0000
ENDCHAR
STARTCHAR zacute
ENCODING 378
SWIDTH 720 0
DWIDTH 15 0
BBX 15 30 0 -6
BITMAP
0000
0000
0000
0000
0000
0000
0070
0070
00E0
0380
0380
0000
1FFC
1FFC
001C
0070
0070
00E0
0380
0380
0700
1C00
1C00
1FFC
0000
0000
0000
0000
0000
0000
ENDCHAR
STARTCHAR Zdotaccent
ENCODING 379
SWIDTH 720 0
DWIDTH 15 0
BBX 15 30 0 -6
BITMAP
0000
0000
0380
0380
0380
0000
3FFC
3FFC
001C
0070
0070
00E0
00E0
00E0
0380
0700
0700
0700
1C00
1C00
3800
3800
3800
3FFC
0000
0000
0000
0000
0000
0000
ENDCHAR
STARTCHAR zdotaccent
ENCODING 380
SWIDTH 720 0
DWIDTH 15 0
BBX 15 30 0 -6
BITMAP
0000
0000
0000
0000
0000
0000
0000
0000
00E0
00E0
00E0
0000
1FFC
1FFC
001C
0070
0070
00E0
0380
0380
0700
1C00
1C00
1FFC
0000
0000
0000
0000
0000
0000
ENDCHAR
STARTCHAR Zcaron
ENCODING 381
SWIDTH 720 0
DWIDTH 15 0
BBX 15 30 0 -6
BITMAP
0000
0000
1C70
07E0
07E0
0380
0000
0000
3FFC
001C
001C
0070
00E0
00E0
00E0
0380
0380
0700
0700
0700
1C00
3800
3800
3FFC
0000
0000
0000
0000
0000
0000
ENDCHAR
STARTCHAR zcaron
ENCODING 382
SWIDTH 720 0
DWIDTH 15 0
BBX 15 30 0 -6
BITMAP
0000
0000
0000
0000
0000
0000
1C70
1C70
07E0
0380
0380
0000
1FFC
1FFC
001C
0070
0070
00E0
0380
0380
0700
1C00
1C00
1FFC
0000
0000
0000
0000
0000
0000
ENDCHAR
STARTCHAR longs
ENCODING 383
SWIDTH 720 0
DWIDTH 15 0
BBX 15 30 0 -6
BITMAP
0000
0000
0000
0000
0000
03F0
071C
071C
0700
0700
0700
0700
3F00
3F00
0700
0700
0700
0700
0700
0700
0700
0700
0700
0700
0000
0000
0000
0000
0000
0000
ENDCHAR
STARTCHAR uni0180
ENCODING 384
SWIDTH 720 0
DWIDTH 15 0
BBX 15 30 0 -6
BITMAP
0000
0000
0000
0000
0000
3800
3800
3800
FF00
3800
3800
3800
3BE0
3BE0
3C70
381C
381C
381C
381C
381C
381C
3C70
3C70
3BE0
0000
0000
0000
0000
0000
0000
ENDCHAR
STARTCHAR uni0181
ENCODING 385
SWIDTH 720 0
DWIDTH 15 0
BBX 15 30 0 -6
BITMAP
0000
0000
0000
0000
0000
3F80
DCE0
DCE0
DC70
1C70
1C70
1C70
1CE0
1CE0
1FE0
1C70
1C70
1C1C
1C1C
1C1C
1C1C
1C70
1C70
1FE0
0000
0000
0000
0000
0000
0000
ENDCHAR
STARTCHAR uni0182
ENCODING 386
SWIDTH 720 0
DWIDTH 15 0
BBX 15 30 0 -6
BITMAP
0000
0000
0000
0000
0000
3FF0
3800
3800
3800
3800
3800
3800
3FE0
3FE0
3870
381C
381C
381C
381C
381C
381C
3870
3870
3FE0
0000
0000
0000
0000
0000
0000
ENDCHAR
STARTCHAR uni0183
ENCODING 387
SWIDTH 720 0
DWIDTH 15 0
BBX 15 30 0 -6
BITMAP
0000
0000
0000
0000
0000
3FE0
3800
3800
3800
3800
3800
3800
3B80
3B80
3CE0
3870
3870
3870
3870
3870
3870
3CE0
3CE0
3B80
0000
0000
0000
0000
0000
0000
ENDCHAR
STARTCHAR uni0184
ENCODING 388
SWIDTH 720 0
DWIDTH 15 0
BBX 15 30 0 -6
BITMAP
0000
0000
0000
0000
0000
3800
F800
F800
F800
3800
3800
3800
3FE0
3FE0
3870
381C
381C
381C
381C
381C
381C
3870
3870
3FE0
0000
0000
0000
0000
0000
0000
ENDCHAR
STARTCHAR uni0185
ENCODING 389
SWIDTH 720 0
DWIDTH 15 0
BBX 15 30 0 -6
BITMAP
0000
0000
0000
0000
0000
0000
1C00
1C00
3C00
3C00
3C00
1C00
1CE0
1CE0
1F70
1C1C
1C1C
1C1C
1C1C
1C1C
1C1C
1F70
1F70
1CE0
0000
0000
0000
0000
0000
0000
ENDCHAR
STARTCHAR uni0186
ENCODING 390
SWIDTH 720 0
DWIDTH 15 0
BBX 15 30 0 -6
BITMAP
0000
0000
0000
0000
0000
07E0
1C70
1C70
381C
001C
001C
001C
001C
001C
001C
001C
001C
001C
001C
001C
381C
1C70
1C70
07E0
0000
0000
0000
0000
0000
0000
ENDCHAR
STARTCHAR uni0187
ENCODING 391
SWIDTH 720 0
DWIDTH 15 0
BBX 15 30 0 -6
BITMAP
0000
0000
000E
001C
001C
07F0
1C70
1C70
3810
3800
3800
3800
3800
3800
3800
3800
3800
3800
3800
3800
381C
1C70
1C70
07E0
0000
0000
0000
0000
0000
0000
ENDCHAR
STARTCHAR uni0188
ENCODING 392
SWIDTH 720 0
DWIDTH 15 0
BBX 15 30 0 -6
BITMAP
0000
0000
0000
0000
0000
0000
0000
0000
000E
001C
001C
0010
07F0
07F0
1C10
3800
3800
3800
3800
3800
3800
1C1C
1C1C
07F0
0000
0000
0000
0000
0000
0000
ENDCHAR
STARTCHAR uni0189
ENCODING 393
SWIDTH 720 0
DWIDTH 15 0
BBX 15 30 0 -6
BITMAP
0000
0000
0000
0000
0000
3FE0
3870
3870
381C
381C
381C
381C
381C
381C
FC1C
381C
381C
381C
381C
381C
381C
3870
3870
3FE0
0000
0000
0000
0000
0000
0000
ENDCHAR
STARTCHAR uni018A
ENCODING 394
SWIDTH 720 0
DWIDTH 15 0
BBX 15 30 0 -6
BITMAP
0000
0000
0000
0000
0000
3FE0
DC70
DC70
DC1C
1C1C
1C1C
1C1C
1C1C
1C1C
1C1C
1C1C
1C1C
1C1C
1C1C
1C1C
1C1C
1C70
1C70
1FE0
0000
0000
0000
0000
0000
0000
ENDCHAR
STARTCHAR uni018B
ENCODING 395
SWIDTH 720 0
DWIDTH 15 0
BBX 15 30 0 -6
BITMAP
0000
0000
0000
0000
0000
1FFC
001C
001C
001C
001C
001C
001C
07FC
07FC
1C1C
381C
381C
381C
381C
381C
381C
1C1C
1C1C
07FC
0000
0000
0000
0000
0000
0000
ENDCHAR
STARTCHAR uni018C
ENCODING 396
SWIDTH 720 0
DWIDTH 15 0
BBX 15 30 0 -6
BITMAP
0000
0000
0000
0000
0000
1FF0
0070
0070
0070
0070
0070
0070
0770
0770
1CF0
3870
3870
3870
3870
3870
3870
1CF0
1CF0
0770
0000
0000
0000
0000
0000
0000
ENDCHAR
STARTCHAR uni018D
ENCODING 397
SWIDTH 720 0
DWIDTH 15 0
BBX 15 30 0 -6
BITMAP
0000
0000
0000
0000
0000
0000
0000
0000
0000
0000
0000
0000
07E0
07E0
1C70
381C
381C
381C
381C
381C
381C
1C70
1C70
07E0
00E0
00E0
0070
1C1C
1C1C
07F0
ENDCHAR
STARTCHAR uni018E
ENCODING 398
SWIDTH 720 0
DWIDTH 15 0
BBX 15 30 0 -6
BITMAP
0000
0000
0000
0000
0000
3FFC
001C
001C
001C
001C
001C
001C
001C
001C
07FC
001C
001C
001C
001C
001C
001C
001C
001C
3FFC
0000
0000
0000
0000
0000
0000
ENDCHAR
STARTCHAR uni018F
ENCODING 399
SWIDTH 720 0
DWIDTH 15 0
BBX 15 30 0 -6
BITMAP
0000
0000
0000
0000
0000
07E0
1C70
1C70
381C
001C
001C
001C
001C
001C
3FFC
381C
381C
381C
381C
381C
381C
1C70
1C70
07E0
0000
0000
0000
0000
0000
0000
ENDCHAR
STARTCHAR uni0190
ENCODING 400
SWIDTH 720 0
DWIDTH 15 0
BBX 15 30 0 -6
BITMAP
0000
0000
0000
0000
0000
07F0
1C1C
1C1C
3800
3800
3800
3800
1C00
1C00
07F0
1C00
1C00
3800
3800
3800
3800
1C1C
1C1C
07F0
0000
0000
0000
0000
0000
0000
ENDCHAR
STARTCHAR uni0191
ENCODING 401
SWIDTH 720 0
DWIDTH 15 0
BBX 15 30 0 -6
BITMAP
0000
0000
0000
0000
0000
3FFC
3800
3800
3800
3800
3800
3800
3800
3800
3FE0
3800
3800
3800
3800
3800
3800
3800
3800
3800
3800
3800
3800
E000
E000
0000
ENDCHAR
STARTCHAR florin
ENCODING 402
SWIDTH 720 0
DWIDTH 15 0
BBX 15 30 0 -6
BITMAP
0000
0000
0000
0000
0000
03F0
071C
071C
071C
0700
0700
0700
3FE0
3FE0
0700
0700
0700
0700
0700
0700
0700
0700
0700
0700
0700
0700
E700
3C00
3C00
0000
ENDCHAR
STARTCHAR uni0193
ENCODING 403
SWIDTH 720 0
DWIDTH 15 0
BBX 15 30 0 -6
BITMAP
0000
0000
000E
001C
001C
07F0
1C70
1C70
3800
3800
3800
3800
3800
3800
38FC
381C
381C
381C
381C
381C
381C
1C7C
1C7C
07EC
0000
0000
0000
0000
0000
0000
ENDCHAR
STARTCHAR uni0194
ENCODING 404
SWIDTH 720 0
DWIDTH 15 0
BBX 15 30 0 -6
BITMAP
0000
0000
0000
0000
0000
381C
381C
381C
381C
1C70
1C70
1C70
1C70
1C70
07E0
07E0
07E0
0380
07E0
07E0
1C70
1C70
1C70
07E0
0000
0000
0000
0000
0000
0000
ENDCHAR
STARTCHAR uni0195
ENCODING 405
SWIDTH 720 0
DWIDTH 15 0
BBX 15 30 0 -6
BITMAP
0000
0000
0000
0000
0000
3800
3800
3800
3800
3800
3800
3800
3F1C
3F1C
3B9C
3B9C
3B9C
3B9C
3B9C
3B9C
3B9C
3B9C
3B9C
38F0
0000
0000
0000
0000
0000
0000
ENDCHAR
STARTCHAR uni0196
ENCODING 406
SWIDTH 720 0
DWIDTH 15 0
BBX 15 30 0 -6
BITMAP
0000
0000
0000
0000
0000
1F80
0380
0380
0380
0380
0380
0380
0380
0380
0380
0380
0380
0380
0380
0380
0380
039C
039C
00F0
0000
0000
0000
0000
0000
0000
ENDCHAR
STARTCHAR uni0197
ENCODING 407
SWIDTH 720 0
DWIDTH 15 0
BBX 15 30 0 -6
BITMAP
0000
0000
0000
0000
0000
3FFC
0380
0380
0380
0380
0380
0380
1FF0
1FF0
0380
0380
0380
0380
0380
0380
0380
0380
0380
3FFC
0000
0000
0000
0000
0000
0000
ENDCHAR
STARTCHAR uni0198
ENCODING 408
SWIDTH 720 0
DWIDTH 15 0
BBX 15 30 0 -6
BITMAP
0000
0000
0000
0000
0000
387C
38EE
38EE
38E0
3B80
3B80
3B80
3B80
3B80
3F00
3B80
3B80
3B80
38E0
38E0
38E0
3870
3870
3870
0000
0000
0000
0000
0000
0000
ENDCHAR
STARTCHAR uni0199
ENCODING 409
SWIDTH 720 0
DWIDTH 15 0
BBX 15 30 0 -6
BITMAP
0000
0000
0000
0000
0000
1F00
3800
3800
3800
3800
3800
3800
3870
3870
38E0
3B80
3B80
3F00
3F80
3F80
38E0
3870
3870
381C
0000
0000
0000
0000
0000
0000
ENDCHAR
STARTCHAR uni019A
ENCODING 410
SWIDTH 720 0
DWIDTH 15 0
BBX 15 30 0 -6
BITMAP
0000
0000
0000
0000
0000
1F80
0380
0380
0380
0380
0380
0380
1FF0
1FF0
0380
0380
0380
0380
0380
0380
0380
0380
0380
3FFC
0000
0000
0000
0000
0000
0000
ENDCHAR
STARTCHAR uni019B
ENCODING 411
SWIDTH 720 0
DWIDTH 15 0
BBX 15 30 0 -6
BITMAP
0000
0000
0000
0000
0000
3800
38E0
38E0
1F80
1F00
1F00
3F00
E380
E380
0380
07E0
07E0
07E0
1C70
1C70
1C70
381C
381C
381C
0000
0000
0000
0000
0000
0000
ENDCHAR
STARTCHAR uni019C
ENCODING 412
SWIDTH 720 0
DWIDTH 15 0
BBX 15 30 0 -6
BITMAP
0000
0000
0000
0000
0000
3B9C
3B9C
3B9C
3B9C
3B9C
3B9C
3B9C
3B9C
3B9C
3B9C
3B9C
3B9C
3B9C
3B9C
3B9C
3B9C
3FFC
3FFC
1CEC
0000
0000
0000
0000
0000
0000
ENDCHAR
STARTCHAR uni019D
ENCODING 413
SWIDTH 720 0
DWIDTH 15 0
BBX 15 30 0 -6
BITMAP
0000
0000
0000
0000
0000
381C
3C1C
3C1C
3C1C
3F1C
3F1C
3F1C
3B9C
3B9C
3B9C
38FC
38FC
38FC
387C
387C
387C
381C
381C
381C
3800
3800
3800
3800
3800
E000
ENDCHAR
STARTCHAR uni019E
ENCODING 414
SWIDTH 720 0
DWIDTH 15 0
BBX 15 30 0 -6
BITMAP
0000
0000
0000
0000
0000
0000
0000
0000
0000
0000
0000
0000
3BE0
3BE0
3C70
381C
381C
381C
381C
381C
381C
381C
381C
381C
001C
001C
001C
001C
001C
001C
ENDCHAR
STARTCHAR uni019F
ENCODING 415
SWIDTH 720 0
DWIDTH 15 0
BBX 15 30 0 -6
BITMAP
0000
0000
0000
0000
0000
07E0
1C70
1C70
381C
381C
381C
381C
381C
381C
3FFC
381C
381C
381C
381C
381C
381C
1C70
1C70
07E0
0000
0000
0000
0000
0000
0000
ENDCHAR
STARTCHAR Ohorn
ENCODING 416
SWIDTH 720 0
DWIDTH 15 0
BBX 15 30 0 -6
BITMAP
0000
0000
0000
0000
0000
078E
1CEE
1CEE
387C
3870
3870
3870
3870
3870
3870
3870
3870
3870
3870
3870
3870
1CE0
1CE0
0780
0000
0000
0000
0000
0000
0000
ENDCHAR
STARTCHAR ohorn
ENCODING 417
SWIDTH 720 0
DWIDTH 15 0
BBX 15 30 0 -6
BITMAP
0000
0000
0000
0000
0000
0000
0000
0000
0000
0000
0000
0000
078E
078E
1CEE
387C
387C
3870
3870
3870
3870
1CE0
1CE0
0780
0000
0000
0000
0000
0000
0000
ENDCHAR
STARTCHAR uni01A2
ENCODING 418
SWIDTH 720 0
DWIDTH 15 0
BBX 15 30 0 -6
BITMAP
0000
0000
0000
0000
0000
1CF0
3F9C
3F9C
E39C
E39C
E39C
E39C
E39C
E39C
E39C
E39C
E39C
E39C
E39C
E39C
E39C
3F1C
3F1C
1C1C
001C
001C
001C
001C
001C
001C
ENDCHAR
STARTCHAR uni01A3
ENCODING 419
SWIDTH 720 0
DWIDTH 15 0
BBX 15 30 0 -6
BITMAP
0000
0000
0000
0000
0000
0000
0000
0000
0000
0000
0000
0000
1CF0
1CF0
3F9C
E39C
E39C
E39C
E39C
E39C
E39C
3F1C
3F1C
1C1C
001C
001C
001C
001C
001C
001C
ENDCHAR
STARTCHAR uni01A4
ENCODING 420
SWIDTH 720 0
DWIDTH 15 0
BBX 15 30 0 -6
BITMAP
0000
0000
0000
0000
0000
3FE0
DC70
DC70
DC1C
1C1C
1C1C
1C1C
1C1C
1C1C
1C70
1FE0
1FE0
1C00
1C00
1C00
1C00
1C00
1C00
1C00
0000
0000
0000
0000
0000
0000
ENDCHAR
STARTCHAR uni01A5
ENCODING 421
SWIDTH 720 0
DWIDTH 15 0
BBX 15 30 0 -6
BITMAP
0000
0000
0000
0000
0000
1F00
3B80
3B80
3800
3800
3800
3800
3BE0
3BE0
3C70
381C
381C
381C
381C
381C
381C
3C70
3C70
3BE0
3800
3800
3800
3800
3800
3800
ENDCHAR
STARTCHAR uni01A6
ENCODING 422
SWIDTH 720 0
DWIDTH 15 0
BBX 15 30 0 -6
BITMAP
0000
0000
3800
3800
3800
3FE0
3870
3870
381C
381C
381C
381C
381C
381C
3870
3FE0
3FE0
38E0
3870
3870
3870
381C
381C
381C
000E
000E
000E
0000
0000
0000
ENDCHAR
STARTCHAR uni01A7
ENCODING 423
SWIDTH 720 0
DWIDTH 15 0
BBX 15 30 0 -6
BITMAP
0000
0000
0000
0000
0000
07E0
1C70
1C70
381C
001C
001C
001C
0070
0070
07E0
1C00
1C00
3800
3800
3800
381C
1C70
1C70
07E0
0000
0000
0000
0000
0000
0000
ENDCHAR
STARTCHAR uni01A8
ENCODING 424
SWIDTH 720 0
DWIDTH 15 0
BBX 15 30 0 -6
BITMAP
0000
0000
0000
0000
0000
0000
0000
0000
0000
0000
0000
0000
1FF0
1FF0
381C
001C
001C
1FF0
3800
3800
3800
381C
381C
1FF0
0000
0000
0000
0000
0000
0000
ENDCHAR
STARTCHAR uni01A9
ENCODING 425
SWIDTH 720 0
DWIDTH 15 0
BBX 15 30 0 -6
BITMAP
0000
0000
0000
0000
0000
3FFC
3800
3800
1C00
0700
0700
0380
00E0
00E0
00E0
0380
0380
0700
0700
0700
1C00
3800
3800
3FFC
0000
0000
0000
0000
0000
0000
ENDCHAR
STARTCHAR uni01AA
ENCODING 426
SWIDTH 720 0
DWIDTH 15 0
BBX 15 30 0 -6
BITMAP
0000
0000
0000
0000
0000
1F00
3B80
3B80
2080
3B80
3B80
1F80
0380
0380
0380
0380
0380
0380
0380
0380
0380
0380
0380
0380
0380
0380
0380
00E0
00E0
007C
ENDCHAR
STARTCHAR uni01AB
ENCODING 427
SWIDTH 720 0
DWIDTH 15 0
BBX 15 30 0 -6
BITMAP
0000
0000
0000
0000
0000
0000
0000
0000
0700
0700
0700
0700
3FE0
3FE0
0700
0700
0700
0700
0700
0700
0700
0700
0700
03FC
001C
001C
001C
0070
0070
07E0
ENDCHAR
STARTCHAR uni01AC
ENCODING 428
SWIDTH 720 0
DWIDTH 15 0
BBX 15 30 0 -6
BITMAP
0000
0000
0000
0000
0000
3FFC
E380
E380
E380
E380
E380
0380
0380
0380
0380
0380
0380
0380
0380
0380
0380
0380
0380
0380
0000
0000
0000
0000
0000
0000
ENDCHAR
STARTCHAR uni01AD
ENCODING 429
SWIDTH 720 0
DWIDTH 15 0
BBX 15 30 0 -6
BITMAP
0000
0000
0000
0000
0000
0000
03F0
03F0
071C
0700
0700
0700
3FE0
3FE0
0700
0700
0700
0700
0700
0700
0700
071C
071C
03F0
0000
0000
0000
0000
0000
0000
ENDCHAR
STARTCHAR uni01AE
ENCODING 430
SWIDTH 720 0
DWIDTH 15 0
BBX 15 30 0 -6
BITMAP
0000
0000
0000
0000
0000
3FFC
0380
0380
0380
0380
0380
0380
0380
0380
0380
0380
0380
0380
0380
0380
0380
0380
0380
0380
0380
0380
0380
0380
0380
00F0
ENDCHAR
STARTCHAR Uhorn
ENCODING 431
SWIDTH 720 0
DWIDTH 15 0
BBX 15 30 0 -6
BITMAP
0000
0000
0000
0000
0000
38EE
38EE
38EE
38FC
38E0
38E0
38E0
38E0
38E0
38E0
38E0
38E0
38E0
38E0
38E0
38E0
1F80
1F80
0700
0000
0000
0000
0000
0000
0000
ENDCHAR
STARTCHAR uhorn
ENCODING 432
SWIDTH 720 0
DWIDTH 15 0
BBX 15 30 0 -6
BITMAP
0000
0000
0000
0000
0000
0000
0000
0000
0000
0000
0000
0000
38EE
38EE
38EE
38FC
38FC
38E0
38E0
38E0
38E0
1FE0
1FE0
07E0
0000
0000
0000
0000
0000
0000
ENDCHAR
STARTCHAR uni01B1
ENCODING 433
SWIDTH 720 0
DWIDTH 15 0
BBX 15 30 0 -6
BITMAP
0000
0000
0000
0000
0000
3C7C
0460
0460
1C70
381C
381C
381C
381C
381C
381C
381C
381C
381C
381C
381C
381C
1C70
1C70
07E0
0000
0000
0000
0000
0000
0000
ENDCHAR
STARTCHAR uni01B2
ENCODING 434
SWIDTH 720 0
DWIDTH 15 0
BBX 15 30 0 -6
BITMAP
0000
0000
0000
0000
0000
38E0
38E0
38E0
3870
3870
3870
381C
381C
381C
381C
381C
381C
381C
381C
381C
381C
1C70
1C70
07E0
0000
0000
0000
0000
0000
0000
ENDCHAR
STARTCHAR uni01B3
ENCODING 435
SWIDTH 720 0
DWIDTH 15 0
BBX 15 30 0 -6
BITMAP
0000
0000
0000
0000
0000
3F1C
E71C
E71C
E71C
071C
071C
03F0
03F0
03F0
00E0
00E0
00E0
00E0
00E0
00E0
00E0
00E0
00E0
00E0
0000
0000
0000
0000
0000
0000
ENDCHAR
STARTCHAR uni01B4
ENCODING 436
SWIDTH 720 0
DWIDTH 15 0
BBX 15 30 0 -6
BITMAP
0000
0000
0000
0000
0000
0000
0000
0000
001E
0070
0070
0070
3870
3870
3870
3870
3870
3870
3870
3870
3870
1CF0
1CF0
0770
0070
0070
3870
1CE0
1CE0
0780
ENDCHAR
STARTCHAR uni01B5
ENCODING 437
SWIDTH 720 0
DWIDTH 15 0
BBX 15 30 0 -6
BITMAP
0000
0000
0000
0000
0000
3FFC
001C
001C
001C
0070
0070
0070
00E0
00E0
1FF0
0700
0700
1C00
1C00
1C00
3800
3800
3800
3FFC
0000
0000
0000
0000
0000
0000
ENDCHAR
STARTCHAR uni01B6
ENCODING 438
SWIDTH 720 0
DWIDTH 15 0
BBX 15 30 0 -6
BITMAP
0000
0000
0000
0000
0000
0000
0000
0000
0000
0000
0000
0000
1FFC
1FFC
001C
0070
0070
07FC
0380
0380
0700
1C00
1C00
1FFC
0000
0000
0000
0000
0000
0000
ENDCHAR
STARTCHAR uni01B7
ENCODING 439
SWIDTH 720 0
DWIDTH 15 0
BBX 15 30 0 -6
BITMAP
0000
0000
0000
0000
0000
3FFC
001C
001C
0070
00E0
00E0
0380
07E0
07E0
0070
001C
001C
001C
381C
381C
381C
1C70
1C70
07E0
0000
0000
0000
0000
0000
0000
ENDCHAR
STARTCHAR uni01B8
ENCODING 440
SWIDTH 720 0
DWIDTH 15 0
BBX 15 30 0 -6
BITMAP
0000
0000
0000
0000
0000
3FFC
3800
3800
1C00
0700
0700
0380
07E0
07E0
1C00
3800
3800
3800
381C
381C
381C
1C70
1C70
07E0
0000
0000
0000
0000
0000
0000
ENDCHAR
STARTCHAR uni01B9
ENCODING 441
SWIDTH 720 0
DWIDTH 15 0
BBX 15 30 0 -6
BITMAP
0000
0000
0000
0000
0000
0000
0000
0000
0000
0000
0000
0000
3FF0
3FF0
3800
1C00
1C00
0700
0380
0380
07E0
1C00
1C00
3800
381C
381C
381C
1C70
1C70
07E0
ENDCHAR
STARTCHAR uni01BA
ENCODING 442
SWIDTH 720 0
DWIDTH 15 0
BBX 15 30 0 -6
BITMAP
0000
0000
0000
0000
0000
0000
0000
0000
0000
0000
0000
0000
1FFC
1FFC
001C
0070
0070
00E0
07F0
07F0
001C
001C
001C
00F0
0380
0380
0700
0770
0770
03E0
ENDCHAR
STARTCHAR uni01BB
ENCODING 443
SWIDTH 720 0
DWIDTH 15 0
BBX 15 30 0 -6
BITMAP
0000
0000
0000
0000
0000
07E0
1C70
1C70
381C
381C
381C
001C
001C
001C
0070
3FFC
3FFC
0700
1C00
1C00
3800
3800
3800
3FFC
0000
0000
0000
0000
0000
0000
ENDCHAR
STARTCHAR uni01BC
ENCODING 444
SWIDTH 720 0
DWIDTH 15 0
BBX 15 30 0 -6
BITMAP
0000
0000
0000
0000
0000
3FFC
380C
380C
3800
3800
3800
3800
3BE0
3BE0
3C70
001C
001C
001C
001C
001C
381C
1C70
1C70
07E0
0000
0000
0000
0000
0000
0000
ENDCHAR
STARTCHAR uni01BD
ENCODING 445
SWIDTH 720 0
DWIDTH 15 0
BBX 15 30 0 -6
BITMAP
0000
0000
0000
0000
0000
1FF0
1C10
1C10
1C00
1C00
1C00
1C00
1FE0
1FE0
1F70
0070
0070
0070
0070
0070
1C70
07E0
07E0
0380
0000
0000
0000
0000
0000
0000
ENDCHAR
STARTCHAR uni01BE
ENCODING 446
SWIDTH 720 0
DWIDTH 15 0
BBX 15 30 0 -6
BITMAP
0000
0000
0000
0000
0000
0000
0000
0000
0700
0700
0700
0700
3FE0
3FE0
0700
0700
0700
0380
00E0
00E0
0070
1C70
1C70
07E0
0000
0000
0000
0000
0000
0000
ENDCHAR
STARTCHAR uni01BF
ENCODING 447
SWIDTH 720 0
DWIDTH 15 0
BBX 15 30 0 -6
BITMAP
0000
0000
0000
0000
0000
0000
0000
0000
0000
0000
0000
0000
3BE0
3BE0
3C70
381C
381C
381C
381C
381C
381C
3870
3870
3BE0
3F00
3F00
3800
3800
3800
3800
ENDCHAR
STARTCHAR uni01C0
ENCODING 448
SWIDTH 720 0
DWIDTH 15 0
BBX 15 30 0 -6
BITMAP
0000
0000
0000
0000
0000
0380
0380
0380
0380
0380
0380
0380
0380
0380
0380
0380
0380
0380
0380
0380
0380
0380
0380
0380
0380
0380
0380
0000
0000
0000
ENDCHAR
STARTCHAR uni01C1
ENCODING 449
SWIDTH 720 0
DWIDTH 15 0
BBX 15 30 0 -6
BITMAP
0000
0000
0000
0000
0000
1C70
1C70
1C70
1C70
1C70
1C70
1C70
1C70
1C70
1C70
1C70
1C70
1C70
1C70
1C70
1C70
1C70
1C70
1C70
1C70
1C70
1C70
0000
0000
0000
ENDCHAR
STARTCHAR uni01C2
ENCODING 450
SWIDTH 720 0
DWIDTH 15 0
BBX 15 30 0 -6
BITMAP
0000
0000
0000
0000
0000
0000
0000
0000
0000
0000
0000
0380
0380
0380
3FFC
0380
0380
0380
0380
0380
3FFC
0380
0380
0380
0000
0000
0000
0000
0000
0000
ENDCHAR
STARTCHAR uni01C3
ENCODING 451
SWIDTH 720 0
DWIDTH 15 0
BBX 15 30 0 -6
BITMAP
0000
0000
0000
0000
0000
0380
0380
0380
0380
0380
0380
0380
0380
0380
0380
0380
0380
0380
0000
0000
0000
0380
0380
0380
0000
0000
0000
0000
0000
0000
ENDCHAR
STARTCHAR uni01C4
ENCODING 452
SWIDTH 720 0
DWIDTH 15 0
BBX 15 30 0 -6
BITMAP
0000
0000
00EE
007C
007C
0000
FC7E
FC7E
E70E
E70E
E70E
E70E
E71C
E71C
E71C
E71C
E71C
E71C
E770
E770
E770
E770
E770
FC7E
0000
0000
0000
0000
0000
0000
ENDCHAR
STARTCHAR uni01C5
ENCODING 453
SWIDTH 720 0
DWIDTH 15 0
BBX 15 30 0 -6
BITMAP
0000
0000
0000
0000
0000
FC00
E700
E700
E7EE
E77C
E77C
E700
E77E
E77E
E70E
E70E
E70E
E71C
E71C
E71C
E770
E770
E770
FC7E
0000
0000
0000
0000
0000
0000
ENDCHAR
STARTCHAR uni01C6
ENCODING 454
SWIDTH 720 0
DWIDTH 15 0
BBX 15 30 0 -6
BITMAP
0000
0000
0000
0000
0000
0700
0700
0700
07EE
077C
077C
0700
3F7E
3F7E
E70E
E70E
E70E
E71C
E71C
E71C
E770
E770
E770
3F7E
0000
0000
0000
0000
0000
0000
ENDCHAR
STARTCHAR uni01C7
ENCODING 455
SWIDTH 720 0
DWIDTH 15 0
BBX 15 30 0 -6
BITMAP
0000
0000
0000
0000
0000
E0FC
E01C
E01C
E01C
E01C
E01C
E01C
E01C
E01C
E01C
E01C
E01C
E01C
E01C
E01C
E01C
E39C
E39C
FCF0
0000
0000
0000
0000
0000
0000
ENDCHAR
STARTCHAR uni01C8
ENCODING 456
SWIDTH 720 0
DWIDTH 15 0
BBX 15 30 0 -6
BITMAP
0000
0000
0000
0000
0000
E000
E000
E000
E01C
E01C
E01C
E000
E0FC
E0FC
E01C
E01C
E01C
E01C
E01C
E01C
E01C
E01C
E01C
FF1C
001C
001C
1C1C
1C1C
1C1C
07F0
ENDCHAR
STARTCHAR uni01C9
ENCODING 457
SWIDTH 720 0
DWIDTH 15 0
BBX 15 30 0 -6
BITMAP
0000
0000
0000
0000
0000
3C00
1C00
1C00
1C1C
1C1C
1C1C
1C00
1CFC
1CFC
1C1C
1C1C
1C1C
1C1C
1C1C
1C1C
1C1C
1C1C
1C1C
FF9C
001C
001C
1C1C
1C1C
1C1C
07F0
ENDCHAR
STARTCHAR uni01CA
ENCODING 458
SWIDTH 720 0
DWIDTH 15 0
BBX 15 30 0 -6
BITMAP
0000
0000
0000
0000
0000
E39C
E39C
E39C
E39C
FB9C
FB9C
FB9C
FB9C
FB9C
FF9C
E79C
E79C
E79C
E79C
E79C
E39C
E39C
E39C
E39C
001C
001C
1C70
07E0
07E0
0000
ENDCHAR
STARTCHAR uni01CB
ENCODING 459
SWIDTH 720 0
DWIDTH 15 0
BBX 15 30 0 -6
BITMAP
0000
0000
0000
0000
0000
E380
E380
E380
E39C
FB9C
FB9C
FB80
FB9C
FB9C
FF9C
E79C
E79C
E79C
E79C
E79C
E39C
E39C
E39C
E39C
001C
001C
1C1C
1C1C
1C1C
07F0
ENDCHAR
STARTCHAR uni01CC
ENCODING 460
SWIDTH 720 0
DWIDTH 15 0
BBX 15 30 0 -6
BITMAP
0000
0000
0000
0000
0000
0000
0000
0000
001C
001C
001C
0000
E71C
E71C
FB9C
E39C
E39C
E39C
E39C
E39C
E39C
E39C
E39C
E39C
001C
001C
1C1C
1C1C
1C1C
07F0
ENDCHAR
STARTCHAR uni01CD
ENCODING 461
SWIDTH 720 0
DWIDTH 15 0
BBX 15 30 0 -6
BITMAP
0000
0000
1C70
07E0
07E0
0380
0000
0000
0380
07E0
07E0
1C70
1C70
1C70
381C
381C
381C
3FFC
381C
381C
381C
381C
381C
381C
0000
0000
0000
0000
0000
0000
ENDCHAR
STARTCHAR uni01CE
ENCODING 462
SWIDTH 720 0
DWIDTH 15 0
BBX 15 30 0 -6
BITMAP
0000
0000
0000
0000
0000
0000
1C70
1C70
07E0
0380
0380
0000
07F0
07F0
1C1C
001C
001C
1FFC
381C
381C
381C
381C
381C
1FEC
0000
0000
0000
0000
0000
0000
ENDCHAR
STARTCHAR uni01CF
ENCODING 463
SWIDTH 720 0
DWIDTH 15 0
BBX 15 30 0 -6
BITMAP
0000
0000
1C70
07E0
07E0
0380
0000
0000
3FFC
0380
0380
0380
0380
0380
0380
0380
0380
0380
0380
0380
0380
0380
0380
3FFC
0000
0000
0000
0000
0000
0000
ENDCHAR
STARTCHAR uni01D0
ENCODING 464
SWIDTH 720 0
DWIDTH 15 0
BBX 15 30 0 -6
BITMAP
0000
0000
0000
0000
0000
0000
1C70
1C70
07E0
0380
0380
0000
1F80
1F80
0380
0380
0380
0380
0380
0380
0380
0380
0380
3FFC
0000
0000
0000
0000
0000
0000
ENDCHAR
STARTCHAR uni01D1
ENCODING 465
SWIDTH 720 0
DWIDTH 15 0
BBX 15 30 0 -6
BITMAP
0000
0000
1C70
07E0
07E0
0380
0000
0000
07E0
1C70
1C70
381C
381C
381C
381C
381C
381C
381C
381C
381C
381C
1C70
1C70
07E0
0000
0000
0000
0000
0000
0000
ENDCHAR
STARTCHAR uni01D2
ENCODING 466
SWIDTH 720 0
DWIDTH 15 0
BBX 15 30 0 -6
BITMAP
0000
0000
0000
0000
0000
0000
1C70
1C70
07E0
0380
0380
0000
07E0
07E0
1C70
381C
381C
381C
381C
381C
381C
1C70
1C70
07E0
0000
0000
0000
0000
0000
0000
ENDCHAR
STARTCHAR uni01D3
ENCODING 467
SWIDTH 720 0
DWIDTH 15 0
BBX 15 30 0 -6
BITMAP
0000
0000
1C70
07E0
07E0
0380
381C
381C
381C
381C
381C
381C
381C
381C
381C
381C
381C
381C
381C
381C
381C
1C70
1C70
07E0
0000
0000
0000
0000
0000
0000
ENDCHAR
STARTCHAR uni01D4
ENCODING 468
SWIDTH 720 0
DWIDTH 15 0
BBX 15 30 0 -6
BITMAP
0000
0000
0000
0000
0000
0000
1C70
1C70
07E0
0380
0380
0000
381C
381C
381C
381C
381C
381C
381C
381C
381C
1C7C
1C7C
079C
0000
0000
0000
0000
0000
0000
ENDCHAR
STARTCHAR uni01D5
ENCODING 469
SWIDTH 720 0
DWIDTH 15 0
BBX 15 30 0 -6
BITMAP
0000
0000
3FFC
0000
0000
1C70
1C70
1C70
0000
381C
381C
381C
381C
381C
381C
381C
381C
381C
381C
381C
381C
1C70
1C70
07E0
0000
0000
0000
0000
0000
0000
ENDCHAR
STARTCHAR uni01D6
ENCODING 470
SWIDTH 720 0
DWIDTH 15 0
BBX 15 30 0 -6
BITMAP
0000
0000
0000
0000
0000
3FFC
0000
0000
1C70
1C70
1C70
0000
381C
381C
381C
381C
381C
381C
381C
381C
381C
1C7C
1C7C
079C
0000
0000
0000
0000
0000
0000
ENDCHAR
STARTCHAR uni01D7
ENCODING 471
SWIDTH 720 0
DWIDTH 15 0
BBX 15 30 0 -6
BITMAP
00E0
00E0
0380
0000
0000
1C70
1C70
1C70
0000
381C
381C
381C
381C
381C
381C
381C
381C
381C
381C
381C
381C
1C70
1C70
07E0
0000
0000
0000
0000
0000
0000
ENDCHAR
STARTCHAR uni01D8
ENCODING 472
SWIDTH 720 0
DWIDTH 15 0
BBX 15 30 0 -6
BITMAP
0000
0000
0000
00E0
00E0
0380
0000
0000
1C70
1C70
1C70
0000
381C
381C
381C
381C
381C
381C
381C
381C
381C
1C7C
1C7C
079C
0000
0000
0000
0000
0000
0000
ENDCHAR
STARTCHAR uni01D9
ENCODING 473
SWIDTH 720 0
DWIDTH 15 0
BBX 15 30 0 -6
BITMAP
0770
0770
03E0
0000
0000
1C70
1C70
1C70
0000
381C
381C
381C
381C
381C
381C
381C
381C
381C
381C
381C
381C
1C70
1C70
07E0
0000
0000
0000
0000
0000
0000
ENDCHAR
STARTCHAR uni01DA
ENCODING 474
SWIDTH 720 0
DWIDTH 15 0
BBX 15 30 0 -6
BITMAP
0000
0000
0000
0770
0770
03E0
0000
0000
1C70
1C70
1C70
0000
381C
381C
381C
381C
381C
381C
381C
381C
381C
1C7C
1C7C
079C
0000
0000
0000
0000
0000
0000
ENDCHAR
STARTCHAR uni01DB
ENCODING 475
SWIDTH 720 0
DWIDTH 15 0
BBX 15 30 0 -6
BITMAP
0700
0700
0380
0000
0000
1C70
1C70
1C70
0000
381C
381C
381C
381C
381C
381C
381C
381C
381C
381C
381C
381C
1C70
1C70
07E0
0000
0000
0000
0000
0000
0000
ENDCHAR
STARTCHAR uni01DC
ENCODING 476
SWIDTH 720 0
DWIDTH 15 0
BBX 15 30 0 -6
BITMAP
0000
0000
0000
0700
0700
0380
0000
0000
1C70
1C70
1C70
0000
381C
381C
381C
381C
381C
381C
381C
381C
381C
1C7C
1C7C
079C
0000
0000
0000
0000
0000
0000
ENDCHAR
STARTCHAR uni01DD
ENCODING 477
SWIDTH 720 0
DWIDTH 15 0
BBX 15 30 0 -6
BITMAP
0000
0000
0000
0000
0000
0000
0000
0000
0000
0000
0000
0000
1FE0
1FE0
3870
001C
001C
001C
3FFC
3FFC
381C
1C70
1C70
07E0
0000
0000
0000
0000
0000
0000
ENDCHAR
STARTCHAR uni01DE
ENCODING 478
SWIDTH 720 0
DWIDTH 15 0
BBX 15 30 0 -6
BITMAP
3FFC
3FFC
0000
1C70
1C70
1C70
0000
0000
0380
07E0
07E0
1C70
381C
381C
381C
381C
381C
3FFC
381C
381C
381C
381C
381C
381C
0000
0000
0000
0000
0000
0000
ENDCHAR
STARTCHAR uni01DF
ENCODING 479
SWIDTH 720 0
DWIDTH 15 0
BBX 15 30 0 -6
BITMAP
0000
0000
0000
0000
0000
3FFC
0000
0000
1C70
1C70
1C70
0000
07F0
07F0
1C1C
001C
001C
1FFC
381C
381C
381C
381C
381C
1FEC
0000
0000
0000
0000
0000
0000
ENDCHAR
STARTCHAR uni01E0
ENCODING 480
SWIDTH 720 0
DWIDTH 15 0
BBX 15 30 0 -6
BITMAP
3FFC
3FFC
0000
0380
0380
0380
0000
0000
0380
07E0
07E0
1C70
381C
381C
381C
381C
381C
3FFC
381C
381C
381C
381C
381C
381C
0000
0000
0000
0000
0000
0000
ENDCHAR
STARTCHAR uni01E1
ENCODING 481
SWIDTH 720 0
DWIDTH 15 0
BBX 15 30 0 -6
BITMAP
0000
0000
0000
0000
0000
3FFC
0000
0000
0380
0380
0380
0000
07F0
07F0
1C1C
001C
001C
1FFC
381C
381C
381C
381C
381C
1FEC
0000
0000
0000
0000
0000
0000
ENDCHAR
STARTCHAR uni01E2
ENCODING 482
SWIDTH 720 0
DWIDTH 15 0
BBX 15 30 0 -6
BITMAP
0000
0000
3FFC
0000
0000
03FC
07E0
07E0
1CE0
1CE0
1CE0
38E0
38E0
38E0
3FFC
38E0
38E0
38E0
38E0
38E0
38E0
38E0
38E0
38FC
0000
0000
0000
0000
0000
0000
ENDCHAR
STARTCHAR uni01E3
ENCODING 483
SWIDTH 720 0
DWIDTH 15 0
BBX 15 30 0 -6
BITMAP
0000
0000
0000
0000
0000
0000
0000
0000
0000
3FFC
3FFC
0000
1F70
1F70
239C
039C
039C
03F0
1F80
1F80
3B80
3B8C
3B8C
1CF0
0000
0000
0000
0000
0000
0000
ENDCHAR
STARTCHAR uni01E4
ENCODING 484
SWIDTH 720 0
DWIDTH 15 0
BBX 15 30 0 -6
BITMAP
0000
0000
0000
0000
0000
07E0
1C70
1C70
381C
3800
3800
3800
3800
3800
38FC
381C
381C
381C
38FE
38FE
381C
1C7C
1C7C
07EC
0000
0000
0000
0000
0000
0000
ENDCHAR
STARTCHAR uni01E5
ENCODING 485
SWIDTH 720 0
DWIDTH 15 0
BBX 15 30 0 -6
BITMAP
0000
0000
0000
0000
0000
0000
0000
0000
0000
0000
0000
0000
1FEC
1FEC
387C
3870
3870
3870
3870
3870
1FE0
3800
3800
1FF0
381C
381C
38FE
381C
381C
1FF0
ENDCHAR
STARTCHAR Gcaron
ENCODING 486
SWIDTH 720 0
DWIDTH 15 0
BBX 15 30 0 -6
BITMAP
0000
0000
1C70
07E0
07E0
0380
0000
0000
07E0
1C70
1C70
3800
3800
3800
3800
38FC
38FC
381C
381C
381C
381C
1C7C
1C7C
07EC
0000
0000
0000
0000
0000
0000
ENDCHAR
STARTCHAR gcaron
ENCODING 487
SWIDTH 720 0
DWIDTH 15 0
BBX 15 30 0 -6
BITMAP
0000
0000
0000
0000
0000
0000
1C70
1C70
07E0
0380
0380
0000
1FEC
1FEC
387C
3870
3870
3870
3870
3870
1FE0
3800
3800
1FF0
381C
381C
381C
381C
381C
1FF0
ENDCHAR
STARTCHAR uni01E8
ENCODING 488
SWIDTH 720 0
DWIDTH 15 0
BBX 15 30 0 -6
BITMAP
0000
0000
1C70
07E0
07E0
0380
381C
381C
3870
3870
3870
38E0
38E0
38E0
3F80
38E0
38E0
38E0
3870
3870
3870
381C
381C
381C
0000
0000
0000
0000
0000
0000
ENDCHAR
STARTCHAR uni01E9
ENCODING 489
SWIDTH 720 0
DWIDTH 15 0
BBX 15 30 0 -6
BITMAP
0000
0000
1C70
07E0
07E0
0380
3800
3800
3800
3800
3800
3800
3870
3870
38E0
3B80
3B80
3F00
3F80
3F80
38E0
3870
3870
381C
0000
0000
0000
0000
0000
0000
ENDCHAR
STARTCHAR uni01EA
ENCODING 490
SWIDTH 720 0
DWIDTH 15 0
BBX 15 30 0 -6
BITMAP
0000
0000
0000
0000
0000
07E0
1C70
1C70
381C
381C
381C
381C
381C
381C
381C
381C
381C
381C
381C
381C
381C
1C70
1C70
07E0
0380
0380
0700
0700
0700
03E0
ENDCHAR
STARTCHAR uni01EB
ENCODING 491
SWIDTH 720 0
DWIDTH 15 0
BBX 15 30 0 -6
BITMAP
0000
0000
0000
0000
0000
0000
0000
0000
0000
0000
0000
0000
07E0
07E0
1C70
381C
381C
381C
381C
381C
381C
1C70
1C70
07E0
0380
0380
0700
0700
0700
03E0
ENDCHAR
STARTCHAR uni01EC
ENCODING 492
SWIDTH 720 0
DWIDTH 15 0
BBX 15 30 0 -6
BITMAP
0000
0000
3FFC
0000
0000
07E0
1C70
1C70
381C
381C
381C
381C
381C
381C
381C
381C
381C
381C
381C
381C
381C
1C70
1C70
07E0
0380
0380
0700
0700
0700
03E0
ENDCHAR
STARTCHAR uni01ED
ENCODING 493
SWIDTH 720 0
DWIDTH 15 0
BBX 15 30 0 -6
BITMAP
0000
0000
0000
0000
0000
0000
0000
0000
0000
3FFC
3FFC
0000
07E0
07E0
1C70
381C
381C
381C
381C
381C
381C
1C70
1C70
07E0
0380
0380
0700
0700
0700
03E0
ENDCHAR
STARTCHAR uni01EE
ENCODING 494
SWIDTH 720 0
DWIDTH 15 0
BBX 15 30 0 -6
BITMAP
0000
0000
1C70
07E0
07E0
0380
0000
0000
3FFC
001C
001C
0070
00E0
00E0
07E0
0070
0070
001C
381C
381C
381C
1C70
1C70
07E0
0000
0000
0000
0000
0000
0000
ENDCHAR
STARTCHAR uni01EF
ENCODING 495
SWIDTH 720 0
DWIDTH 15 0
BBX 15 30 0 -6
BITMAP
0000
0000
0000
0000
0000
0000
1C70
1C70
07E0
0380
0380
0000
1FFC
1FFC
001C
0070
0070
00E0
0380
0380
07E0
0070
0070
001C
381C
381C
381C
1C70
1C70
07E0
ENDCHAR
STARTCHAR uni01F0
ENCODING 496
SWIDTH 720 0
DWIDTH 15 0
BBX 15 30 0 -6
BITMAP
0000
0000
0000
0000
0000
0000
038E
038E
00FC
0070
0070
0000
00FC
00FC
001C
001C
001C
001C
001C
001C
001C
001C
001C
001C
1C1C
1C1C
1C1C
1C1C
1C1C
07F0
ENDCHAR
STARTCHAR uni01F1
ENCODING 497
SWIDTH 720 0
DWIDTH 15 0
BBX 15 30 0 -6
BITMAP
0000
0000
0000
0000
0000
FC7E
E70E
E70E
E70E
E70E
E70E
E71C
E71C
E71C
E71C
E71C
E71C
E71C
E770
E770
E770
E770
E770
FC7E
0000
0000
0000
0000
0000
0000
ENDCHAR
STARTCHAR uni01F2
ENCODING 498
SWIDTH 720 0
DWIDTH 15 0
BBX 15 30 0 -6
BITMAP
0000
0000
0000
0000
0000
FC00
E700
E700
E700
E700
E700
E700
E77E
E77E
E70E
E70E
E70E
E71C
E71C
E71C
E770
E770
E770
FC7E
0000
0000
0000
0000
0000
0000
ENDCHAR
STARTCHAR uni01F3
ENCODING 499
SWIDTH 720 0
DWIDTH 15 0
BBX 15 30 0 -6
BITMAP
0000
0000
0000
0000
0000
0700
0700
0700
0700
0700
0700
0700
3F7E
3F7E
E70E
E70E
E70E
E71C
E71C
E71C
E770
E770
E770
3F7E
0000
0000
0000
0000
0000
0000
ENDCHAR
STARTCHAR uni01F4
ENCODING 500
SWIDTH 720 0
DWIDTH 15 0
BBX 15 30 0 -6
BITMAP
0070
0070
00E0
0380
0380
0000
07E0
07E0
1C70
381C
381C
3800
3800
3800
38FC
381C
381C
381C
381C
381C
381C
1C7C
1C7C
07EC
0000
0000
0000
0000
0000
0000
ENDCHAR
STARTCHAR uni01F5
ENCODING 501
SWIDTH 720 0
DWIDTH 15 0
BBX 15 30 0 -6
BITMAP
0000
0000
0000
0000
0000
0000
00E0
00E0
0380
0700
0700
0000
1FEC
1FEC
387C
3870
3870
3870
3870
3870
1FE0
3800
3800
1FF0
381C
381C
381C
381C
381C
1FF0
ENDCHAR
STARTCHAR uni01F6
ENCODING 502
SWIDTH 720 0
DWIDTH 15 0
BBX 15 30 0 -6
BITMAP
0000
0000
0000
0000
0000
3B80
3B80
3B80
3B80
3B80
3B80
3B80
3B9C
3B9C
3F9C
3B9C
3B9C
3B9C
3B9C
3B9C
3B9C
3B9C
3B9C
38F0
0000
0000
0000
0000
0000
0000
ENDCHAR
STARTCHAR uni01F7
ENCODING 503
SWIDTH 720 0
DWIDTH 15 0
BBX 15 30 0 -6
BITMAP
0000
0000
0000
0000
0000
3BE0
3F70
3F70
381C
381C
381C
381C
381C
381C
3870
38E0
38E0
3B80
3F00
3F00
3800
3800
3800
3800
3800
3800
3800
2000
2000
0000
ENDCHAR
STARTCHAR uni01F8
ENCODING 504
SWIDTH 720 0
DWIDTH 15 0
BBX 15 30 0 -6
BITMAP
0000
0000
0700
0380
0380
00E0
0000
0000
381C
3C1C
3C1C
3F1C
3F1C
3F1C
3B9C
3B9C
3B9C
38FC
38FC
38FC
387C
381C
381C
381C
0000
0000
0000
0000
0000
0000
ENDCHAR
STARTCHAR uni01F9
ENCODING 505
SWIDTH 720 0
DWIDTH 15 0
BBX 15 30 0 -6
BITMAP
0000
0000
0000
0000
0000
0000
0700
0700
0380
00E0
00E0
0000
3BE0
3BE0
3C70
381C
381C
381C
381C
381C
381C
381C
381C
381C
0000
0000
0000
0000
0000
0000
ENDCHAR
STARTCHAR Aringacute
ENCODING 506
SWIDTH 720 0
DWIDTH 15 0
BBX 15 30 0 -6
BITMAP
00E0
00E0
0380
0000
0000
0380
0460
0460
0460
0380
0380
0380
07E0
07E0
1C70
381C
381C
381C
3FFC
3FFC
381C
381C
381C
381C
0000
0000
0000
0000
0000
0000
ENDCHAR
STARTCHAR aringacute
ENCODING 507
SWIDTH 720 0
DWIDTH 15 0
BBX 15 30 0 -6
BITMAP
00E0
00E0
0380
0000
0000
0380
0460
0460
0460
0380
0380
0000
1FF0
1FF0
381C
001C
001C
1FFC
381C
381C
381C
381C
381C
1FEC
0000
0000
0000
0000
0000
0000
ENDCHAR
STARTCHAR AEacute
ENCODING 508
SWIDTH 720 0
DWIDTH 15 0
BBX 15 30 0 -6
BITMAP
0070
0070
00E0
0380
0380
0000
03FC
03FC
07E0
1CE0
1CE0
1CE0
38E0
38E0
3FFC
38E0
38E0
38E0
38E0
38E0
38E0
38E0
38E0
38FC
0000
0000
0000
0000
0000
0000
ENDCHAR
STARTCHAR aeacute
ENCODING 509
SWIDTH 720 0
DWIDTH 15 0
BBX 15 30 0 -6
BITMAP
0000
0000
0000
0000
0000
0000
0070
0070
00E0
0380
0380
0000
1F70
1F70
239C
039C
039C
03F0
1F80
1F80
3B80
3B8C
3B8C
1CF0
0000
0000
0000
0000
0000
0000
ENDCHAR
STARTCHAR Oslashacute
ENCODING 510
SWIDTH 720 0
DWIDTH 15 0
BBX 15 30 0 -6
BITMAP
00E0
00E0
0380
0700
0700
0010
07F0
07F0
1C70
387C
387C
389C
389C
389C
389C
3B1C
3B1C
3B1C
3B1C
3B1C
3C1C
1C70
1C70
1FE0
2000
2000
0000
0000
0000
0000
ENDCHAR
STARTCHAR oslashacute
ENCODING 511
SWIDTH 720 0
DWIDTH 15 0
BBX 15 30 0 -6
BITMAP
0000
0000
0000
0000
0000
0000
0070
0070
00E0
0380
0380
000C
07F0
07F0
1C70
389C
389C
389C
3B1C
3B1C
3B1C
1C70
1C70
1FE0
2000
2000
0000
0000
0000
0000
ENDCHAR
STARTCHAR uni0200
ENCODING 512
SWIDTH 720 0
DWIDTH 15 0
BBX 15 30 0 -6
BITMAP
0000
0000
38E0
1C70
1C70
0000
0380
0380
07E0
1C70
1C70
1C70
381C
381C
381C
381C
381C
3FFC
381C
381C
381C
381C
381C
381C
0000
0000
0000
0000
0000
0000
ENDCHAR
STARTCHAR uni0201
ENCODING 513
SWIDTH 720 0
DWIDTH 15 0
BBX 15 30 0 -6
BITMAP
0000
0000
0000
0000
0000
0000
0000
0000
38E0
1C70
1C70
0000
07F0
07F0
1C1C
001C
001C
1FFC
381C
381C
381C
381C
381C
1FEC
0000
0000
0000
0000
0000
0000
ENDCHAR
STARTCHAR uni0202
ENCODING 514
SWIDTH 720 0
DWIDTH 15 0
BBX 15 30 0 -6
BITMAP
0000
0000
07E0
1C70
1C70
1810
0000
0000
0380
07E0
07E0
1C70
381C
381C
381C
381C
381C
3FFC
381C
381C
381C
381C
381C
381C
0000
0000
0000
0000
0000
0000
ENDCHAR
STARTCHAR uni0203
ENCODING 515
SWIDTH 720 0
DWIDTH 15 0
BBX 15 30 0 -6
BITMAP
0000
0000
0000
0000
0000
0000
07E0
07E0
1C70
1810
1810
0000
07F0
07F0
1C1C
001C
001C
1FFC
381C
381C
381C
381C
381C
1FEC
0000
0000
0000
0000
0000
0000
ENDCHAR
STARTCHAR uni0204
ENCODING 516
SWIDTH 720 0
DWIDTH 15 0
BBX 15 30 0 -6
BITMAP
0000
0000
38E0
1C70
1C70
0000
3FFC
3FFC
3800
3800
3800
3800
3800
3800
3FE0
3800
3800
3800
3800
3800
3800
3800
3800
3FFC
0000
0000
0000
0000
0000
0000
ENDCHAR
STARTCHAR uni0205
ENCODING 517
SWIDTH 720 0
DWIDTH 15 0
BBX 15 30 0 -6
BITMAP
0000
0000
0000
0000
0000
0000
0000
0000
38E0
1C70
1C70
0000
07E0
07E0
1C70
381C
381C
3FFC
3800
3800
3800
1C1C
1C1C
07F0
0000
0000
0000
0000
0000
0000
ENDCHAR
STARTCHAR uni0206
ENCODING 518
SWIDTH 720 0
DWIDTH 15 0
BBX 15 30 0 -6
BITMAP
0000
0000
07E0
1C70
1C70
1810
0000
0000
3FFC
3800
3800
3800
3800
3800
3800
3FE0
3FE0
3800
3800
3800
3800
3800
3800
3FFC
0000
0000
0000
0000
0000
0000
ENDCHAR
STARTCHAR uni0207
ENCODING 519
SWIDTH 720 0
DWIDTH 15 0
BBX 15 30 0 -6
BITMAP
0000
0000
0000
0000
0000
0000
07E0
07E0
1C70
1810
1810
0000
07E0
07E0
1C70
381C
381C
3FFC
3800
3800
3800
1C1C
1C1C
07F0
0000
0000
0000
0000
0000
0000
ENDCHAR
STARTCHAR uni0208
ENCODING 520
SWIDTH 720 0
DWIDTH 15 0
BBX 15 30 0 -6
BITMAP
0000
0000
38E0
1C70
1C70
0000
3FFC
3FFC
0380
0380
0380
0380
0380
0380
0380
0380
0380
0380
0380
0380
0380
0380
0380
3FFC
0000
0000
0000
0000
0000
0000
ENDCHAR
STARTCHAR uni0209
ENCODING 521
SWIDTH 720 0
DWIDTH 15 0
BBX 15 30 0 -6
BITMAP
0000
0000
0000
0000
0000
0000
0000
0000
38E0
1C70
1C70
0000
1F80
1F80
0380
0380
0380
0380
0380
0380
0380
0380
0380
3FFC
0000
0000
0000
0000
0000
0000
ENDCHAR
STARTCHAR uni020A
ENCODING 522
SWIDTH 720 0
DWIDTH 15 0
BBX 15 30 0 -6
BITMAP
0000
0000
07E0
1C70
1C70
1810
0000
0000
3FFC
0380
0380
0380
0380
0380
0380
0380
0380
0380
0380
0380
0380
0380
0380
3FFC
0000
0000
0000
0000
0000
0000
ENDCHAR
STARTCHAR uni020B
ENCODING 523
SWIDTH 720 0
DWIDTH 15 0
BBX 15 30 0 -6
BITMAP
0000
0000
0000
0000
0000
0000
07E0
07E0
1C70
1810
1810
0000
1F80
1F80
0380
0380
0380
0380
0380
0380
0380
0380
0380
3FFC
0000
0000
0000
0000
0000
0000
ENDCHAR
STARTCHAR uni020C
ENCODING 524
SWIDTH 720 0
DWIDTH 15 0
BBX 15 30 0 -6
BITMAP
0000
0000
38E0
1C70
1C70
0000
07E0
07E0
1C70
381C
381C
381C
381C
381C
381C
381C
381C
381C
381C
381C
381C
1C70
1C70
07E0
0000
0000
0000
0000
0000
0000
ENDCHAR
STARTCHAR uni020D
ENCODING 525
SWIDTH 720 0
DWIDTH 15 0
BBX 15 30 0 -6
BITMAP
0000
0000
0000
0000
0000
0000
0000
0000
38E0
1C70
1C70
0000
07E0
07E0
1C70
381C
381C
381C
381C
381C
381C
1C70
1C70
07E0
0000
0000
0000
0000
0000
0000
ENDCHAR
STARTCHAR uni020E
ENCODING 526
SWIDTH 720 0
DWIDTH 15 0
BBX 15 30 0 -6
BITMAP
0000
0000
07E0
1C70
1C70
1810
0000
0000
07E0
1C70
1C70
381C
381C
381C
381C
381C
381C
381C
381C
381C
381C
1C70
1C70
07E0
0000
0000
0000
0000
0000
0000
ENDCHAR
STARTCHAR uni020F
ENCODING 527
SWIDTH 720 0
DWIDTH 15 0
BBX 15 30 0 -6
BITMAP
0000
0000
0000
0000
0000
0000
07E0
07E0
1C70
1810
1810
0000
07E0
07E0
1C70
381C
381C
381C
381C
381C
381C
1C70
1C70
07E0
0000
0000
0000
0000
0000
0000
ENDCHAR
STARTCHAR uni0210
ENCODING 528
SWIDTH 720 0
DWIDTH 15 0
BBX 15 30 0 -6
BITMAP
0000
0000
38E0
1C70
1C70
0000
3FE0
3FE0
3870
381C
381C
381C
381C
381C
3870
3FE0
3FE0
38E0
3870
3870
3870
381C
381C
381C
0000
0000
0000
0000
0000
0000
ENDCHAR
STARTCHAR uni0211
ENCODING 529
SWIDTH 720 0
DWIDTH 15 0
BBX 15 30 0 -6
BITMAP
0000
0000
0000
0000
0000
0000
0000
0000
38E0
1C70
1C70
0000
3BF0
3BF0
1F1C
1C00
1C00
1C00
1C00
1C00
1C00
1C00
1C00
1C00
0000
0000
0000
0000
0000
0000
ENDCHAR
STARTCHAR uni0212
ENCODING 530
SWIDTH 720 0
DWIDTH 15 0
BBX 15 30 0 -6
BITMAP
0000
0000
07E0
1C70
1C70
1810
0000
0000
3FE0
3870
3870
381C
381C
381C
3870
3FE0
3FE0
38E0
3870
3870
3870
381C
381C
381C
0000
0000
0000
0000
0000
0000
ENDCHAR
STARTCHAR uni0213
ENCODING 531
SWIDTH 720 0
DWIDTH 15 0
BBX 15 30 0 -6
BITMAP
0000
0000
0000
0000
0000
0000
07E0
07E0
1C70
1810
1810
0000
3BF0
3BF0
1F1C
1C00
1C00
1C00
1C00
1C00
1C00
1C00
1C00
1C00
0000
0000
0000
0000
0000
0000
ENDCHAR
STARTCHAR uni0214
ENCODING 532
SWIDTH 720 0
DWIDTH 15 0
BBX 15 30 0 -6
BITMAP
0000
0000
38E0
1C70
1C70
0000
381C
381C
381C
381C
381C
381C
381C
381C
381C
381C
381C
381C
381C
381C
381C
1C70
1C70
07E0
0000
0000
0000
0000
0000
0000
ENDCHAR
STARTCHAR uni0215
ENCODING 533
SWIDTH 720 0
DWIDTH 15 0
BBX 15 30 0 -6
BITMAP
0000
0000
0000
0000
0000
0000
0000
0000
38E0
1C70
1C70
0000
381C
381C
381C
381C
381C
381C
381C
381C
381C
1C7C
1C7C
079C
0000
0000
0000
0000
0000
0000
ENDCHAR
STARTCHAR uni0216
ENCODING 534
SWIDTH 720 0
DWIDTH 15 0
BBX 15 30 0 -6
BITMAP
0000
0000
07E0
1C70
1C70
1810
0000
0000
381C
381C
381C
381C
381C
381C
381C
381C
381C
381C
381C
381C
381C
1C70
1C70
07E0
0000
0000
0000
0000
0000
0000
ENDCHAR
STARTCHAR uni0217
ENCODING 535
SWIDTH 720 0
DWIDTH 15 0
BBX 15 30 0 -6
BITMAP
0000
0000
0000
0000
0000
0000
07E0
07E0
1C70
1810
1810
0000
381C
381C
381C
381C
381C
381C
381C
381C
381C
1C7C
1C7C
079C
0000
0000
0000
0000
0000
0000
ENDCHAR
STARTCHAR Scommaaccent
ENCODING 536
SWIDTH 720 0
DWIDTH 15 0
BBX 15 30 0 -6
BITMAP
0000
0000
0000
0000
0000
07E0
1C70
1C70
381C
3800
3800
3800
1C00
1C00
07E0
0070
0070
001C
001C
001C
381C
1C70
1C70
07E0
0000
0000
03E0
03E0
03E0
0780
ENDCHAR
STARTCHAR scommaaccent
ENCODING 537
SWIDTH 720 0
DWIDTH 15 0
BBX 15 30 0 -6
BITMAP
0000
0000
0000
0000
0000
0000
0000
0000
0000
0000
0000
0000
1FF0
1FF0
381C
3800
3800
1FF0
001C
001C
001C
381C
381C
1FF0
0000
0000
03E0
03E0
03E0
0780
ENDCHAR
STARTCHAR Tcommaaccent
ENCODING 538
SWIDTH 720 0
DWIDTH 15 0
BBX 15 30 0 -6
BITMAP
0000
0000
0000
0000
0000
3FFC
0380
0380
0380
0380
0380
0380
0380
0380
0380
0380
0380
0380
0380
0380
0380
0380
0380
0380
0000
0000
03E0
03E0
03E0
0780
ENDCHAR
STARTCHAR tcommaaccent
ENCODING 539
SWIDTH 720 0
DWIDTH 15 0
BBX 15 30 0 -6
BITMAP
0000
0000
0000
0000
0000
0000
0000
0000
0700
0700
0700
0700
3FE0
3FE0
0700
0700
0700
0700
0700
0700
0700
071C
071C
03F0
0000
0000
03E0
03E0
03E0
0780
ENDCHAR
STARTCHAR uni021C
ENCODING 540
SWIDTH 720 0
DWIDTH 15 0
BBX 15 30 0 -6
BITMAP
0000
0000
0000
0000
0000
07E0
1C70
1C70
0070
0070
0070
00E0
03E0
03E0
0770
1C1C
1C1C
001C
0070
0070
00E0
0780
0780
3C00
0000
0000
0000
0000
0000
0000
ENDCHAR
STARTCHAR uni021D
ENCODING 541
SWIDTH 720 0
DWIDTH 15 0
BBX 15 30 0 -6
BITMAP
0000
0000
0000
0000
0000
0000
0000
0000
0000
0000
0000
0000
07E0
07E0
1C70
0070
0070
0070
00E0
00E0
03E0
0770
0770
1C1C
001C
001C
0070
00E0
00E0
1F80
ENDCHAR
STARTCHAR uni021E
ENCODING 542
SWIDTH 720 0
DWIDTH 15 0
BBX 15 30 0 -6
BITMAP
0000
0000
1C70
07E0
07E0
0380
381C
381C
381C
381C
381C
381C
381C
381C
3FFC
381C
381C
381C
381C
381C
381C
381C
381C
381C
0000
0000
0000
0000
0000
0000
ENDCHAR
STARTCHAR uni021F
ENCODING 543
SWIDTH 720 0
DWIDTH 15 0
BBX 15 30 0 -6
BITMAP
0000
0000
1C70
07E0
07E0
0380
3800
3800
3800
3800
3800
3800
3BE0
3BE0
3C70
381C
381C
381C
381C
381C
381C
381C
381C
381C
0000
0000
0000
0000
0000
0000
ENDCHAR
STARTCHAR uni0220
ENCODING 544
SWIDTH 720 0
DWIDTH 15 0
BBX 15 30 0 -6
BITMAP
0000
0000
0000
0000
0000
3BE0
3C70
3C70
381C
381C
381C
381C
381C
381C
381C
381C
381C
381C
381C
381C
381C
381C
381C
381C
001C
001C
001C
001C
001C
001C
ENDCHAR
STARTCHAR uni0221
ENCODING 545
SWIDTH 720 0
DWIDTH 15 0
BBX 15 30 0 -6
BITMAP
0000
0000
0000
0000
0000
00E0
00E0
00E0
00E0
00E0
00E0
00E0
04E0
04E0
1FE0
38E0
38E0
38E0
38E0
38E0
38FC
1FEC
1FEC
07EC
0070
0070
0080
0000
0000
0000
ENDCHAR
STARTCHAR uni0222
ENCODING 546
SWIDTH 720 0
DWIDTH 15 0
BBX 15 30 0 -6
BITMAP
0000
0000
0000
0000
0000
00E0
0070
0070
1C1C
381C
381C
381C
1C70
1C70
07E0
1C70
1C70
381C
381C
381C
381C
1C70
1C70
07E0
0000
0000
0000
0000
0000
0000
ENDCHAR
STARTCHAR uni0223
ENCODING 547
SWIDTH 720 0
DWIDTH 15 0
BBX 15 30 0 -6
BITMAP
0000
0000
0000
0000
0000
0000
0000
0000
0000
1C70
1C70
381C
381C
381C
1C70
07E0
07E0
1C70
381C
381C
381C
1C70
1C70
07E0
0000
0000
0000
0000
0000
0000
ENDCHAR
STARTCHAR uni0224
ENCODING 548
SWIDTH 720 0
DWIDTH 15 0
BBX 15 30 0 -6
BITMAP
0000
0000
0000
0000
0000
3FFC
001C
001C
001C
0070
0070
00E0
00E0
00E0
0380
0700
0700
0700
1C00
1C00
3800
3800
3800
3FFC
000E
000E
001C
0010
0010
0000
ENDCHAR
STARTCHAR uni0225
ENCODING 549
SWIDTH 720 0
DWIDTH 15 0
BBX 15 30 0 -6
BITMAP
0000
0000
0000
0000
0000
0000
0000
0000
0000
0000
0000
0000
1FFC
1FFC
001C
0070
0070
00E0
0380
0380
0700
1C00
1C00
1FFC
000E
000E
001C
0010
0010
0000
ENDCHAR
STARTCHAR uni0226
ENCODING 550
SWIDTH 720 0
DWIDTH 15 0
BBX 15 30 0 -6
BITMAP
0000
0000
0380
0380
0380
0000
0380
0380
07E0
1C70
1C70
1C70
381C
381C
381C
381C
381C
3FFC
381C
381C
381C
381C
381C
381C
0000
0000
0000
0000
0000
0000
ENDCHAR
STARTCHAR uni0227
ENCODING 551
SWIDTH 720 0
DWIDTH 15 0
BBX 15 30 0 -6
BITMAP
0000
0000
0000
0000
0000
0000
0000
0000
0380
0380
0380
0000
07F0
07F0
1C1C
001C
001C
1FFC
381C
381C
381C
381C
381C
1FEC
0000
0000
0000
0000
0000
0000
ENDCHAR
STARTCHAR uni0228
ENCODING 552
SWIDTH 720 0
DWIDTH 15 0
BBX 15 30 0 -6
BITMAP
0000
0000
0000
0000
0000
3FFC
3800
3800
3800
3800
3800
3800
3800
3800
3FE0
3800
3800
3800
3800
3800
3800
3800
3800
3FFC
0380
0380
00E0
1CE0
1CE0
0780
ENDCHAR
STARTCHAR uni0229
ENCODING 553
SWIDTH 720 0
DWIDTH 15 0
BBX 15 30 0 -6
BITMAP
0000
0000
0000
0000
0000
0000
0000
0000
0000
0000
0000
0000
07E0
07E0
1C70
381C
381C
3FFC
3800
3800
3800
1C1C
1C1C
07F0
0380
0380
00E0
1CE0
1CE0
0780
ENDCHAR
STARTCHAR uni022A
ENCODING 554
SWIDTH 720 0
DWIDTH 15 0
BBX 15 30 0 -6
BITMAP
3FFC
3FFC
0000
1C70
1C70
1C70
0000
0000
07E0
1C70
1C70
381C
381C
381C
381C
381C
381C
381C
381C
381C
381C
1C70
1C70
07E0
0000
0000
0000
0000
0000
0000
ENDCHAR
STARTCHAR uni022B
ENCODING 555
SWIDTH 720 0
DWIDTH 15 0
BBX 15 30 0 -6
BITMAP
0000
0000
0000
0000
0000
3FFC
0000
0000
1C70
1C70
1C70
0000
07E0
07E0
1C70
381C
381C
381C
381C
381C
381C
1C70
1C70
07E0
0000
0000
0000
0000
0000
0000
ENDCHAR
STARTCHAR uni022C
ENCODING 556
SWIDTH 720 0
DWIDTH 15 0
BBX 15 30 0 -6
BITMAP
3FFC
3FFC
0000
0710
0710
1FF0
18E0
18E0
0000
07E0
07E0
1C70
381C
381C
381C
381C
381C
381C
381C
381C
381C
1C70
1C70
07E0
0000
0000
0000
0000
0000
0000
ENDCHAR
STARTCHAR uni022D
ENCODING 557
SWIDTH 720 0
DWIDTH 15 0
BBX 15 30 0 -6
BITMAP
0000
0000
0000
3FFC
3FFC
0000
0710
0710
1FF0
18E0
18E0
0000
07E0
07E0
1C70
381C
381C
381C
381C
381C
381C
1C70
1C70
07E0
0000
0000
0000
0000
0000
0000
ENDCHAR
STARTCHAR uni022E
ENCODING 558
SWIDTH 720 0
DWIDTH 15 0
BBX 15 30 0 -6
BITMAP
0000
0000
0380
0380
0380
0000
07E0
07E0
1C70
381C
381C
381C
381C
381C
381C
381C
381C
381C
381C
381C
381C
1C70
1C70
07E0
0000
0000
0000
0000
0000
0000
ENDCHAR
STARTCHAR uni022F
ENCODING 559
SWIDTH 720 0
DWIDTH 15 0
BBX 15 30 0 -6
BITMAP
0000
0000
0000
0000
0000
0000
0000
0000
0380
0380
0380
0000
07E0
07E0
1C70
381C
381C
381C
381C
381C
381C
1C70
1C70
07E0
0000
0000
0000
0000
0000
0000
ENDCHAR
STARTCHAR uni0230
ENCODING 560
SWIDTH 720 0
DWIDTH 15 0
BBX 15 30 0 -6
BITMAP
3FFC
3FFC
0000
0380
0380
0380
0000
0000
07E0
1C70
1C70
381C
381C
381C
381C
381C
381C
381C
381C
381C
381C
1C70
1C70
07E0
0000
0000
0000
0000
0000
0000
ENDCHAR
STARTCHAR uni0231
ENCODING 561
SWIDTH 720 0
DWIDTH 15 0
BBX 15 30 0 -6
BITMAP
0000
0000
0000
0000
0000
3FFC
0000
0000
0380
0380
0380
0000
07E0
07E0
1C70
381C
381C
381C
381C
381C
381C
1C70
1C70
07E0
0000
0000
0000
0000
0000
0000
ENDCHAR
STARTCHAR uni0232
ENCODING 562
SWIDTH 720 0
DWIDTH 15 0
BBX 15 30 0 -6
BITMAP
0000
0000
3FFC
0000
0000
381C
381C
381C
1C70
1C70
1C70
07E0
07E0
07E0
0380
0380
0380
0380
0380
0380
0380
0380
0380
0380
0000
0000
0000
0000
0000
0000
ENDCHAR
STARTCHAR uni0233
ENCODING 563
SWIDTH 720 0
DWIDTH 15 0
BBX 15 30 0 -6
BITMAP
0000
0000
0000
0000
0000
0000
0000
0000
0000
3FFC
3FFC
0000
381C
381C
381C
381C
381C
381C
381C
381C
381C
1C7C
1C7C
079C
001C
001C
381C
1C70
1C70
07E0
ENDCHAR
STARTCHAR uni0234
ENCODING 564
SWIDTH 720 0
DWIDTH 15 0
BBX 15 30 0 -6
BITMAP
0000
0000
0000
0000
0000
3F00
0700
0700
0700
0700
0700
0700
0700
0700
0700
0700
0700
0700
0700
0700
0710
076C
076C
038C
00F0
00F0
0300
0000
0000
0000
ENDCHAR
STARTCHAR uni0235
ENCODING 565
SWIDTH 720 0
DWIDTH 15 0
BBX 15 30 0 -6
BITMAP
0000
0000
0000
0000
0000
0000
0000
0000
0000
0000
0000
0000
3B80
3B80
3CE0
38E0
38E0
38E0
38E0
38E0
38E0
38FC
38FC
38EC
00EC
00EC
0070
0080
0080
0000
ENDCHAR
STARTCHAR uni0236
ENCODING 566
SWIDTH 720 0
DWIDTH 15 0
BBX 15 30 0 -6
BITMAP
0000
0000
0000
0000
0000
0000
0000
0000
0700
0700
0700
0700
3FE0
3FE0
0700
0700
0700
0700
0700
0700
0710
07EC
07EC
038C
00F0
00F0
0300
0000
0000
0000
ENDCHAR
STARTCHAR uni0237
ENCODING 567
SWIDTH 720 0
DWIDTH 15 0
BBX 15 30 0 -6
BITMAP
0000
0000
0000
0000
0000
0000
0000
0000
0000
0000
0000
0000
00FC
00FC
001C
001C
001C
001C
001C
001C
001C
001C
001C
001C
1C1C
1C1C
1C1C
1C1C
1C1C
07F0
ENDCHAR
STARTCHAR uni0238
ENCODING 568
SWIDTH 720 0
DWIDTH 15 0
BBX 15 30 0 -6
BITMAP
0000
0000
0000
0000
0000
0380
0380
0380
0380
0380
0380
0380
1FF0
1FF0
3B9C
238C
238C
238C
238C
238C
238C
27EC
27EC
1B90
0000
0000
0000
0000
0000
0000
ENDCHAR
STARTCHAR uni0239
ENCODING 569
SWIDTH 720 0
DWIDTH 15 0
BBX 15 30 0 -6
BITMAP
0000
0000
0000
0000
0000
0000
0000
0000
0000
0000
0000
0000
1FF0
1FF0
3B9C
238C
238C
238C
238C
238C
238C
27EC
27EC
1B90
0380
0380
0380
0380
0380
0380
ENDCHAR
STARTCHAR uni023A
ENCODING 570
SWIDTH 720 0
DWIDTH 15 0
BBX 15 30 0 -6
BITMAP
0000
0000
0000
0000
0000
0000
0382
0382
07EE
1C7C
1C7C
1C70
38FC
38FC
3B9C
3F1C
3F1C
3FFC
381C
381C
F81C
F81C
F81C
381C
0000
0000
0000
0000
0000
0000
ENDCHAR
STARTCHAR uni023B
ENCODING 571
SWIDTH 720 0
DWIDTH 15 0
BBX 15 30 0 -6
BITMAP
0000
0000
0000
0000
0000
07E0
1C72
1C72
381E
381C
381C
3870
38E0
38E0
3B80
3F00
3F00
3C00
3800
3800
F81C
DC70
DC70
07E0
0000
0000
0000
0000
0000
0000
ENDCHAR
STARTCHAR uni023C
ENCODING 572
SWIDTH 720 0
DWIDTH 15 0
BBX 15 30 0 -6
BITMAP
0000
0000
0000
0000
0000
0000
0000
0000
0000
0000
0000
000E
07FC
07FC
1C7C
38E0
38E0
3B80
3F00
3F00
3C00
3C1C
3C1C
E7F0
0000
0000
0000
0000
0000
0000
ENDCHAR
STARTCHAR uni023D
ENCODING 573
SWIDTH 720 0
DWIDTH 15 0
BBX 15 30 0 -6
BITMAP
0000
0000
0000
0000
0000
3800
3800
3800
3800
3800
3800
3800
3800
3800
FF00
3800
3800
3800
3800
3800
3800
3800
3800
3FFC
0000
0000
0000
0000
0000
0000
ENDCHAR
STARTCHAR uni023E
ENCODING 574
SWIDTH 720 0
DWIDTH 15 0
BBX 15 30 0 -6
BITMAP
0000
0000
0000
0000
0000
3FFC
0380
0380
038C
039C
039C
03F0
03E0
03E0
0380
0780
0780
1F80
3B80
3B80
2380
0380
0380
0380
0000
0000
0000
0000
0000
0000
ENDCHAR
STARTCHAR uni023F
ENCODING 575
SWIDTH 720 0
DWIDTH 15 0
BBX 15 30 0 -6
BITMAP
0000
0000
0000
0000
0000
0000
0000
0000
0000
0000
0000
0000
1FF0
1FF0
381C
3800
3800
1FF0
001C
001C
001C
381C
381C
1FF0
1C00
1C00
079C
00F0
00F0
0000
ENDCHAR
STARTCHAR uni0240
ENCODING 576
SWIDTH 720 0
DWIDTH 15 0
BBX 15 30 0 -6
BITMAP
0000
0000
0000
0000
0000
0000
0000
0000
0000
0000
0000
0000
1FFC
1FFC
001C
0070
0070
00E0
0380
0380
0700
1C00
1C00
1C00
1C00
1C00
079C
00F0
00F0
0000
ENDCHAR
STARTCHAR uni0241
ENCODING 577
SWIDTH 720 0
DWIDTH 15 0
BBX 15 30 0 -6
BITMAP
0000
0000
0000
0000
0000
07E0
1C70
1C70
381C
381C
381C
001C
0070
0070
03E0
0380
0380
0380
0380
0380
0380
0380
0380
0380
0000
0000
0000
0000
0000
0000
ENDCHAR
STARTCHAR uni0242
ENCODING 578
SWIDTH 720 0
DWIDTH 15 0
BBX 15 30 0 -6
BITMAP
0000
0000
0000
0000
0000
0000
0000
0000
0000
0000
0000
0000
07E0
07E0
1C70
381C
381C
381C
0070
0070
03E0
0380
0380
0380
0000
0000
0000
0000
0000
0000
ENDCHAR
STARTCHAR uni0243
ENCODING 579
SWIDTH 720 0
DWIDTH 15 0
BBX 15 30 0 -6
BITMAP
0000
0000
0000
0000
0000
3F80
38E2
38E2
387E
387C
387C
3870
38E0
38E0
3FE0
3F70
3F70
3C1C
381C
381C
F81C
F870
F870
3FE0
0000
0000
0000
0000
0000
0000
ENDCHAR
STARTCHAR uni0244
ENCODING 580
SWIDTH 720 0
DWIDTH 15 0
BBX 15 30 0 -6
BITMAP
0000
0000
0000
0000
0000
381C
381E
381E
381E
381C
381C
387C
38FC
38FC
3B9C
3F1C
3F1C
3C1C
381C
381C
F81C
DC70
DC70
07E0
0000
0000
0000
0000
0000
0000
ENDCHAR
STARTCHAR uni0245
ENCODING 581
SWIDTH 720 0
DWIDTH 15 0
BBX 15 30 0 -6
BITMAP
0000
0000
0000
0000
0000
0380
0380
0380
0380
07E0
07E0
07E0
07E0
07E0
1C70
1C70
1C70
1C70
381C
381C
381C
381C
381C
381C
0000
0000
0000
0000
0000
0000
ENDCHAR
STARTCHAR uni0246
ENCODING 582
SWIDTH 720 0
DWIDTH 15 0
BBX 15 30 0 -6
BITMAP
0000
0000
0000
0000
0000
3FFC
3802
3802
380E
381C
381C
3870
38E0
38E0
3FF0
3F00
3F00
3C00
3800
3800
F800
F800
F800
3FFC
0000
0000
0000
0000
0000
0000
ENDCHAR
STARTCHAR uni0247
ENCODING 583
SWIDTH 720 0
DWIDTH 15 0
BBX 15 30 0 -6
BITMAP
0000
0000
0000
0000
0000
0000
0000
0000
0000
0000
0000
0000
07FC
07FC
1C70
38FC
38FC
3B9C
3FFC
3FFC
3C00
3C1C
3C1C
E7F0
0000
0000
0000
0000
0000
0000
ENDCHAR
STARTCHAR uni0248
ENCODING 584
SWIDTH 720 0
DWIDTH 15 0
BBX 15 30 0 -6
BITMAP
0000
0000
0000
0000
0000
03FE
0070
0070
0070
0070
0070
0070
0070
0070
03FE
0070
0070
0070
3870
3870
3870
1CE0
1CE0
0780
0000
0000
0000
0000
0000
0000
ENDCHAR
STARTCHAR uni0249
ENCODING 585
SWIDTH 720 0
DWIDTH 15 0
BBX 15 30 0 -6
BITMAP
0000
0000
0000
0000
0000
0000
0000
0000
001C
001C
001C
0000
00FC
00FC
001C
001C
001C
00FE
001C
001C
001C
001C
001C
001C
1C1C
1C1C
1C1C
1C1C
1C1C
07F0
ENDCHAR
STARTCHAR uni024A
ENCODING 586
SWIDTH 720 0
DWIDTH 15 0
BBX 15 30 0 -6
BITMAP
0000
0000
0000
0000
0000
07EC
1C7C
1C7C
381C
381C
381C
381C
381C
381C
381C
381C
381C
381C
381C
381C
381C
1C7C
1C7C
07FC
001C
001C
001C
001C
001C
000E
ENDCHAR
STARTCHAR uni024B
ENCODING 587
SWIDTH 720 0
DWIDTH 15 0
BBX 15 30 0 -6
BITMAP
0000
0000
0000
0000
0000
0000
0000
0000
0000
0000
0000
0000
079C
079C
1C7C
381C
381C
381C
381C
381C
381C
1C7C
1C7C
079C
001C
001C
001C
001C
001C
000E
ENDCHAR
STARTCHAR uni024C
ENCODING 588
SWIDTH 720 0
DWIDTH 15 0
BBX 15 30 0 -6
BITMAP
0000
0000
0000
0000
0000
3FE0
3870
3870
381C
381C
381C
381C
381C
381C
3870
FFE0
FFE0
38E0
3870
3870
3870
381C
381C
381C
0000
0000
0000
0000
0000
0000
ENDCHAR
STARTCHAR uni024D
ENCODING 589
SWIDTH 720 0
DWIDTH 15 0
BBX 15 30 0 -6
BITMAP
0000
0000
0000
0000
0000
0000
0000
0000
0000
0000
0000
0000
3BF0
3BF0
1F1C
1C00
1C00
3F80
1C00
1C00
1C00
1C00
1C00
1C00
0000
0000
0000
0000
0000
0000
ENDCHAR
STARTCHAR uni024E
ENCODING 590
SWIDTH 720 0
DWIDTH 15 0
BBX 15 30 0 -6
BITMAP
0000
0000
0000
0000
0000
381C
381C
381C
FFFE
1C70
1C70
07E0
07E0
07E0
0380
0380
0380
0380
0380
0380
0380
0380
0380
0380
0000
0000
0000
0000
0000
0000
ENDCHAR
STARTCHAR uni024F
ENCODING 591
SWIDTH 720 0
DWIDTH 15 0
BBX 15 30 0 -6
BITMAP
0000
0000
0000
0000
0000
0000
0000
0000
0000
0000
0000
0000
381C
381C
381C
381C
381C
FFFE
381C
381C
381C
1C7C
1C7C
079C
001C
001C
381C
1C70
1C70
07E0
ENDCHAR
STARTCHAR uni0250
ENCODING 592
SWIDTH 720 0
DWIDTH 15 0
BBX 15 30 0 -6
BITMAP
0000
0000
0000
0000
0000
0000
0000
0000
0000
0000
0000
0000
27F0
27F0
381C
381C
381C
381C
3FF0
3FF0
3800
3870
3870
1FE0
0000
0000
0000
0000
0000
0000
ENDCHAR
STARTCHAR uni0251
ENCODING 593
SWIDTH 720 0
DWIDTH 15 0
BBX 15 30 0 -6
BITMAP
0000
0000
0000
0000
0000
0000
0000
0000
0000
0000
0000
0000
07F0
07F0
1CF0
3870
3870
3870
3870
3870
3870
1CF0
1CF0
079C
0000
0000
0000
0000
0000
0000
ENDCHAR
STARTCHAR uni0252
ENCODING 594
SWIDTH 720 0
DWIDTH 15 0
BBX 15 30 0 -6
BITMAP
0000
0000
0000
0000
0000
0000
0000
0000
0000
0000
0000
0000
3BE0
3BE0
1F70
1C1C
1C1C
1C1C
1C1C
1C1C
1C1C
1F70
1F70
1FE0
0000
0000
0000
0000
0000
0000
ENDCHAR
STARTCHAR uni0253
ENCODING 595
SWIDTH 720 0
DWIDTH 15 0
BBX 15 30 0 -6
BITMAP
0000
0000
0000
0000
0000
07E0
1C00
1C00
3800
3800
3800
3800
3BE0
3BE0
3C70
381C
381C
381C
381C
381C
381C
3C70
3C70
3BE0
0000
0000
0000
0000
0000
0000
ENDCHAR
STARTCHAR uni0254
ENCODING 596
SWIDTH 720 0
DWIDTH 15 0
BBX 15 30 0 -6
BITMAP
0000
0000
0000
0000
0000
0000
0000
0000
0000
0000
0000
0000
1FE0
1FE0
3870
001C
001C
001C
001C
001C
001C
3870
3870
1FE0
0000
0000
0000
0000
0000
0000
ENDCHAR
STARTCHAR uni0255
ENCODING 597
SWIDTH 720 0
DWIDTH 15 0
BBX 15 30 0 -6
BITMAP
0000
0000
0000
0000
0000
0000
0000
0000
0000
0000
0000
0000
07F0
07F0
1C1C
3800
3800
3800
3870
3870
389C
1C9C
1C9C
07F0
0300
0300
0300
0000
0000
0000
ENDCHAR
STARTCHAR uni0256
ENCODING 598
SWIDTH 720 0
DWIDTH 15 0
BBX 15 30 0 -6
BITMAP
0000
0000
0000
0000
0000
001C
001C
001C
001C
001C
001C
001C
079C
079C
1C7C
381C
381C
381C
381C
381C
381C
1C7C
1C7C
079C
001C
001C
001C
000E
000E
0000
ENDCHAR
STARTCHAR uni0257
ENCODING 599
SWIDTH 720 0
DWIDTH 15 0
BBX 15 30 0 -6
BITMAP
0000
0000
0000
001E
001E
0070
0070
0070
0070
0070
0070
0070
0770
0770
1CF0
3870
3870
3870
3870
3870
3870
1CF0
1CF0
0770
0000
0000
0000
0000
0000
0000
ENDCHAR
STARTCHAR uni0258
ENCODING 600
SWIDTH 720 0
DWIDTH 15 0
BBX 15 30 0 -6
BITMAP
0000
0000
0000
0000
0000
0000
0000
0000
0000
0000
0000
0000
07E0
07E0
1C70
381C
381C
3FFC
001C
001C
001C
3870
3870
1FE0
0000
0000
0000
0000
0000
0000
ENDCHAR
STARTCHAR uni0259
ENCODING 601
SWIDTH 720 0
DWIDTH 15 0
BBX 15 30 0 -6
BITMAP
0000
0000
0000
0000
0000
0000
0000
0000
0000
0000
0000
0000
1FE0
1FE0
3870
001C
001C
001C
3FFC
3FFC
381C
1C70
1C70
07E0
0000
0000
0000
0000
0000
0000
ENDCHAR
STARTCHAR uni025A
ENCODING 602
SWIDTH 720 0
DWIDTH 15 0
BBX 15 30 0 -6
BITMAP
0000
0000
0000
0000
0000
0000
0000
0000
0000
0000
0000
0000
1F80
1F80
38EE
0072
0072
03F0
3C70
3C70
3870
1CE0
1CE0
0780
0000
0000
0000
0000
0000
0000
ENDCHAR
STARTCHAR uni025B
ENCODING 603
SWIDTH 720 0
DWIDTH 15 0
BBX 15 30 0 -6
BITMAP
0000
0000
0000
0000
0000
0000
0000
0000
0000
0000
0000
0000
1FF0
1FF0
381C
3800
3800
1F80
3800
3800
3800
381C
381C
1FF0
0000
0000
0000
0000
0000
0000
ENDCHAR
STARTCHAR uni025C
ENCODING 604
SWIDTH 720 0
DWIDTH 15 0
BBX 15 30 0 -6
BITMAP
0000
0000
0000
0000
0000
0000
0000
0000
0000
0000
0000
0000
1FF0
1FF0
381C
001C
001C
03F0
001C
001C
001C
381C
381C
1FF0
0000
0000
0000
0000
0000
0000
ENDCHAR
STARTCHAR uni025D
ENCODING 605
SWIDTH 720 0
DWIDTH 15 0
BBX 15 30 0 -6
BITMAP
0000
0000
0000
0000
0000
0000
0000
0000
0000
0000
0000
0000
1F80
1F80
38F2
00EC
00EC
0780
00E0
00E0
00E0
38E0
38E0
1F80
0000
0000
0000
0000
0000
0000
ENDCHAR
STARTCHAR uni025E
ENCODING 606
SWIDTH 720 0
DWIDTH 15 0
BBX 15 30 0 -6
BITMAP
0000
0000
0000
0000
0000
0000
0000
0000
0000
0000
0000
0000
1FF0
1FF0
381C
381C
381C
38F0
381C
381C
381C
381C
381C
1FF0
0000
0000
0000
0000
0000
0000
ENDCHAR
STARTCHAR uni025F
ENCODING 607
SWIDTH 720 0
DWIDTH 15 0
BBX 15 30 0 -6
BITMAP
0000
0000
0000
0000
0000
0000
0000
0000
0000
0000
0000
0000
00E0
00E0
00E0
00E0
00E0
00E0
00E0
00E0
00E0
07FC
07FC
00E0
00E0
00E0
38E0
38E0
38E0
1F80
ENDCHAR
STARTCHAR uni0260
ENCODING 608
SWIDTH 720 0
DWIDTH 15 0
BBX 15 30 0 -6
BITMAP
0000
0000
0000
0000
0000
0000
0000
0000
000E
001C
001C
001C
079C
079C
1C7C
381C
381C
381C
381C
381C
381C
1C7C
1C7C
079C
001C
001C
381C
1C70
1C70
07E0
ENDCHAR
STARTCHAR uni0261
ENCODING 609
SWIDTH 720 0
DWIDTH 15 0
BBX 15 30 0 -6
BITMAP
0000
0000
0000
0000
0000
0000
0000
0000
0000
0000
0000
0000
079C
079C
1C7C
381C
381C
381C
381C
381C
381C
1C7C
1C7C
079C
001C
001C
381C
1C70
1C70
07E0
ENDCHAR
STARTCHAR uni0262
ENCODING 610
SWIDTH 720 0
DWIDTH 15 0
BBX 15 30 0 -6
BITMAP
0000
0000
0000
0000
0000
0000
0000
0000
0000
0000
0000
0000
07E0
07E0
1C70
381C
381C
3800
38FC
38FC
381C
1C7C
1C7C
07EC
0000
0000
0000
0000
0000
0000
ENDCHAR
STARTCHAR uni0263
ENCODING 611
SWIDTH 720 0
DWIDTH 15 0
BBX 15 30 0 -6
BITMAP
0000
0000
0000
0000
0000
0000
0000
0000
0000
0000
0000
0000
381C
381C
381C
1C70
1C70
1C70
07E0
07E0
07E0
0380
0380
07E0
1C70
1C70
1C70
07E0
07E0
0000
ENDCHAR
STARTCHAR uni0264
ENCODING 612
SWIDTH 720 0
DWIDTH 15 0
BBX 15 30 0 -6
BITMAP
0000
0000
0000
0000
0000
0000
0000
0000
0000
0000
0000
0000
3870
3870
1CE0
0780
0780
0780
0780
0780
1CE0
1CE0
1CE0
0780
0000
0000
0000
0000
0000
0000
ENDCHAR
STARTCHAR uni0265
ENCODING 613
SWIDTH 720 0
DWIDTH 15 0
BBX 15 30 0 -6
BITMAP
0000
0000
0000
0000
0000
0000
0000
0000
0000
0000
0000
0000
381C
381C
381C
381C
381C
381C
381C
381C
381C
1C7C
1C7C
079C
001C
001C
001C
001C
001C
001C
ENDCHAR
STARTCHAR uni0266
ENCODING 614
SWIDTH 720 0
DWIDTH 15 0
BBX 15 30 0 -6
BITMAP
0000
0000
0000
0000
0000
07E0
1C70
1C70
3800
3800
3800
3800
3BE0
3BE0
3C70
381C
381C
381C
381C
381C
381C
381C
381C
381C
0000
0000
0000
0000
0000
0000
ENDCHAR
STARTCHAR uni0267
ENCODING 615
SWIDTH 720 0
DWIDTH 15 0
BBX 15 30 0 -6
BITMAP
0000
0000
0000
0000
0000
07E0
1C70
1C70
3800
3800
3800
3800
3BE0
3BE0
3C70
381C
381C
381C
381C
381C
381C
381C
381C
381C
001C
001C
001C
001C
001C
0070
ENDCHAR
STARTCHAR uni0268
ENCODING 616
SWIDTH 720 0
DWIDTH 15 0
BBX 15 30 0 -6
BITMAP
0000
0000
0000
0000
0000
0000
0000
0000
0380
0380
0380
0000
1F80
1F80
0380
0380
0380
1FF0
0380
0380
0380
0380
0380
3FFC
0000
0000
0000
0000
0000
0000
ENDCHAR
STARTCHAR uni0269
ENCODING 617
SWIDTH 720 0
DWIDTH 15 0
BBX 15 30 0 -6
BITMAP
0000
0000
0000
0000
0000
0000
0000
0000
0000
0000
0000
0000
0780
0780
0380
0380
0380
0380
0380
0380
0380
0380
0380
00F0
0000
0000
0000
0000
0000
0000
ENDCHAR
STARTCHAR uni026A
ENCODING 618
SWIDTH 720 0
DWIDTH 15 0
BBX 15 30 0 -6
BITMAP
0000
0000
0000
0000
0000
0000
0000
0000
0000
0000
0000
0000
3FFC
3FFC
0380
0380
0380
0380
0380
0380
0380
0380
0380
3FFC
0000
0000
0000
0000
0000
0000
ENDCHAR
STARTCHAR uni026B
ENCODING 619
SWIDTH 720 0
DWIDTH 15 0
BBX 15 30 0 -6
BITMAP
0000
0000
0000
0000
0000
1F80
0380
0380
0380
0380
0380
0380
1F8C
1F8C
3FFC
23F0
23F0
0380
0380
0380
0380
0380
0380
3FFC
0000
0000
0000
0000
0000
0000
ENDCHAR
STARTCHAR uni026C
ENCODING 620
SWIDTH 720 0
DWIDTH 15 0
BBX 15 30 0 -6
BITMAP
0000
0000
0000
0000
0000
1F80
0380
0380
0380
0380
0380
0380
1F80
1F80
3B80
1FFC
1FFC
0380
0380
0380
0380
0380
0380
3FFC
0000
0000
0000
0000
0000
0000
ENDCHAR
STARTCHAR uni026D
ENCODING 621
SWIDTH 720 0
DWIDTH 15 0
BBX 15 30 0 -6
BITMAP
0000
0000
0000
0000
0000
1F80
0380
0380
0380
0380
0380
0380
0380
0380
0380
0380
0380
0380
0380
0380
0380
0380
0380
0380
0380
0380
0380
0380
0380
00E0
ENDCHAR
STARTCHAR uni026E
ENCODING 622
SWIDTH 720 0
DWIDTH 15 0
BBX 15 30 0 -6
BITMAP
0000
0000
0000
0000
0000
3C00
1C00
1C00
1C00
1C00
1C00
1C00
1FFE
1FFE
1C0E
1C0E
1C0E
1C1C
1C70
1C70
1C1C
1C0E
1C0E
3F0E
000E
000E
1C0E
071C
071C
03F0
ENDCHAR
STARTCHAR uni026F
ENCODING 623
SWIDTH 720 0
DWIDTH 15 0
BBX 15 30 0 -6
BITMAP
0000
0000
0000
0000
0000
0000
0000
0000
0000
0000
0000
0000
3B9C
3B9C
3B9C
3B9C
3B9C
3B9C
3B9C
3B9C
3B9C
3FFC
3FFC
1CEC
0000
0000
0000
0000
0000
0000
ENDCHAR
STARTCHAR uni0270
ENCODING 624
SWIDTH 720 0
DWIDTH 15 0
BBX 15 30 0 -6
BITMAP
0000
0000
0000
0000
0000
0000
0000
0000
0000
0000
0000
0000
3B9C
3B9C
3B9C
3B9C
3B9C
3B9C
3B9C
3B9C
3B9C
3FFC
3FFC
1CFC
001C
001C
001C
001C
001C
001C
ENDCHAR
STARTCHAR uni0271
ENCODING 625
SWIDTH 720 0
DWIDTH 15 0
BBX 15 30 0 -6
BITMAP
0000
0000
0000
0000
0000
0000
0000
0000
0000
0000
0000
0000
2770
2770
3FFC
3B9C
3B9C
3B9C
3B9C
3B9C
3B9C
3B9C
3B9C
3B9C
001C
001C
001C
001C
001C
0070
ENDCHAR
STARTCHAR uni0272
ENCODING 626
SWIDTH 720 0
DWIDTH 15 0
BBX 15 30 0 -6
BITMAP
0000
0000
0000
0000
0000
0000
0000
0000
0000
0000
0000
0000
3BE0
3BE0
3C70
381C
381C
381C
381C
381C
381C
381C
381C
381C
3800
3800
3800
3800
3800
E000
ENDCHAR
STARTCHAR uni0273
ENCODING 627
SWIDTH 720 0
DWIDTH 15 0
BBX 15 30 0 -6
BITMAP
0000
0000
0000
0000
0000
0000
0000
0000
0000
0000
0000
0000
3BE0
3BE0
3C70
381C
381C
381C
381C
381C
381C
381C
381C
381C
001C
001C
001C
001C
001C
000E
ENDCHAR
STARTCHAR uni0274
ENCODING 628
SWIDTH 720 0
DWIDTH 15 0
BBX 15 30 0 -6
BITMAP
0000
0000
0000
0000
0000
0000
0000
0000
0000
0000
0000
0000
381C
381C
3C1C
3F1C
3F1C
3B9C
3B9C
3B9C
38FC
387C
387C
381C
0000
0000
0000
0000
0000
0000
ENDCHAR
STARTCHAR uni0275
ENCODING 629
SWIDTH 720 0
DWIDTH 15 0
BBX 15 30 0 -6
BITMAP
0000
0000
0000
0000
0000
0000
0000
0000
0000
0000
0000
0000
07E0
07E0
1C70
381C
381C
3FFC
381C
381C
381C
1C70
1C70
07E0
0000
0000
0000
0000
0000
0000
ENDCHAR
STARTCHAR uni0276
ENCODING 630
SWIDTH 720 0
DWIDTH 15 0
BBX 15 30 0 -6
BITMAP
0000
0000
0000
0000
0000
0000
0000
0000
0000
0000
0000
0000
1FFC
1FFC
3B80
3B80
3B80
3BF0
3B80
3B80
3B80
3B80
3B80
1FFC
0000
0000
0000
0000
0000
0000
ENDCHAR
STARTCHAR uni0277
ENCODING 631
SWIDTH 720 0
DWIDTH 15 0
BBX 15 30 0 -6
BITMAP
0000
0000
0000
0000
0000
0000
0000
0000
0000
0000
0000
0000
07E0
07E0
1C70
381C
381C
381C
3B9C
3B9C
3B9C
3B9C
3B9C
1FF0
0000
0000
0000
0000
0000
0000
ENDCHAR
STARTCHAR uni0278
ENCODING 632
SWIDTH 720 0
DWIDTH 15 0
BBX 15 30 0 -6
BITMAP
0000
0000
0000
0000
0000
0000
0380
0380
0380
0380
0380
0380
1FF0
1FF0
3B9C
3B9C
3B9C
3B9C
3B9C
3B9C
3B9C
3B9C
3B9C
1FF0
0380
0380
0380
0380
0380
0380
ENDCHAR
STARTCHAR uni0279
ENCODING 633
SWIDTH 720 0
DWIDTH 15 0
BBX 15 30 0 -6
BITMAP
0000
0000
0000
0000
0000
0000
0000
0000
0000
0000
0000
0000
0070
0070
0070
0070
0070
0070
0070
0070
0070
38F0
38F0
1F9C
0000
0000
0000
0000
0000
0000
ENDCHAR
STARTCHAR uni027A
ENCODING 634
SWIDTH 720 0
DWIDTH 15 0
BBX 15 30 0 -6
BITMAP
0000
0000
0000
0000
0000
0070
0070
0070
0070
0070
0070
0070
0070
0070
0070
0070
0070
0070
0070
0070
0070
38F0
38F0
1F9C
0000
0000
0000
0000
0000
0000
ENDCHAR
STARTCHAR uni027B
ENCODING 635
SWIDTH 720 0
DWIDTH 15 0
BBX 15 30 0 -6
BITMAP
0000
0000
0000
0000
0000
0000
0000
0000
0000
0000
0000
0000
00E0
00E0
00E0
00E0
00E0
00E0
00E0
00E0
00E0
3BE0
3BE0
1FE0
00E0
00E0
00E0
00EC
00EC
0070
ENDCHAR
STARTCHAR uni027C
ENCODING 636
SWIDTH 720 0
DWIDTH 15 0
BBX 15 30 0 -6
BITMAP
0000
0000
0000
0000
0000
0000
0000
0000
0000
0000
0000
0000
3BF0
3BF0
1F1C
1C00
1C00
1C00
1C00
1C00
1C00
1C00
1C00
1C00
1C00
1C00
1C00
1C00
1C00
1C00
ENDCHAR
STARTCHAR uni027D
ENCODING 637
SWIDTH 720 0
DWIDTH 15 0
BBX 15 30 0 -6
BITMAP
0000
0000
0000
0000
0000
0000
0000
0000
0000
0000
0000
0000
3BF0
3BF0
1F1C
1C00
1C00
1C00
1C00
1C00
1C00
1C00
1C00
1C00
1C00
1C00
1C00
1C60
1C60
0780
ENDCHAR
STARTCHAR uni027E
ENCODING 638
SWIDTH 720 0
DWIDTH 15 0
BBX 15 30 0 -6
BITMAP
0000
0000
0000
0000
0000
0000
0000
0000
0000
0000
0000
0000
03F0
03F0
071C
1C00
1C00
1C00
1C00
1C00
1C00
1C00
1C00
1C00
0000
0000
0000
0000
0000
0000
ENDCHAR
STARTCHAR uni027F
ENCODING 639
SWIDTH 720 0
DWIDTH 15 0
BBX 15 30 0 -6
BITMAP
0000
0000
0000
0000
0000
0000
0000
0000
0000
0000
0000
0000
07E0
07E0
1C70
001C
001C
001C
001C
001C
001C
001C
001C
001C
0000
0000
0000
0000
0000
0000
ENDCHAR
STARTCHAR uni0280
ENCODING 640
SWIDTH 720 0
DWIDTH 15 0
BBX 15 30 0 -6
BITMAP
0000
0000
0000
0000
0000
0000
0000
0000
0000
0000
0000
0000
3FF0
3FF0
381C
381C
381C
3870
3FE0
3FE0
3870
381C
381C
381C
0000
0000
0000
0000
0000
0000
ENDCHAR
STARTCHAR uni0281
ENCODING 641
SWIDTH 720 0
DWIDTH 15 0
BBX 15 30 0 -6
BITMAP
0000
0000
0000
0000
0000
0000
0000
0000
0000
0000
0000
0000
381C
381C
381C
3870
3870
3FE0
3870
3870
381C
381C
381C
3FF0
0000
0000
0000
0000
0000
0000
ENDCHAR
STARTCHAR uni0282
ENCODING 642
SWIDTH 720 0
DWIDTH 15 0
BBX 15 30 0 -6
BITMAP
0000
0000
0000
0000
0000
0000
0000
0000
0000
0000
0000
0000
1FF0
1FF0
381C
3800
3800
1FF0
001C
001C
001C
381C
381C
3FF0
3800
3800
3800
1C00
1C00
0780
ENDCHAR
STARTCHAR uni0283
ENCODING 643
SWIDTH 720 0
DWIDTH 15 0
BBX 15 30 0 -6
BITMAP
0000
0000
0000
0000
0000
00F0
0380
0380
0380
0380
0380
0380
0380
0380
0380
0380
0380
0380
0380
0380
0380
0380
0380
0380
0380
0380
0380
0380
0380
1F00
ENDCHAR
STARTCHAR uni0284
ENCODING 644
SWIDTH 720 0
DWIDTH 15 0
BBX 15 30 0 -6
BITMAP
0000
0000
0000
0000
0000
0000
007C
007C
00E0
00E0
00E0
00E0
00E0
00E0
00E0
00E0
00E0
00E0
00E0
00E0
00E0
07FC
07FC
00E0
00E0
00E0
38E0
38E0
38E0
1F80
ENDCHAR
STARTCHAR uni0285
ENCODING 645
SWIDTH 720 0
DWIDTH 15 0
BBX 15 30 0 -6
BITMAP
0000
0000
0000
0000
0000
0000
0000
0000
0000
0000
0000
0000
1F00
1F00
0380
0380
0380
0380
0380
0380
0380
0380
0380
0380
0380
0380
0380
0380
0380
00F0
ENDCHAR
STARTCHAR uni0286
ENCODING 646
SWIDTH 720 0
DWIDTH 15 0
BBX 15 30 0 -6
BITMAP
0000
0000
0000
0000
0000
00F0
0380
0380
0380
0380
0380
0380
0380
0380
0380
0380
0380
0380
0380
0380
0380
0380
0380
0380
1FF0
1FF0
3B9C
3B9C
3B9C
1F00
ENDCHAR
STARTCHAR uni0287
ENCODING 647
SWIDTH 720 0
DWIDTH 15 0
BBX 15 30 0 -6
BITMAP
0000
0000
0000
0000
0000
0000
0000
0000
0000
0000
0000
0000
1F80
1F80
38E0
00E0
00E0
00E0
00E0
00E0
00E0
00E0
00E0
07FC
00E0
00E0
00E0
00E0
00E0
00E0
ENDCHAR
STARTCHAR uni0288
ENCODING 648
SWIDTH 720 0
DWIDTH 15 0
BBX 15 30 0 -6
BITMAP
0000
0000
0000
0000
0000
0000
0000
0000
0700
0700
0700
0700
3FE0
3FE0
0700
0700
0700
0700
0700
0700
0700
0700
0700
0700
0700
0700
0700
0700
0700
03E0
ENDCHAR
STARTCHAR uni0289
ENCODING 649
SWIDTH 720 0
DWIDTH 15 0
BBX 15 30 0 -6
BITMAP
0000
0000
0000
0000
0000
0000
0000
0000
0000
0000
0000
0000
381C
381C
381C
381C
381C
FFFE
381C
381C
381C
1C7C
1C7C
079C
0000
0000
0000
0000
0000
0000
ENDCHAR
STARTCHAR uni028A
ENCODING 650
SWIDTH 720 0
DWIDTH 15 0
BBX 15 30 0 -6
BITMAP
0000
0000
0000
0000
0000
0000
0000
0000
0000
0000
0000
0000
3C7C
3C7C
1C70
381C
381C
381C
381C
381C
381C
1C70
1C70
07E0
0000
0000
0000
0000
0000
0000
ENDCHAR
STARTCHAR uni028B
ENCODING 651
SWIDTH 720 0
DWIDTH 15 0
BBX 15 30 0 -6
BITMAP
0000
0000
0000
0000
0000
0000
0000
0000
0000
0000
0000
0000
38E0
38E0
3870
3870
3870
381C
381C
381C
387C
3FF0
3FF0
1FE0
0000
0000
0000
0000
0000
0000
ENDCHAR
STARTCHAR uni028C
ENCODING 652
SWIDTH 720 0
DWIDTH 15 0
BBX 15 30 0 -6
BITMAP
0000
0000
0000
0000
0000
0000
0000
0000
0000
0000
0000
0000
0380
0380
0380
07E0
07E0
07E0
1C70
1C70
1C70
381C
381C
381C
0000
0000
0000
0000
0000
0000
ENDCHAR
STARTCHAR uni028D
ENCODING 653
SWIDTH 720 0
DWIDTH 15 0
BBX 15 30 0 -6
BITMAP
0000
0000
0000
0000
0000
0000
0000
0000
0000
0000
0000
0000
1C70
1C70
3FFC
3B9C
3B9C
3B9C
3B9C
3B9C
381C
381C
381C
381C
0000
0000
0000
0000
0000
0000
ENDCHAR
STARTCHAR uni028E
ENCODING 654
SWIDTH 720 0
DWIDTH 15 0
BBX 15 30 0 -6
BITMAP
0000
0000
0000
0000
0000
0000
00F0
00F0
039C
039C
039C
0700
0700
0700
0780
1FE0
1FE0
1CE0
1C70
1C70
3870
381C
381C
381C
0000
0000
0000
0000
0000
0000
ENDCHAR
STARTCHAR uni028F
ENCODING 655
SWIDTH 720 0
DWIDTH 15 0
BBX 15 30 0 -6
BITMAP
0000
0000
0000
0000
0000
0000
0000
0000
0000
0000
0000
0000
381C
381C
381C
1C70
1C70
07E0
0380
0380
0380
0380
0380
0380
0000
0000
0000
0000
0000
0000
ENDCHAR
STARTCHAR uni0290
ENCODING 656
SWIDTH 720 0
DWIDTH 15 0
BBX 15 30 0 -6
BITMAP
0000
0000
0000
0000
0000
0000
0000
0000
0000
0000
0000
0000
1FFC
1FFC
001C
0070
0070
00E0
0380
0380
0700
1C00
1C00
1FFC
001C
001C
001C
001C
001C
000E
ENDCHAR
STARTCHAR uni0291
ENCODING 657
SWIDTH 720 0
DWIDTH 15 0
BBX 15 30 0 -6
BITMAP
0000
0000
0000
0000
0000
0000
0000
0000
0000
0000
0000
0000
1FFC
1FFC
001C
0070
0070
00E0
0380
0380
0770
1C8C
1C8C
1FF0
0300
0300
0300
0000
0000
0000
ENDCHAR
STARTCHAR uni0292
ENCODING 658
SWIDTH 720 0
DWIDTH 15 0
BBX 15 30 0 -6
BITMAP
0000
0000
0000
0000
0000
0000
0000
0000
0000
0000
0000
0000
1FFC
1FFC
001C
0070
0070
00E0
0380
0380
07F0
001C
001C
001C
381C
381C
381C
1C70
1C70
07E0
ENDCHAR
STARTCHAR uni0293
ENCODING 659
SWIDTH 720 0
DWIDTH 15 0
BBX 15 30 0 -6
BITMAP
0000
0000
0000
0000
0000
0000
0000
0000
0000
0000
0000
0000
1FFC
1FFC
001C
0070
0070
00E0
0380
0380
07F0
001C
001C
1F1C
3B9C
3B9C
38F0
1C70
1C70
079C
ENDCHAR
STARTCHAR uni0294
ENCODING 660
SWIDTH 720 0
DWIDTH 15 0
BBX 15 30 0 -6
BITMAP
0000
0000
0000
0000
0000
07E0
1C70
1C70
381C
381C
381C
001C
0070
0070
03E0
0380
0380
0380
0380
0380
0380
0380
0380
0380
0000
0000
0000
0000
0000
0000
ENDCHAR
STARTCHAR uni0295
ENCODING 661
SWIDTH 720 0
DWIDTH 15 0
BBX 15 30 0 -6
BITMAP
0000
0000
0000
0000
0000
07E0
1C70
1C70
381C
381C
381C
3800
1C00
1C00
0780
0380
0380
0380
0380
0380
0380
0380
0380
0380
0000
0000
0000
0000
0000
0000
ENDCHAR
STARTCHAR uni0296
ENCODING 662
SWIDTH 720 0
DWIDTH 15 0
BBX 15 30 0 -6
BITMAP
0000
0000
0000
0000
0000
0380
0380
0380
0380
0380
0380
0380
0380
0380
03E0
0070
0070
001C
381C
381C
381C
1C70
1C70
07E0
0000
0000
0000
0000
0000
0000
ENDCHAR
STARTCHAR uni0297
ENCODING 663
SWIDTH 720 0
DWIDTH 15 0
BBX 15 30 0 -6
BITMAP
0000
0000
0000
0000
0000
0000
0000
0000
0000
07F0
07F0
1C1C
3800
3800
3800
3800
3800
3800
3800
3800
3800
3800
3800
3800
1C1C
1C1C
07F0
0000
0000
0000
ENDCHAR
STARTCHAR uni0298
ENCODING 664
SWIDTH 720 0
DWIDTH 15 0
BBX 15 30 0 -6
BITMAP
0000
0000
0000
0000
0000
0000
0000
0000
0000
0000
0000
0000
07E0
07E0
1C70
381C
381C
3B9C
3B9C
3B9C
381C
1C70
1C70
07E0
0000
0000
0000
0000
0000
0000
ENDCHAR
STARTCHAR uni0299
ENCODING 665
SWIDTH 720 0
DWIDTH 15 0
BBX 15 30 0 -6
BITMAP
0000
0000
0000
0000
0000
0000
0000
0000
0000
0000
0000
0000
3FF0
3FF0
381C
381C
381C
3FF0
381C
381C
381C
381C
381C
3FF0
0000
0000
0000
0000
0000
0000
ENDCHAR
STARTCHAR uni029A
ENCODING 666
SWIDTH 720 0
DWIDTH 15 0
BBX 15 30 0 -6
BITMAP
0000
0000
0000
0000
0000
0000
0000
0000
0000
0000
0000
0000
1FF0
1FF0
381C
381C
381C
1F1C
381C
381C
381C
381C
381C
1FF0
0000
0000
0000
0000
0000
0000
ENDCHAR
STARTCHAR uni029B
ENCODING 667
SWIDTH 720 0
DWIDTH 15 0
BBX 15 30 0 -6
BITMAP
0000
0000
0000
0000
0000
0000
0000
0000
000E
001C
001C
001C
07FC
07FC
1C1C
3800
3800
3800
38FC
38FC
381C
1C7C
1C7C
07EC
0000
0000
0000
0000
0000
0000
ENDCHAR
STARTCHAR uni029C
ENCODING 668
SWIDTH 720 0
DWIDTH 15 0
BBX 15 30 0 -6
BITMAP
0000
0000
0000
0000
0000
0000
0000
0000
0000
0000
0000
0000
381C
381C
381C
381C
381C
3FFC
381C
381C
381C
381C
381C
381C
0000
0000
0000
0000
0000
0000
ENDCHAR
STARTCHAR uni029D
ENCODING 669
SWIDTH 720 0
DWIDTH 15 0
BBX 15 30 0 -6
BITMAP
0000
0000
0000
0000
0000
0000
0000
0000
0070
0070
0070
0000
03F0
03F0
0070
0070
0070
0070
0070
0070
0070
0070
0070
1F70
3BF0
3BF0
38F0
387C
387C
1FEE
ENDCHAR
STARTCHAR uni029E
ENCODING 670
SWIDTH 720 0
DWIDTH 15 0
BBX 15 30 0 -6
BITMAP
0000
0000
0000
0000
0000
0000
0000
0000
0000
0000
0000
0000
381C
381C
1C1C
071C
071C
03FC
00FC
00FC
039C
071C
071C
1C1C
001C
001C
001C
001C
001C
001C
ENDCHAR
STARTCHAR uni029F
ENCODING 671
SWIDTH 720 0
DWIDTH 15 0
BBX 15 30 0 -6
BITMAP
0000
0000
0000
0000
0000
0000
0000
0000
0000
0000
0000
0000
1C00
1C00
1C00
1C00
1C00
1C00
1C00
1C00
1C00
1C00
1C00
1FF0
0000
0000
0000
0000
0000
0000
ENDCHAR
STARTCHAR uni02A0
ENCODING 672
SWIDTH 720 0
DWIDTH 15 0
BBX 15 30 0 -6
BITMAP
0000
0000
0000
0000
0000
000E
001C
001C
001C
001C
001C
001C
079C
079C
1C7C
381C
381C
381C
381C
381C
381C
1C7C
1C7C
079C
001C
001C
001C
001C
001C
001C
ENDCHAR
STARTCHAR uni02A1
ENCODING 673
SWIDTH 720 0
DWIDTH 15 0
BBX 15 30 0 -6
BITMAP
0000
0000
0000
0000
0000
07E0
1C70
1C70
381C
381C
381C
001C
0070
0070
03E0
0380
0380
0380
1FF0
1FF0
0380
0380
0380
0380
0000
0000
0000
0000
0000
0000
ENDCHAR
STARTCHAR uni02A2
ENCODING 674
SWIDTH 720 0
DWIDTH 15 0
BBX 15 30 0 -6
BITMAP
0000
0000
0000
0000
0000
07E0
1C70
1C70
381C
381C
381C
3800
1C00
1C00
0780
0380
0380
0380
1FF0
1FF0
0380
0380
0380
0380
0000
0000
0000
0000
0000
0000
ENDCHAR
STARTCHAR uni02A3
ENCODING 675
SWIDTH 720 0
DWIDTH 15 0
BBX 15 30 0 -6
BITMAP
0000
0000
0000
0000
0000
0380
0380
0380
0380
0380
0380
0380
3BFE
3BFE
E78E
E38E
E38E
E39C
E39C
E39C
E3F0
E7F0
E7F0
3BFE
0000
0000
0000
0000
0000
0000
ENDCHAR
STARTCHAR uni02A4
ENCODING 676
SWIDTH 720 0
DWIDTH 15 0
BBX 15 30 0 -6
BITMAP
0000
0000
0000
0000
0000
0380
0380
0380
0380
0380
0380
0380
3BFE
3BFE
E78E
E38E
E38E
E39C
E3F0
E3F0
E39C
E78E
E78E
3B8E
000E
000E
000E
071C
071C
03F0
ENDCHAR
STARTCHAR uni02A5
ENCODING 677
SWIDTH 720 0
DWIDTH 15 0
BBX 15 30 0 -6
BITMAP
0000
0000
0000
0000
0000
0700
0700
0700
0700
0700
0700
0700
3FFE
3FFE
E70E
E71C
E71C
E770
E7EC
E7EC
E792
E712
E712
3FFC
0060
0060
0060
0000
0000
0000
ENDCHAR
STARTCHAR uni02A6
ENCODING 678
SWIDTH 720 0
DWIDTH 15 0
BBX 15 30 0 -6
BITMAP
0000
0000
0000
0000
0000
0000
0000
0000
3800
3800
3800
3800
FFF0
FFF0
3B9C
3B80
3B80
38E0
3870
3870
381C
381C
381C
1FF0
0000
0000
0000
0000
0000
0000
ENDCHAR
STARTCHAR uni02A7
ENCODING 679
SWIDTH 720 0
DWIDTH 15 0
BBX 15 30 0 -6
BITMAP
0000
0000
0000
0000
0000
001E
0070
0070
3870
3870
3870
3870
FFF0
FFF0
3870
3870
3870
3870
3870
3870
3870
3870
3870
1F70
0070
0070
0070
0070
0070
03E0
ENDCHAR
STARTCHAR uni02A8
ENCODING 680
SWIDTH 720 0
DWIDTH 15 0
BBX 15 30 0 -6
BITMAP
0000
0000
0000
0000
0000
0000
0000
0000
3800
3800
3800
3800
FFFC
FFFC
38EE
3B80
3B80
3B80
3B8C
3B8C
3B92
3892
3892
1FFC
0060
0060
0060
0000
0000
0000
ENDCHAR
STARTCHAR uni02A9
ENCODING 681
SWIDTH 720 0
DWIDTH 15 0
BBX 15 30 0 -6
BITMAP
0000
0000
0000
0000
0000
1F80
38E0
38E0
38E0
3800
3800
3800
FFF0
FFF0
3B9C
3B9C
3B9C
3B9C
3B9C
3B9C
3B9C
3B9C
3B9C
3B9C
001C
001C
001C
001C
001C
0070
ENDCHAR
STARTCHAR uni02AA
ENCODING 682
SWIDTH 720 0
DWIDTH 15 0
BBX 15 30 0 -6
BITMAP
0000
0000
0000
0000
0000
3C00
1C00
1C00
1C00
1C00
1C00
1C00
1CF0
1CF0
1F9C
1F80
1F80
1CF0
1C1C
1C1C
1C1C
1C1C
1C1C
3FF0
0000
0000
0000
0000
0000
0000
ENDCHAR
STARTCHAR uni02AB
ENCODING 683
SWIDTH 720 0
DWIDTH 15 0
BBX 15 30 0 -6
BITMAP
0000
0000
0000
0000
0000
3C00
1C00
1C00
1C00
1C00
1C00
1C00
1FFC
1FFC
1C1C
1C70
1C70
1C70
1CE0
1CE0
1CE0
1F80
1F80
3FFC
0000
0000
0000
0000
0000
0000
ENDCHAR
STARTCHAR uni02AC
ENCODING 684
SWIDTH 720 0
DWIDTH 15 0
BBX 15 30 0 -6
BITMAP
0000
0000
0000
0000
0000
381C
381C
381C
3B9C
3B9C
3B9C
3FFC
1C70
1C70
0000
381C
381C
381C
3B9C
3B9C
3B9C
3FFC
3FFC
1C70
0000
0000
0000
0000
0000
0000
ENDCHAR
STARTCHAR uni02AD
ENCODING 685
SWIDTH 720 0
DWIDTH 15 0
BBX 15 30 0 -6
BITMAP
0000
0000
0000
0000
0000
0000
0000
0000
0000
3FFC
3FFC
381C
381C
381C
0000
0000
0000
3FFC
381C
381C
381C
0000
0000
0000
0000
0000
0000
0000
0000
0000
ENDCHAR
STARTCHAR uni02AE
ENCODING 686
SWIDTH 720 0
DWIDTH 15 0
BBX 15 30 0 -6
BITMAP
0000
0000
0000
0000
0000
0000
0000
0000
0000
0000
0000
0000
1C1C
1C1C
271C
071C
071C
071C
071C
071C
071C
037C
037C
009C
001C
001C
001C
001C
001C
001C
ENDCHAR
STARTCHAR uni02AF
ENCODING 687
SWIDTH 720 0
DWIDTH 15 0
BBX 15 30 0 -6
BITMAP
0000
0000
0000
0000
0000
0000
0000
0000
0000
0000
0000
0000
1860
1860
2460
0460
0460
0460
0460
0460
0460
04E0
04E0
0360
0060
0060
0060
006C
006C
0010
ENDCHAR
STARTCHAR uni02B0
ENCODING 688
SWIDTH 720 0
DWIDTH 15 0
BBX 15 30 0 -6
BITMAP
0000
0000
0000
3800
3800
3800
3B80
3B80
3CE0
38E0
38E0
38E0
38E0
38E0
38E0
0000
0000
0000
0000
0000
0000
0000
0000
0000
0000
0000
0000
0000
0000
0000
ENDCHAR
STARTCHAR uni02B1
ENCODING 689
SWIDTH 720 0
DWIDTH 15 0
BBX 15 30 0 -6
BITMAP
0000
0000
1F00
3800
3800
3800
3B80
3B80
3CE0
38E0
38E0
38E0
38E0
38E0
38E0
0000
0000
0000
0000
0000
0000
0000
0000
0000
0000
0000
0000
0000
0000
0000
ENDCHAR
STARTCHAR uni02B2
ENCODING 690
SWIDTH 720 0
DWIDTH 15 0
BBX 15 30 0 -6
BITMAP
0000
0000
00E0
00E0
00E0
0000
07E0
07E0
00E0
00E0
00E0
00E0
38E0
38E0
38E0
1F80
1F80
0000
0000
0000
0000
0000
0000
0000
0000
0000
0000
0000
0000
0000
ENDCHAR
STARTCHAR uni02B3
ENCODING 691
SWIDTH 720 0
DWIDTH 15 0
BBX 15 30 0 -6
BITMAP
0000
0000
0000
0000
0000
0000
3B80
3B80
3CE0
3800
3800
3800
3800
3800
3800
0000
0000
0000
0000
0000
0000
0000
0000
0000
0000
0000
0000
0000
0000
0000
ENDCHAR
STARTCHAR uni02B4
ENCODING 692
SWIDTH 720 0
DWIDTH 15 0
BBX 15 30 0 -6
BITMAP
0000
0000
0000
0000
0000
0000
00E0
00E0
00E0
00E0
00E0
00E0
3BE0
3BE0
1CE0
0000
0000
0000
0000
0000
0000
0000
0000
0000
0000
0000
0000
0000
0000
0000
ENDCHAR
STARTCHAR uni02B5
ENCODING 693
SWIDTH 720 0
DWIDTH 15 0
BBX 15 30 0 -6
BITMAP
0000
0000
0000
0000
0000
0000
00E0
00E0
00E0
00E0
00E0
00E0
3BE0
3BE0
1CE0
00E0
00E0
0070
0000
0000
0000
0000
0000
0000
0000
0000
0000
0000
0000
0000
ENDCHAR
STARTCHAR uni02B6
ENCODING 694
SWIDTH 720 0
DWIDTH 15 0
BBX 15 30 0 -6
BITMAP
0000
0000
0000
0000
0000
0000
3870
3870
3870
3FE0
3FE0
3870
3870
3870
3FE0
0000
0000
0000
0000
0000
0000
0000
0000
0000
0000
0000
0000
0000
0000
0000
ENDCHAR
STARTCHAR uni02B7
ENCODING 695
SWIDTH 720 0
DWIDTH 15 0
BBX 15 30 0 -6
BITMAP
0000
0000
0000
0000
0000
0000
3B9C
3B9C
3B9C
3B9C
3B9C
3B9C
1FF0
1FF0
1C70
0000
0000
0000
0000
0000
0000
0000
0000
0000
0000
0000
0000
0000
0000
0000
ENDCHAR
STARTCHAR uni02B8
ENCODING 696
SWIDTH 720 0
DWIDTH 15 0
BBX 15 30 0 -6
BITMAP
0000
0000
0000
0000
0000
0000
3870
3870
3870
3870
3870
3870
3870
3870
1FF0
0070
0070
1FE0
0000
0000
0000
0000
0000
0000
0000
0000
0000
0000
0000
0000
ENDCHAR
STARTCHAR uni02B9
ENCODING 697
SWIDTH 720 0
DWIDTH 15 0
BBX 15 30 0 -6
BITMAP
0000
0000
0000
0000
0000
00E0
0380
0380
0700
1C00
1C00
0000
0000
0000
0000
0000
0000
0000
0000
0000
0000
0000
0000
0000
0000
0000
0000
0000
0000
0000
ENDCHAR
STARTCHAR uni02BA
ENCODING 698
SWIDTH 720 0
DWIDTH 15 0
BBX 15 30 0 -6
BITMAP
0000
0000
0000
0000
0000
038E
071C
071C
1C70
38E0
38E0
0000
0000
0000
0000
0000
0000
0000
0000
0000
0000
0000
0000
0000
0000
0000
0000
0000
0000
0000
ENDCHAR
STARTCHAR uni02BB
ENCODING 699
SWIDTH 720 0
DWIDTH 15 0
BBX 15 30 0 -6
BITMAP
0000
0000
0000
0000
0000
0380
0700
0700
0780
0780
0780
0000
0000
0000
0000
0000
0000
0000
0000
0000
0000
0000
0000
0000
0000
0000
0000
0000
0000
0000
ENDCHAR
STARTCHAR afii57929
ENCODING 700
SWIDTH 720 0
DWIDTH 15 0
BBX 15 30 0 -6
BITMAP
0000
0000
0000
0000
0000
03E0
03E0
03E0
00E0
0380
0380
0000
0000
0000
0000
0000
0000
0000
0000
0000
0000
0000
0000
0000
0000
0000
0000
0000
0000
0000
ENDCHAR
STARTCHAR afii64937
ENCODING 701
SWIDTH 720 0
DWIDTH 15 0
BBX 15 30 0 -6
BITMAP
0000
0000
0000
0000
0000
03E0
03E0
03E0
0380
00E0
00E0
0000
0000
0000
0000
0000
0000
0000
0000
0000
0000
0000
0000
0000
0000
0000
0000
0000
0000
0000
ENDCHAR
STARTCHAR uni02BE
ENCODING 702
SWIDTH 720 0
DWIDTH 15 0
BBX 15 30 0 -6
BITMAP
0000
0000
0000
0000
0000
0380
00E0
00E0
00E0
0380
0380
0000
0000
0000
0000
0000
0000
0000
0000
0000
0000
0000
0000
0000
0000
0000
0000
0000
0000
0000
ENDCHAR
STARTCHAR uni02BF
ENCODING 703
SWIDTH 720 0
DWIDTH 15 0
BBX 15 30 0 -6
BITMAP
0000
0000
0000
0000
0000
00E0
0380
0380
0380
00E0
00E0
0000
0000
0000
0000
0000
0000
0000
0000
0000
0000
0000
0000
0000
0000
0000
0000
0000
0000
0000
ENDCHAR
STARTCHAR uni02C0
ENCODING 704
SWIDTH 720 0
DWIDTH 15 0
BBX 15 30 0 -6
BITMAP
0000
0000
0000
0000
0000
0780
1CE0
1CE0
00E0
0380
0380
0380
0380
0380
0000
0000
0000
0000
0000
0000
0000
0000
0000
0000
0000
0000
0000
0000
0000
0000
ENDCHAR
STARTCHAR uni02C1
ENCODING 705
SWIDTH 720 0
DWIDTH 15 0
BBX 15 30 0 -6
BITMAP
0000
0000
0000
0000
0000
0780
1CE0
1CE0
1C00
0700
0700
0700
0700
0700
0000
0000
0000
0000
0000
0000
0000
0000
0000
0000
0000
0000
0000
0000
0000
0000
ENDCHAR
STARTCHAR uni02C2
ENCODING 706
SWIDTH 720 0
DWIDTH 15 0
BBX 15 30 0 -6
BITMAP
0000
0000
0000
0000
0000
0070
03E0
03E0
1F00
03E0
03E0
0070
0000
0000
0000
0000
0000
0000
0000
0000
0000
0000
0000
0000
0000
0000
0000
0000
0000
0000
ENDCHAR
STARTCHAR uni02C3
ENCODING 707
SWIDTH 720 0
DWIDTH 15 0
BBX 15 30 0 -6
BITMAP
0000
0000
0000
0000
0000
1C00
0780
0780
00F0
0780
0780
1C00
0000
0000
0000
0000
0000
0000
0000
0000
0000
0000
0000
0000
0000
0000
0000
0000
0000
0000
ENDCHAR
STARTCHAR uni02C4
ENCODING 708
SWIDTH 720 0
DWIDTH 15 0
BBX 15 30 0 -6
BITMAP
0000
0000
0000
0000
0000
0300
0300
0300
0780
0480
0480
1CE0
1860
1860
0000
0000
0000
0000
0000
0000
0000
0000
0000
0000
0000
0000
0000
0000
0000
0000
ENDCHAR
STARTCHAR uni02C5
ENCODING 709
SWIDTH 720 0
DWIDTH 15 0
BBX 15 30 0 -6
BITMAP
0000
0000
0000
0000
0000
1860
1CE0
1CE0
0480
0780
0780
0300
0300
0300
0000
0000
0000
0000
0000
0000
0000
0000
0000
0000
0000
0000
0000
0000
0000
0000
ENDCHAR
STARTCHAR circumflex
ENCODING 710
SWIDTH 720 0
DWIDTH 15 0
BBX 15 30 0 -6
BITMAP
0000
0000
0000
0000
0000
0380
07E0
07E0
1C70
0000
0000
0000
0000
0000
0000
0000
0000
0000
0000
0000
0000
0000
0000
0000
0000
0000
0000
0000
0000
0000
ENDCHAR
STARTCHAR caron
ENCODING 711
SWIDTH 720 0
DWIDTH 15 0
BBX 15 30 0 -6
BITMAP
0000
0000
0000
0000
0000
1C70
07E0
07E0
0380
0000
0000
0000
0000
0000
0000
0000
0000
0000
0000
0000
0000
0000
0000
0000
0000
0000
0000
0000
0000
0000
ENDCHAR
STARTCHAR uni02C8
ENCODING 712
SWIDTH 720 0
DWIDTH 15 0
BBX 15 30 0 -6
BITMAP
0000
0000
0000
0000
0000
0380
0380
0380
0380
0380
0380
0380
0000
0000
0000
0000
0000
0000
0000
0000
0000
0000
0000
0000
0000
0000
0000
0000
0000
0000
ENDCHAR
STARTCHAR macron
ENCODING 713
SWIDTH 720 0
DWIDTH 15 0
BBX 15 30 0 -6
BITMAP
0000
0000
0000
3FFC
3FFC
0000
0000
0000
0000
0000
0000
0000
0000
0000
0000
0000
0000
0000
0000
0000
0000
0000
0000
0000
0000
0000
0000
0000
0000
0000
ENDCHAR
STARTCHAR uni02CA
ENCODING 714
SWIDTH 720 0
DWIDTH 15 0
BBX 15 30 0 -6
BITMAP
0000
0000
0000
0000
0000
00E0
0380
0380
0700
0000
0000
0000
0000
0000
0000
0000
0000
0000
0000
0000
0000
0000
0000
0000
0000
0000
0000
0000
0000
0000
ENDCHAR
STARTCHAR uni02CB
ENCODING 715
SWIDTH 720 0
DWIDTH 15 0
BBX 15 30 0 -6
BITMAP
0000
0000
0000
0000
0000
0700
0380
0380
00E0
0000
0000
0000
0000
0000
0000
0000
0000
0000
0000
0000
0000
0000
0000
0000
0000
0000
0000
0000
0000
0000
ENDCHAR
STARTCHAR uni02CC
ENCODING 716
SWIDTH 720 0
DWIDTH 15 0
BBX 15 30 0 -6
BITMAP
0000
0000
0000
0000
0000
0000
0000
0000
0000
0000
0000
0000
0000
0000
0000
0000
0000
0000
0000
0000
0000
0380
0380
0380
0380
0380
0380
0380
0380
0000
ENDCHAR
STARTCHAR uni02CD
ENCODING 717
SWIDTH 720 0
DWIDTH 15 0
BBX 15 30 0 -6
BITMAP
0000
0000
0000
0000
0000
0000
0000
0000
0000
0000
0000
0000
0000
0000
0000
0000
0000
0000
0000
0000
0000
0000
0000
0000
0000
0000
0000
3FFC
3FFC
0000
ENDCHAR
STARTCHAR uni02CE
ENCODING 718
SWIDTH 720 0
DWIDTH 15 0
BBX 15 30 0 -6
BITMAP
0000
0000
0000
0000
0000
0000
0000
0000
0000
0000
0000
0000
0000
0000
0000
0000
0000
0000
0000
0000
0000
0000
0000
0000
0000
0000
0700
0380
0380
00E0
ENDCHAR
STARTCHAR uni02CF
ENCODING 719
SWIDTH 720 0
DWIDTH 15 0
BBX 15 30 0 -6
BITMAP
0000
0000
0000
0000
0000
0000
0000
0000
0000
0000
0000
0000
0000
0000
0000
0000
0000
0000
0000
0000
0000
0000
0000
0000
0000
0000
00E0
0380
0380
0700
ENDCHAR
STARTCHAR uni02D0
ENCODING 720
SWIDTH 720 0
DWIDTH 15 0
BBX 15 30 0 -6
BITMAP
0000
0000
0000
0000
0000
0000
0000
0000
0000
0000
0000
0000
1FE0
1FE0
0780
0300
0300
0000
0000
0000
0300
0780
0780
1FE0
0000
0000
0000
0000
0000
0000
ENDCHAR
STARTCHAR uni02D1
ENCODING 721
SWIDTH 720 0
DWIDTH 15 0
BBX 15 30 0 -6
BITMAP
0000
0000
0000
0000
0000
0000
0000
0000
0000
0000
0000
0000
1FE0
1FE0
0780
0300
0300
0000
0000
0000
0000
0000
0000
0000
0000
0000
0000
0000
0000
0000
ENDCHAR
STARTCHAR uni02D2
ENCODING 722
SWIDTH 720 0
DWIDTH 15 0
BBX 15 30 0 -6
BITMAP
0000
0000
0000
0000
0000
0000
0000
0000
0000
0000
0000
0000
0000
0000
0380
03E0
03E0
00E0
00E0
00E0
03E0
0380
0380
0000
0000
0000
0000
0000
0000
0000
ENDCHAR
STARTCHAR uni02D3
ENCODING 723
SWIDTH 720 0
DWIDTH 15 0
BBX 15 30 0 -6
BITMAP
0000
0000
0000
0000
0000
0000
0000
0000
0000
0000
0000
0000
0000
0000
00E0
03E0
03E0
0380
0380
0380
03E0
00E0
00E0
0000
0000
0000
0000
0000
0000
0000
ENDCHAR
STARTCHAR uni02D4
ENCODING 724
SWIDTH 720 0
DWIDTH 15 0
BBX 15 30 0 -6
BITMAP
0000
0000
0000
0000
0000
0000
0000
0000
0000
0000
0000
0000
0000
0000
0300
0300
0300
0300
1FE0
1FE0
0000
0000
0000
0000
0000
0000
0000
0000
0000
0000
ENDCHAR
STARTCHAR uni02D5
ENCODING 725
SWIDTH 720 0
DWIDTH 15 0
BBX 15 30 0 -6
BITMAP
0000
0000
0000
0000
0000
0000
0000
0000
0000
0000
0000
0000
0000
0000
0000
0000
0000
0000
1FE0
1FE0
0300
0300
0300
0300
0000
0000
0000
0000
0000
0000
ENDCHAR
STARTCHAR uni02D6
ENCODING 726
SWIDTH 720 0
DWIDTH 15 0
BBX 15 30 0 -6
BITMAP
0000
0000
0000
0000
0000
0000
0000
0000
0000
0000
0000
0000
0000
0000
0300
0300
0300
0300
1FE0
1FE0
0300
0300
0300
0300
0000
0000
0000
0000
0000
0000
ENDCHAR
STARTCHAR uni02D7
ENCODING 727
SWIDTH 720 0
DWIDTH 15 0
BBX 15 30 0 -6
BITMAP
0000
0000
0000
0000
0000
0000
0000
0000
0000
0000
0000
0000
0000
0000
0000
0000
0000
1860
1FE0
1FE0
1860
0000
0000
0000
0000
0000
0000
0000
0000
0000
ENDCHAR
STARTCHAR breve
ENCODING 728
SWIDTH 720 0
DWIDTH 15 0
BBX 15 30 0 -6
BITMAP
0000
0000
1C70
07E0
07E0
0000
0000
0000
0000
0000
0000
0000
0000
0000
0000
0000
0000
0000
0000
0000
0000
0000
0000
0000
0000
0000
0000
0000
0000
0000
ENDCHAR
STARTCHAR dotaccent
ENCODING 729
SWIDTH 720 0
DWIDTH 15 0
BBX 15 30 0 -6
BITMAP
0000
0000
0380
0380
0380
0000
0000
0000
0000
0000
0000
0000
0000
0000
0000
0000
0000
0000
0000
0000
0000
0000
0000
0000
0000
0000
0000
0000
0000
0000
ENDCHAR
STARTCHAR ring
ENCODING 730
SWIDTH 720 0
DWIDTH 15 0
BBX 15 30 0 -6
BITMAP
0000
0000
0380
0460
0460
0460
0380
0380
0000
0000
0000
0000
0000
0000
0000
0000
0000
0000
0000
0000
0000
0000
0000
0000
0000
0000
0000
0000
0000
0000
ENDCHAR
STARTCHAR ogonek
ENCODING 731
SWIDTH 720 0
DWIDTH 15 0
BBX 15 30 0 -6
BITMAP
0000
0000
0000
0000
0000
0000
0000
0000
0000
0000
0000
0000
0000
0000
0000
0000
0000
0000
0000
0000
0000
0000
0000
0000
0380
0380
0700
0700
0700
03E0
ENDCHAR
STARTCHAR tilde
ENCODING 732
SWIDTH 720 0
DWIDTH 15 0
BBX 15 30 0 -6
BITMAP
0000
0000
0000
0000
0000
0710
1FF0
1FF0
18E0
0000
0000
0000
0000
0000
0000
0000
0000
0000
0000
0000
0000
0000
0000
0000
0000
0000
0000
0000
0000
0000
ENDCHAR
STARTCHAR hungarumlaut
ENCODING 733
SWIDTH 720 0
DWIDTH 15 0
BBX 15 30 0 -6
BITMAP
0000
0000
071C
1C70
1C70
38E0
0000
0000
0000
0000
0000
0000
0000
0000
0000
0000
0000
0000
0000
0000
0000
0000
0000
0000
0000
0000
0000
0000
0000
0000
ENDCHAR
STARTCHAR uni02DE
ENCODING 734
SWIDTH 720 0
DWIDTH 15 0
BBX 15 30 0 -6
BITMAP
0000
0000
0000
0000
0000
0000
0000
0000
0000
0000
0000
0000
0700
0700
1F00
3B8C
3B8C
23FC
00F0
00F0
0000
0000
0000
0000
0000
0000
0000
0000
0000
0000
ENDCHAR
STARTCHAR uni02DF
ENCODING 735
SWIDTH 720 0
DWIDTH 15 0
BBX 15 30 0 -6
BITMAP
0000
0000
3870
1CE0
1CE0
0780
1CE0
1CE0
3870
0000
0000
0000
0000
0000
0000
0000
0000
0000
0000
0000
0000
0000
0000
0000
0000
0000
0000
0000
0000
0000
ENDCHAR
STARTCHAR uni02E0
ENCODING 736
SWIDTH 720 0
DWIDTH 15 0
BBX 15 30 0 -6
BITMAP
0000
0000
0000
0000
0000
0000
3870
3870
1CE0
0780
0780
0780
1CE0
1CE0
1CE0
0780
0780
0000
0000
0000
0000
0000
0000
0000
0000
0000
0000
0000
0000
0000
ENDCHAR
STARTCHAR uni02E1
ENCODING 737
SWIDTH 720 0
DWIDTH 15 0
BBX 15 30 0 -6
BITMAP
0000
0000
0000
3C00
3C00
1C00
1C00
1C00
1C00
1C00
1C00
1C00
1C00
1C00
3F00
0000
0000
0000
0000
0000
0000
0000
0000
0000
0000
0000
0000
0000
0000
0000
ENDCHAR
STARTCHAR uni02E2
ENCODING 738
SWIDTH 720 0
DWIDTH 15 0
BBX 15 30 0 -6
BITMAP
0000
0000
0000
0000
0000
0000
1F80
1F80
3800
1C00
1C00
0700
0380
0380
3F00
0000
0000
0000
0000
0000
0000
0000
0000
0000
0000
0000
0000
0000
0000
0000
ENDCHAR
STARTCHAR uni02E3
ENCODING 739
SWIDTH 720 0
DWIDTH 15 0
BBX 15 30 0 -6
BITMAP
0000
0000
0000
0000
0000
0000
3B80
3B80
3B80
1F00
1F00
1F00
3B80
3B80
3B80
0000
0000
0000
0000
0000
0000
0000
0000
0000
0000
0000
0000
0000
0000
0000
ENDCHAR
STARTCHAR uni02E4
ENCODING 740
SWIDTH 720 0
DWIDTH 15 0
BBX 15 30 0 -6
BITMAP
0000
0000
0000
1F80
1F80
38E0
3800
3800
1C00
0700
0700
0700
0700
0700
0700
0000
0000
0000
0000
0000
0000
0000
0000
0000
0000
0000
0000
0000
0000
0000
ENDCHAR
STARTCHAR uni02E5
ENCODING 741
SWIDTH 720 0
DWIDTH 15 0
BBX 15 30 0 -6
BITMAP
0000
0000
0000
0000
0000
1FF0
0070
0070
0070
0070
0070
0070
0070
0070
0070
0070
0070
0070
0070
0070
0070
0070
0070
0070
0000
0000
0000
0000
0000
0000
ENDCHAR
STARTCHAR uni02E6
ENCODING 742
SWIDTH 720 0
DWIDTH 15 0
BBX 15 30 0 -6
BITMAP
0000
0000
0000
0000
0000
0070
0070
0070
0070
1FF0
1FF0
0070
0070
0070
0070
0070
0070
0070
0070
0070
0070
0070
0070
0070
0000
0000
0000
0000
0000
0000
ENDCHAR
STARTCHAR uni02E7
ENCODING 743
SWIDTH 720 0
DWIDTH 15 0
BBX 15 30 0 -6
BITMAP
0000
0000
0000
0000
0000
0070
0070
0070
0070
0070
0070
0070
0070
0070
1FF0
0070
0070
0070
0070
0070
0070
0070
0070
0070
0000
0000
0000
0000
0000
0000
ENDCHAR
STARTCHAR uni02E8
ENCODING 744
SWIDTH 720 0
DWIDTH 15 0
BBX 15 30 0 -6
BITMAP
0000
0000
0000
0000
0000
0070
0070
0070
0070
0070
0070
0070
0070
0070
0070
0070
0070
0070
1FF0
1FF0
0070
0070
0070
0070
0000
0000
0000
0000
0000
0000
ENDCHAR
STARTCHAR uni02E9
ENCODING 745
SWIDTH 720 0
DWIDTH 15 0
BBX 15 30 0 -6
BITMAP
0000
0000
0000
0000
0000
0070
0070
0070
0070
0070
0070
0070
0070
0070
0070
0070
0070
0070
0070
0070
0070
0070
0070
1FF0
0000
0000
0000
0000
0000
0000
ENDCHAR
STARTCHAR uni02EA
ENCODING 746
SWIDTH 720 0
DWIDTH 15 0
BBX 15 30 0 -6
BITMAP
0000
0000
0000
0000
0000
0000
0000
0000
0000
0000
0000
0000
0000
0000
0000
0000
0000
0000
07E0
07E0
00E0
00E0
00E0
00E0
0000
0000
0000
0000
0000
0000
ENDCHAR
STARTCHAR uni02EB
ENCODING 747
SWIDTH 720 0
DWIDTH 15 0
BBX 15 30 0 -6
BITMAP
0000
0000
0000
0000
0000
0000
0000
0000
0000
0000
0000
0000
0000
0000
0000
0000
0000
0000
0000
0000
0700
0700
0700
07E0
0700
0700
0700
0000
0000
0000
ENDCHAR
STARTCHAR uni02EC
ENCODING 748
SWIDTH 720 0
DWIDTH 15 0
BBX 15 30 0 -6
BITMAP
0000
0000
0000
0000
0000
0000
0000
0000
0000
0000
0000
0000
0000
0000
0000
0000
0000
0000
0000
0000
0000
0000
0000
0000
1C70
1C70
07E0
0380
0380
0000
ENDCHAR
STARTCHAR uni02ED
ENCODING 749
SWIDTH 720 0
DWIDTH 15 0
BBX 15 30 0 -6
BITMAP
0000
0000
0000
0000
0000
0000
0000
0000
1FF0
0000
0000
0000
1FF0
1FF0
0000
0000
0000
0000
0000
0000
0000
0000
0000
0000
0000
0000
0000
0000
0000
0000
ENDCHAR
STARTCHAR uni02EE
ENCODING 750
SWIDTH 720 0
DWIDTH 15 0
BBX 15 30 0 -6
BITMAP
0000
0000
0000
0000
0000
3C7C
3C7C
3C7C
1C1C
3870
3870
0000
0000
0000
0000
0000
0000
0000
0000
0000
0000
0000
0000
0000
0000
0000
0000
0000
0000
0000
ENDCHAR
STARTCHAR uni02EF
ENCODING 751
SWIDTH 720 0
DWIDTH 15 0
BBX 15 30 0 -6
BITMAP
0000
0000
0000
0000
0000
0000
0000
0000
0000
0000
0000
0000
0000
0000
0000
0000
0000
0000
0000
0000
0000
1860
1860
1CE0
0480
0480
0780
0300
0300
0300
ENDCHAR
STARTCHAR uni02F0
ENCODING 752
SWIDTH 720 0
DWIDTH 15 0
BBX 15 30 0 -6
BITMAP
0000
0000
0000
0000
0000
0000
0000
0000
0000
0000
0000
0000
0000
0000
0000
0000
0000
0000
0000
0000
0000
0300
0300
0300
0780
0780
0480
1CE0
1CE0
1860
ENDCHAR
STARTCHAR uni02F1
ENCODING 753
SWIDTH 720 0
DWIDTH 15 0
BBX 15 30 0 -6
BITMAP
0000
0000
0000
0000
0000
0000
0000
0000
0000
0000
0000
0000
0000
0000
0000
0000
0000
0000
0000
0000
0000
0000
0000
0070
03E0
03E0
1F00
03E0
03E0
0070
ENDCHAR
STARTCHAR uni02F2
ENCODING 754
SWIDTH 720 0
DWIDTH 15 0
BBX 15 30 0 -6
BITMAP
0000
0000
0000
0000
0000
0000
0000
0000
0000
0000
0000
0000
0000
0000
0000
0000
0000
0000
0000
0000
0000
0000
0000
1C00
0780
0780
00F0
0780
0780
1C00
ENDCHAR
STARTCHAR uni02F3
ENCODING 755
SWIDTH 720 0
DWIDTH 15 0
BBX 15 30 0 -6
BITMAP
0000
0000
0000
0000
0000
0000
0000
0000
0000
0000
0000
0000
0000
0000
0000
0000
0000
0000
0000
0000
0000
0000
0000
0000
0380
0380
0460
0460
0460
0380
ENDCHAR
STARTCHAR uni02F4
ENCODING 756
SWIDTH 720 0
DWIDTH 15 0
BBX 15 30 0 -6
BITMAP
0000
0000
0000
0000
0000
0000
0000
0000
0000
0000
0000
0000
0700
0700
0380
00E0
00E0
0000
0000
0000
0000
0000
0000
0000
0000
0000
0000
0000
0000
0000
ENDCHAR
STARTCHAR uni02F5
ENCODING 757
SWIDTH 720 0
DWIDTH 15 0
BBX 15 30 0 -6
BITMAP
0000
0000
0000
0000
0000
0000
0000
0000
0000
0000
0000
0000
38E0
38E0
1C70
071C
071C
0000
0000
0000
0000
0000
0000
0000
0000
0000
0000
0000
0000
0000
ENDCHAR
STARTCHAR uni02F6
ENCODING 758
SWIDTH 720 0
DWIDTH 15 0
BBX 15 30 0 -6
BITMAP
0000
0000
0000
0000
0000
0000
0000
0000
0000
0000
0000
0000
071C
071C
1C70
38E0
38E0
0000
0000
0000
0000
0000
0000
0000
0000
0000
0000
0000
0000
0000
ENDCHAR
STARTCHAR uni02F7
ENCODING 759
SWIDTH 720 0
DWIDTH 15 0
BBX 15 30 0 -6
BITMAP
0000
0000
0000
0000
0000
0000
0000
0000
0000
0000
0000
0000
0000
0000
0000
0000
0000
0000
0000
0000
0000
0000
0000
0000
1F1C
1F1C
3B9C
38F0
38F0
0000
ENDCHAR
STARTCHAR uni02F8
ENCODING 760
SWIDTH 720 0
DWIDTH 15 0
BBX 15 30 0 -6
BITMAP
0000
0000
0000
0000
0000
0000
03E0
03E0
03E0
0000
0000
0000
0000
0000
0000
03E0
03E0
03E0
0000
0000
0000
0000
0000
0000
0000
0000
0000
0000
0000
0000
ENDCHAR
STARTCHAR uni02F9
ENCODING 761
SWIDTH 720 0
DWIDTH 15 0
BBX 15 30 0 -6
BITMAP
0000
0000
0000
0000
0000
0000
03E0
03E0
0300
0300
0300
0300
0300
0300
0000
0000
0000
0000
0000
0000
0000
0000
0000
0000
0000
0000
0000
0000
0000
0000
ENDCHAR
STARTCHAR uni02FA
ENCODING 762
SWIDTH 720 0
DWIDTH 15 0
BBX 15 30 0 -6
BITMAP
0000
0000
0000
0000
0000
0000
0780
0780
0080
0080
0080
0080
0080
0080
0000
0000
0000
0000
0000
0000
0000
0000
0000
0000
0000
0000
0000
0000
0000
0000
ENDCHAR
STARTCHAR uni02FB
ENCODING 763
SWIDTH 720 0
DWIDTH 15 0
BBX 15 30 0 -6
BITMAP
0000
0000
0000
0000
0000
0000
0000
0000
0000
0000
0000
0000
0000
0000
0000
0000
0000
0300
0300
0300
0300
0300
0300
03E0
0000
0000
0000
0000
0000
0000
ENDCHAR
STARTCHAR uni02FC
ENCODING 764
SWIDTH 720 0
DWIDTH 15 0
BBX 15 30 0 -6
BITMAP
0000
0000
0000
0000
0000
0000
0000
0000
0000
0000
0000
0000
0000
0000
0000
0000
0000
0080
0080
0080
0080
0080
0080
0780
0000
0000
0000
0000
0000
0000
ENDCHAR
STARTCHAR uni02FD
ENCODING 765
SWIDTH 720 0
DWIDTH 15 0
BBX 15 30 0 -6
BITMAP
0000
0000
0000
0000
0000
0000
0000
0000
0000
0000
0000
0000
0000
0000
0000
0000
0000
0000
0000
0000
0000
0000
0000
0000
200C
200C
200C
3FFC
3FFC
3FFC
ENDCHAR
STARTCHAR uni02FE
ENCODING 766
SWIDTH 720 0
DWIDTH 15 0
BBX 15 30 0 -6
BITMAP
0000
0000
0000
0000
0000
0000
0000
0000
0000
0000
0000
0000
0000
0000
0000
0000
0000
0000
0000
0000
0000
0000
0000
0000
2000
2000
2000
3FFC
3FFC
0000
ENDCHAR
STARTCHAR uni02FF
ENCODING 767
SWIDTH 720 0
DWIDTH 15 0
BBX 15 30 0 -6
BITMAP
0000
0000
0000
0000
0000
0000
0000
0000
0000
0000
0000
0000
0000
0000
0000
0000
0000
0000
0000
0000
0000
0400
0400
1C00
3FFC
3FFC
1C00
0400
0400
0000
ENDCHAR
STARTCHAR gravecomb
ENCODING 768
SWIDTH 720 0
DWIDTH 15 0
BBX 15 30 0 -6
BITMAP
0700
0700
0380
00E0
00E0
0000
0000
0000
0000
0000
0000
0000
0000
0000
0000
0000
0000
0000
0000
0000
0000
0000
0000
0000
0000
0000
0000
0000
0000
0000
ENDCHAR
STARTCHAR acutecomb
ENCODING 769
SWIDTH 720 0
DWIDTH 15 0
BBX 15 30 0 -6
BITMAP
00E0
00E0
0380
0700
0700
0000
0000
0000
0000
0000
0000
0000
0000
0000
0000
0000
0000
0000
0000
0000
0000
0000
0000
0000
0000
0000
0000
0000
0000
0000
ENDCHAR
STARTCHAR uni0302
ENCODING 770
SWIDTH 720 0
DWIDTH 15 0
BBX 15 30 0 -6
BITMAP
0380
0380
07E0
1C70
1C70
0000
0000
0000
0000
0000
0000
0000
0000
0000
0000
0000
0000
0000
0000
0000
0000
0000
0000
0000
0000
0000
0000
0000
0000
0000
ENDCHAR
STARTCHAR tildecomb
ENCODING 771
SWIDTH 720 0
DWIDTH 15 0
BBX 15 30 0 -6
BITMAP
0710
0710
1FF0
18E0
18E0
0000
0000
0000
0000
0000
0000
0000
0000
0000
0000
0000
0000
0000
0000
0000
0000
0000
0000
0000
0000
0000
0000
0000
0000
0000
ENDCHAR
STARTCHAR uni0304
ENCODING 772
SWIDTH 720 0
DWIDTH 15 0
BBX 15 30 0 -6
BITMAP
0000
0000
1FF0
0000
0000
0000
0000
0000
0000
0000
0000
0000
0000
0000
0000
0000
0000
0000
0000
0000
0000
0000
0000
0000
0000
0000
0000
0000
0000
0000
ENDCHAR
STARTCHAR uni0305
ENCODING 773
SWIDTH 720 0
DWIDTH 15 0
BBX 15 30 0 -6
BITMAP
0000
0000
FFFE
0000
0000
0000
0000
0000
0000
0000
0000
0000
0000
0000
0000
0000
0000
0000
0000
0000
0000
0000
0000
0000
0000
0000
0000
0000
0000
0000
ENDCHAR
STARTCHAR uni0306
ENCODING 774
SWIDTH 720 0
DWIDTH 15 0
BBX 15 30 0 -6
BITMAP
3870
3870
1FE0
0000
0000
0000
0000
0000
0000
0000
0000
0000
0000
0000
0000
0000
0000
0000
0000
0000
0000
0000
0000
0000
0000
0000
0000
0000
0000
0000
ENDCHAR
STARTCHAR uni0307
ENCODING 775
SWIDTH 720 0
DWIDTH 15 0
BBX 15 30 0 -6
BITMAP
0380
0380
0380
0000
0000
0000
0000
0000
0000
0000
0000
0000
0000
0000
0000
0000
0000
0000
0000
0000
0000
0000
0000
0000
0000
0000
0000
0000
0000
0000
ENDCHAR
STARTCHAR uni0308
ENCODING 776
SWIDTH 720 0
DWIDTH 15 0
BBX 15 30 0 -6
BITMAP
1C70
1C70
1C70
0000
0000
0000
0000
0000
0000
0000
0000
0000
0000
0000
0000
0000
0000
0000
0000
0000
0000
0000
0000
0000
0000
0000
0000
0000
0000
0000
ENDCHAR
STARTCHAR hookabovecomb
ENCODING 777
SWIDTH 720 0
DWIDTH 15 0
BBX 15 30 0 -6
BITMAP
07E0
07E0
1C70
00E0
00E0
0380
0000
0000
0000
0000
0000
0000
0000
0000
0000
0000
0000
0000
0000
0000
0000
0000
0000
0000
0000
0000
0000
0000
0000
0000
ENDCHAR
STARTCHAR uni030A
ENCODING 778
SWIDTH 720 0
DWIDTH 15 0
BBX 15 30 0 -6
BITMAP
0780
0780
1CE0
0780
0780
0000
0000
0000
0000
0000
0000
0000
0000
0000
0000
0000
0000
0000
0000
0000
0000
0000
0000
0000
0000
0000
0000
0000
0000
0000
ENDCHAR
STARTCHAR uni030B
ENCODING 779
SWIDTH 720 0
DWIDTH 15 0
BBX 15 30 0 -6
BITMAP
071C
071C
1C70
38E0
38E0
0000
0000
0000
0000
0000
0000
0000
0000
0000
0000
0000
0000
0000
0000
0000
0000
0000
0000
0000
0000
0000
0000
0000
0000
0000
ENDCHAR
STARTCHAR uni030C
ENCODING 780
SWIDTH 720 0
DWIDTH 15 0
BBX 15 30 0 -6
BITMAP
1C70
1C70
07E0
0380
0380
0000
0000
0000
0000
0000
0000
0000
0000
0000
0000
0000
0000
0000
0000
0000
0000
0000
0000
0000
0000
0000
0000
0000
0000
0000
ENDCHAR
STARTCHAR uni030D
ENCODING 781
SWIDTH 720 0
DWIDTH 15 0
BBX 15 30 0 -6
BITMAP
0380
0380
0380
0380
0380
0380
0000
0000
0000
0000
0000
0000
0000
0000
0000
0000
0000
0000
0000
0000
0000
0000
0000
0000
0000
0000
0000
0000
0000
0000
ENDCHAR
STARTCHAR uni030E
ENCODING 782
SWIDTH 720 0
DWIDTH 15 0
BBX 15 30 0 -6
BITMAP
1C70
1C70
1C70
1C70
1C70
1C70
0000
0000
0000
0000
0000
0000
0000
0000
0000
0000
0000
0000
0000
0000
0000
0000
0000
0000
0000
0000
0000
0000
0000
0000
ENDCHAR
STARTCHAR uni030F
ENCODING 783
SWIDTH 720 0
DWIDTH 15 0
BBX 15 30 0 -6
BITMAP
38E0
38E0
1C70
071C
071C
0000
0000
0000
0000
0000
0000
0000
0000
0000
0000
0000
0000
0000
0000
0000
0000
0000
0000
0000
0000
0000
0000
0000
0000
0000
ENDCHAR
STARTCHAR uni0310
ENCODING 784
SWIDTH 720 0
DWIDTH 15 0
BBX 15 30 0 -6
BITMAP
0380
0380
381C
1FF0
1FF0
0000
0000
0000
0000
0000
0000
0000
0000
0000
0000
0000
0000
0000
0000
0000
0000
0000
0000
0000
0000
0000
0000
0000
0000
0000
ENDCHAR
STARTCHAR uni0311
ENCODING 785
SWIDTH 720 0
DWIDTH 15 0
BBX 15 30 0 -6
BITMAP
1FE0
1FE0
3870
0000
0000
0000
0000
0000
0000
0000
0000
0000
0000
0000
0000
0000
0000
0000
0000
0000
0000
0000
0000
0000
0000
0000
0000
0000
0000
0000
ENDCHAR
STARTCHAR uni0312
ENCODING 786
SWIDTH 720 0
DWIDTH 15 0
BBX 15 30 0 -6
BITMAP
0380
0380
0700
0780
0780
0300
0000
0000
0000
0000
0000
0000
0000
0000
0000
0000
0000
0000
0000
0000
0000
0000
0000
0000
0000
0000
0000
0000
0000
0000
ENDCHAR
STARTCHAR uni0313
ENCODING 787
SWIDTH 720 0
DWIDTH 15 0
BBX 15 30 0 -6
BITMAP
0300
0300
0780
0380
0380
0700
0000
0000
0000
0000
0000
0000
0000
0000
0000
0000
0000
0000
0000
0000
0000
0000
0000
0000
0000
0000
0000
0000
0000
0000
ENDCHAR
STARTCHAR uni0314
ENCODING 788
SWIDTH 720 0
DWIDTH 15 0
BBX 15 30 0 -6
BITMAP
0300
0300
0780
0700
0700
0380
0000
0000
0000
0000
0000
0000
0000
0000
0000
0000
0000
0000
0000
0000
0000
0000
0000
0000
0000
0000
0000
0000
0000
0000
ENDCHAR
STARTCHAR uni0315
ENCODING 789
SWIDTH 720 0
DWIDTH 15 0
BBX 15 30 0 -6
BITMAP
000C
000C
001E
000E
000E
001C
0000
0000
0000
0000
0000
0000
0000
0000
0000
0000
0000
0000
0000
0000
0000
0000
0000
0000
0000
0000
0000
0000
0000
0000
ENDCHAR
STARTCHAR uni0316
ENCODING 790
SWIDTH 720 0
DWIDTH 15 0
BBX 15 30 0 -6
BITMAP
0000
0000
0000
0000
0000
0000
0000
0000
0000
0000
0000
0000
0000
0000
0000
0000
0000
0000
0000
0000
0000
0000
0000
0000
0000
0000
0700
0380
0380
00E0
ENDCHAR
STARTCHAR uni0317
ENCODING 791
SWIDTH 720 0
DWIDTH 15 0
BBX 15 30 0 -6
BITMAP
0000
0000
0000
0000
0000
0000
0000
0000
0000
0000
0000
0000
0000
0000
0000
0000
0000
0000
0000
0000
0000
0000
0000
0000
0000
0000
00E0
0380
0380
0700
ENDCHAR
STARTCHAR uni0318
ENCODING 792
SWIDTH 720 0
DWIDTH 15 0
BBX 15 30 0 -6
BITMAP
0000
0000
0000
0000
0000
0000
0000
0000
0000
0000
0000
0000
0000
0000
0000
0000
0000
0000
0000
0000
0000
0000
0000
0000
0000
0000
00E0
1FE0
1FE0
00E0
ENDCHAR
STARTCHAR uni0319
ENCODING 793
SWIDTH 720 0
DWIDTH 15 0
BBX 15 30 0 -6
BITMAP
0000
0000
0000
0000
0000
0000
0000
0000
0000
0000
0000
0000
0000
0000
0000
0000
0000
0000
0000
0000
0000
0000
0000
0000
0000
0000
1C00
1FE0
1FE0
1C00
ENDCHAR
STARTCHAR uni031A
ENCODING 794
SWIDTH 720 0
DWIDTH 15 0
BBX 15 30 0 -6
BITMAP
00FE
00FE
000E
000E
000E
0000
0000
0000
0000
0000
0000
0000
0000
0000
0000
0000
0000
0000
0000
0000
0000
0000
0000
0000
0000
0000
0000
0000
0000
0000
ENDCHAR
STARTCHAR uni031B
ENCODING 795
SWIDTH 720 0
DWIDTH 15 0
BBX 15 30 0 -6
BITMAP
0000
0000
0000
0000
0000
000E
000E
000E
001C
0000
0000
0000
0000
0000
0000
0000
0000
0000
0000
0000
0000
0000
0000
0000
0000
0000
0000
0000
0000
0000
ENDCHAR
STARTCHAR uni031C
ENCODING 796
SWIDTH 720 0
DWIDTH 15 0
BBX 15 30 0 -6
BITMAP
0000
0000
0000
0000
0000
0000
0000
0000
0000
0000
0000
0000
0000
0000
0000
0000
0000
0000
0000
0000
0000
0000
0000
0000
03E0
03E0
0700
0700
0700
03E0
ENDCHAR
STARTCHAR uni031D
ENCODING 797
SWIDTH 720 0
DWIDTH 15 0
BBX 15 30 0 -6
BITMAP
0000
0000
0000
0000
0000
0000
0000
0000
0000
0000
0000
0000
0000
0000
0000
0000
0000
0000
0000
0000
0000
0000
0000
0000
0000
0000
0380
0380
0380
1FF0
ENDCHAR
STARTCHAR uni031E
ENCODING 798
SWIDTH 720 0
DWIDTH 15 0
BBX 15 30 0 -6
BITMAP
0000
0000
0000
0000
0000
0000
0000
0000
0000
0000
0000
0000
0000
0000
0000
0000
0000
0000
0000
0000
0000
0000
0000
0000
0000
0000
1FF0
0380
0380
0380
ENDCHAR
STARTCHAR uni031F
ENCODING 799
SWIDTH 720 0
DWIDTH 15 0
BBX 15 30 0 -6
BITMAP
0000
0000
0000
0000
0000
0000
0000
0000
0000
0000
0000
0000
0000
0000
0000
0000
0000
0000
0000
0000
0000
0000
0000
0000
0000
0000
0380
1FF0
1FF0
0380
ENDCHAR
STARTCHAR uni0320
ENCODING 800
SWIDTH 720 0
DWIDTH 15 0
BBX 15 30 0 -6
BITMAP
0000
0000
0000
0000
0000
0000
0000
0000
0000
0000
0000
0000
0000
0000
0000
0000
0000
0000
0000
0000
0000
0000
0000
0000
0000
0000
0000
1FF0
1FF0
0000
ENDCHAR
STARTCHAR uni0321
ENCODING 801
SWIDTH 720 0
DWIDTH 15 0
BBX 15 30 0 -6
BITMAP
0000
0000
0000
0000
0000
0000
0000
0000
0000
0000
0000
0000
0000
0000
0000
0000
0000
0000
0000
0000
0000
0000
0000
0000
001C
001C
001C
001C
001C
00F0
ENDCHAR
STARTCHAR uni0322
ENCODING 802
SWIDTH 720 0
DWIDTH 15 0
BBX 15 30 0 -6
BITMAP
0000
0000
0000
0000
0000
0000
0000
0000
0000
0000
0000
0000
0000
0000
0000
0000
0000
0000
0000
0000
0000
0000
0000
0000
001C
001C
001C
001C
001C
000E
ENDCHAR
STARTCHAR dotbelowcomb
ENCODING 803
SWIDTH 720 0
DWIDTH 15 0
BBX 15 30 0 -6
BITMAP
0000
0000
0000
0000
0000
0000
0000
0000
0000
0000
0000
0000
0000
0000
0000
0000
0000
0000
0000
0000
0000
0000
0000
0000
0000
0000
0380
0380
0380
0000
ENDCHAR
STARTCHAR uni0324
ENCODING 804
SWIDTH 720 0
DWIDTH 15 0
BBX 15 30 0 -6
BITMAP
0000
0000
0000
0000
0000
0000
0000
0000
0000
0000
0000
0000
0000
0000
0000
0000
0000
0000
0000
0000
0000
0000
0000
0000
0000
0000
1C70
1C70
1C70
0000
ENDCHAR
STARTCHAR uni0325
ENCODING 805
SWIDTH 720 0
DWIDTH 15 0
BBX 15 30 0 -6
BITMAP
0000
0000
0000
0000
0000
0000
0000
0000
0000
0000
0000
0000
0000
0000
0000
0000
0000
0000
0000
0000
0000
0000
0000
0000
0000
0000
0780
1CE0
1CE0
0780
ENDCHAR
STARTCHAR uni0326
ENCODING 806
SWIDTH 720 0
DWIDTH 15 0
BBX 15 30 0 -6
BITMAP
0000
0000
0000
0000
0000
0000
0000
0000
0000
0000
0000
0000
0000
0000
0000
0000
0000
0000
0000
0000
0000
0000
0000
0000
0000
0000
03E0
03E0
03E0
0780
ENDCHAR
STARTCHAR uni0327
ENCODING 807
SWIDTH 720 0
DWIDTH 15 0
BBX 15 30 0 -6
BITMAP
0000
0000
0000
0000
0000
0000
0000
0000
0000
0000
0000
0000
0000
0000
0000
0000
0000
0000
0000
0000
0000
0000
0000
0000
0380
0380
00E0
1CE0
1CE0
0780
ENDCHAR
STARTCHAR uni0328
ENCODING 808
SWIDTH 720 0
DWIDTH 15 0
BBX 15 30 0 -6
BITMAP
0000
0000
0000
0000
0000
0000
0000
0000
0000
0000
0000
0000
0000
0000
0000
0000
0000
0000
0000
0000
0000
0000
0000
0000
0380
0380
0700
1C70
1C70
07E0
ENDCHAR
STARTCHAR uni0329
ENCODING 809
SWIDTH 720 0
DWIDTH 15 0
BBX 15 30 0 -6
BITMAP
0000
0000
0000
0000
0000
0000
0000
0000
0000
0000
0000
0000
0000
0000
0000
0000
0000
0000
0000
0000
0000
0000
0000
0000
0380
0380
0380
0380
0380
0380
ENDCHAR
STARTCHAR uni032A
ENCODING 810
SWIDTH 720 0
DWIDTH 15 0
BBX 15 30 0 -6
BITMAP
0000
0000
0000
0000
0000
0000
0000
0000
0000
0000
0000
0000
0000
0000
0000
0000
0000
0000
0000
0000
0000
0000
0000
0000
0000
0000
3FFC
381C
381C
381C
ENDCHAR
STARTCHAR uni032B
ENCODING 811
SWIDTH 720 0
DWIDTH 15 0
BBX 15 30 0 -6
BITMAP
0000
0000
0000
0000
0000
0000
0000
0000
0000
0000
0000
0000
0000
0000
0000
0000
0000
0000
0000
0000
0000
0000
0000
0000
0000
0000
3B9C
3B9C
3B9C
1FF0
ENDCHAR
STARTCHAR uni032C
ENCODING 812
SWIDTH 720 0
DWIDTH 15 0
BBX 15 30 0 -6
BITMAP
0000
0000
0000
0000
0000
0000
0000
0000
0000
0000
0000
0000
0000
0000
0000
0000
0000
0000
0000
0000
0000
0000
0000
0000
0000
0000
1C70
07E0
07E0
0380
ENDCHAR
STARTCHAR uni032D
ENCODING 813
SWIDTH 720 0
DWIDTH 15 0
BBX 15 30 0 -6
BITMAP
0000
0000
0000
0000
0000
0000
0000
0000
0000
0000
0000
0000
0000
0000
0000
0000
0000
0000
0000
0000
0000
0000
0000
0000
0000
0000
0380
07E0
07E0
1C70
ENDCHAR
STARTCHAR uni032E
ENCODING 814
SWIDTH 720 0
DWIDTH 15 0
BBX 15 30 0 -6
BITMAP
0000
0000
0000
0000
0000
0000
0000
0000
0000
0000
0000
0000
0000
0000
0000
0000
0000
0000
0000
0000
0000
0000
0000
0000
0000
0000
3870
1FE0
1FE0
0000
ENDCHAR
STARTCHAR uni032F
ENCODING 815
SWIDTH 720 0
DWIDTH 15 0
BBX 15 30 0 -6
BITMAP
0000
0000
0000
0000
0000
0000
0000
0000
0000
0000
0000
0000
0000
0000
0000
0000
0000
0000
0000
0000
0000
0000
0000
0000
0000
0000
1FE0
3870
3870
0000
ENDCHAR
STARTCHAR uni0330
ENCODING 816
SWIDTH 720 0
DWIDTH 15 0
BBX 15 30 0 -6
BITMAP
0000
0000
0000
0000
0000
0000
0000
0000
0000
0000
0000
0000
0000
0000
0000
0000
0000
0000
0000
0000
0000
0000
0000
0000
0000
0000
0710
1FF0
1FF0
18E0
ENDCHAR
STARTCHAR uni0331
ENCODING 817
SWIDTH 720 0
DWIDTH 15 0
BBX 15 30 0 -6
BITMAP
0000
0000
0000
0000
0000
0000
0000
0000
0000
0000
0000
0000
0000
0000
0000
0000
0000
0000
0000
0000
0000
0000
0000
0000
0000
0000
1FF0
0000
0000
0000
ENDCHAR
STARTCHAR uni0332
ENCODING 818
SWIDTH 720 0
DWIDTH 15 0
BBX 15 30 0 -6
BITMAP
0000
0000
0000
0000
0000
0000
0000
0000
0000
0000
0000
0000
0000
0000
0000
0000
0000
0000
0000
0000
0000
0000
0000
0000
0000
0000
FFFE
0000
0000
0000
ENDCHAR
STARTCHAR uni0333
ENCODING 819
SWIDTH 720 0
DWIDTH 15 0
BBX 15 30 0 -6
BITMAP
0000
0000
0000
0000
0000
0000
0000
0000
0000
0000
0000
0000
0000
0000
0000
0000
0000
0000
0000
0000
0000
0000
0000
0000
0000
0000
FFFE
0000
0000
FFFE
ENDCHAR
STARTCHAR uni0334
ENCODING 820
SWIDTH 720 0
DWIDTH 15 0
BBX 15 30 0 -6
BITMAP
0000
0000
0000
0000
0000
0000
0000
0000
0000
0000
0000
0000
0000
0000
0710
1FF0
1FF0
18E0
0000
0000
0000
0000
0000
0000
0000
0000
0000
0000
0000
0000
ENDCHAR
STARTCHAR uni0335
ENCODING 821
SWIDTH 720 0
DWIDTH 15 0
BBX 15 30 0 -6
BITMAP
0000
0000
0000
0000
0000
0000
0000
0000
0000
0000
0000
0000
0000
0000
0000
1FF0
1FF0
0000
0000
0000
0000
0000
0000
0000
0000
0000
0000
0000
0000
0000
ENDCHAR
STARTCHAR uni0336
ENCODING 822
SWIDTH 720 0
DWIDTH 15 0
BBX 15 30 0 -6
BITMAP
0000
0000
0000
0000
0000
0000
0000
0000
0000
0000
0000
0000
0000
0000
0000
FFFE
FFFE
0000
0000
0000
0000
0000
0000
0000
0000
0000
0000
0000
0000
0000
ENDCHAR
STARTCHAR uni0337
ENCODING 823
SWIDTH 720 0
DWIDTH 15 0
BBX 15 30 0 -6
BITMAP
0000
0000
0000
0000
0000
0000
0000
0000
0000
0000
0000
001C
0070
0070
00E0
0380
0380
0700
1C00
1C00
3800
0000
0000
0000
0000
0000
0000
0000
0000
0000
ENDCHAR
STARTCHAR uni0338
ENCODING 824
SWIDTH 720 0
DWIDTH 15 0
BBX 15 30 0 -6
BITMAP
0000
0000
0000
001C
001C
001C
0070
0070
0070
00E0
00E0
00E0
0380
0380
0380
0380
0380
0700
0700
0700
1C00
1C00
1C00
3800
3800
3800
0000
0000
0000
0000
ENDCHAR
STARTCHAR uni0339
ENCODING 825
SWIDTH 720 0
DWIDTH 15 0
BBX 15 30 0 -6
BITMAP
0000
0000
0000
0000
0000
0000
0000
0000
0000
0000
0000
0000
0000
0000
0000
0000
0000
0000
0000
0000
0000
0000
0000
0000
0780
0780
00E0
00E0
00E0
0780
ENDCHAR
STARTCHAR uni033A
ENCODING 826
SWIDTH 720 0
DWIDTH 15 0
BBX 15 30 0 -6
BITMAP
0000
0000
0000
0000
0000
0000
0000
0000
0000
0000
0000
0000
0000
0000
0000
0000
0000
0000
0000
0000
0000
0000
0000
0000
0000
0000
381C
381C
381C
3FFC
ENDCHAR
STARTCHAR uni033B
ENCODING 827
SWIDTH 720 0
DWIDTH 15 0
BBX 15 30 0 -6
BITMAP
0000
0000
0000
0000
0000
0000
0000
0000
0000
0000
0000
0000
0000
0000
0000
0000
0000
0000
0000
0000
0000
0000
0000
0000
0000
0000
1FF0
1C70
1C70
1FF0
ENDCHAR
STARTCHAR uni033C
ENCODING 828
SWIDTH 720 0
DWIDTH 15 0
BBX 15 30 0 -6
BITMAP
0000
0000
0000
0000
0000
0000
0000
0000
0000
0000
0000
0000
0000
0000
0000
0000
0000
0000
0000
0000
0000
0000
0000
0000
0000
0000
3CF0
E79C
E79C
0300
ENDCHAR
STARTCHAR uni033D
ENCODING 829
SWIDTH 720 0
DWIDTH 15 0
BBX 15 30 0 -6
BITMAP
381C
381C
07E0
381C
381C
0000
0000
0000
0000
0000
0000
0000
0000
0000
0000
0000
0000
0000
0000
0000
0000
0000
0000
0000
0000
0000
0000
0000
0000
0000
ENDCHAR
STARTCHAR uni033E
ENCODING 830
SWIDTH 720 0
DWIDTH 15 0
BBX 15 30 0 -6
BITMAP
0380
0380
0700
0380
0380
0700
0000
0000
0000
0000
0000
0000
0000
0000
0000
0000
0000
0000
0000
0000
0000
0000
0000
0000
0000
0000
0000
0000
0000
0000
ENDCHAR
STARTCHAR uni033F
ENCODING 831
SWIDTH 720 0
DWIDTH 15 0
BBX 15 30 0 -6
BITMAP
FFFE
FFFE
0000
FFFE
FFFE
0000
0000
0000
0000
0000
0000
0000
0000
0000
0000
0000
0000
0000
0000
0000
0000
0000
0000
0000
0000
0000
0000
0000
0000
0000
ENDCHAR
STARTCHAR uni0340
ENCODING 832
SWIDTH 720 0
DWIDTH 15 0
BBX 15 30 0 -6
BITMAP
0700
0700
0380
00E0
00E0
0000
0000
0000
0000
0000
0000
0000
0000
0000
0000
0000
0000
0000
0000
0000
0000
0000
0000
0000
0000
0000
0000
0000
0000
0000
ENDCHAR
STARTCHAR uni0341
ENCODING 833
SWIDTH 720 0
DWIDTH 15 0
BBX 15 30 0 -6
BITMAP
00E0
00E0
0380
0700
0700
0000
0000
0000
0000
0000
0000
0000
0000
0000
0000
0000
0000
0000
0000
0000
0000
0000
0000
0000
0000
0000
0000
0000
0000
0000
ENDCHAR
STARTCHAR uni0342
ENCODING 834
SWIDTH 720 0
DWIDTH 15 0
BBX 15 30 0 -6
BITMAP
0710
0710
1FF0
18E0
18E0
0000
0000
0000
0000
0000
0000
0000
0000
0000
0000
0000
0000
0000
0000
0000
0000
0000
0000
0000
0000
0000
0000
0000
0000
0000
ENDCHAR
STARTCHAR uni0343
ENCODING 835
SWIDTH 720 0
DWIDTH 15 0
BBX 15 30 0 -6
BITMAP
0300
0300
0780
0380
0380
0700
0000
0000
0000
0000
0000
0000
0000
0000
0000
0000
0000
0000
0000
0000
0000
0000
0000
0000
0000
0000
0000
0000
0000
0000
ENDCHAR
STARTCHAR uni0344
ENCODING 836
SWIDTH 720 0
DWIDTH 15 0
BBX 15 30 0 -6
BITMAP
00E0
00E0
3B9C
3F1C
3F1C
0000
0000
0000
0000
0000
0000
0000
0000
0000
0000
0000
0000
0000
0000
0000
0000
0000
0000
0000
0000
0000
0000
0000
0000
0000
ENDCHAR
STARTCHAR uni0345
ENCODING 837
SWIDTH 720 0
DWIDTH 15 0
BBX 15 30 0 -6
BITMAP
0000
0000
0000
0000
0000
0000
0000
0000
0000
0000
0000
0000
0000
0000
0000
0000
0000
0000
0000
0000
0000
0000
0000
0000
0000
0000
0700
0700
0700
0380
ENDCHAR
STARTCHAR uni0346
ENCODING 838
SWIDTH 720 0
DWIDTH 15 0
BBX 15 30 0 -6
BITMAP
1FF0
1FF0
1C70
0000
0000
0000
0000
0000
0000
0000
0000
0000
0000
0000
0000
0000
0000
0000
0000
0000
0000
0000
0000
0000
0000
0000
0000
0000
0000
0000
ENDCHAR
STARTCHAR uni0347
ENCODING 839
SWIDTH 720 0
DWIDTH 15 0
BBX 15 30 0 -6
BITMAP
0000
0000
0000
0000
0000
0000
0000
0000
0000
0000
0000
0000
0000
0000
0000
0000
0000
0000
0000
0000
0000
0000
0000
0000
0000
0000
3FFC
0000
0000
3FFC
ENDCHAR
STARTCHAR uni0348
ENCODING 840
SWIDTH 720 0
DWIDTH 15 0
BBX 15 30 0 -6
BITMAP
0000
0000
0000
0000
0000
0000
0000
0000
0000
0000
0000
0000
0000
0000
0000
0000
0000
0000
0000
0000
0000
0000
0000
0000
0000
0000
1C70
1C70
1C70
1C70
ENDCHAR
STARTCHAR uni0349
ENCODING 841
SWIDTH 720 0
DWIDTH 15 0
BBX 15 30 0 -6
BITMAP
0000
0000
0000
0000
0000
0000
0000
0000
0000
0000
0000
0000
0000
0000
0000
0000
0000
0000
0000
0000
0000
0000
0000
0000
0000
0000
07E0
00E0
00E0
00E0
ENDCHAR
STARTCHAR uni034A
ENCODING 842
SWIDTH 720 0
DWIDTH 15 0
BBX 15 30 0 -6
BITMAP
00E0
00E0
00E0
1F8C
1F8C
3FFC
23F0
23F0
0700
0700
0700
0000
0000
0000
0000
0000
0000
0000
0000
0000
0000
0000
0000
0000
0000
0000
0000
0000
0000
0000
ENDCHAR
STARTCHAR uni034B
ENCODING 843
SWIDTH 720 0
DWIDTH 15 0
BBX 15 30 0 -6
BITMAP
00E0
00E0
0000
0770
0770
1CE0
0000
0000
0700
0000
0000
0000
0000
0000
0000
0000
0000
0000
0000
0000
0000
0000
0000
0000
0000
0000
0000
0000
0000
0000
ENDCHAR
STARTCHAR uni034C
ENCODING 844
SWIDTH 720 0
DWIDTH 15 0
BBX 15 30 0 -6
BITMAP
0770
0770
1CE0
0000
0000
0770
1CE0
1CE0
0000
0000
0000
0000
0000
0000
0000
0000
0000
0000
0000
0000
0000
0000
0000
0000
0000
0000
0000
0000
0000
0000
ENDCHAR
STARTCHAR uni034D
ENCODING 845
SWIDTH 720 0
DWIDTH 15 0
BBX 15 30 0 -6
BITMAP
0000
0000
0000
0000
0000
0000
0000
0000
0000
0000
0000
0000
0000
0000
0000
0000
0000
0000
0000
0000
0000
0000
0000
0000
0000
0000
1810
3FFC
3FFC
1810
ENDCHAR
STARTCHAR uni034E
ENCODING 846
SWIDTH 720 0
DWIDTH 15 0
BBX 15 30 0 -6
BITMAP
0000
0000
0000
0000
0000
0000
0000
0000
0000
0000
0000
0000
0000
0000
0000
0000
0000
0000
0000
0000
0000
0000
0000
0000
0300
0300
0780
1B60
1B60
0300
ENDCHAR
STARTCHAR uni034F
ENCODING 847
SWIDTH 720 0
DWIDTH 15 0
BBX 15 30 0 -6
BITMAP
0000
0000
0000
0000
0000
0000
0000
0000
0000
0000
0000
0000
0000
0000
0000
0000
0000
0000
0000
0000
0000
0000
0000
0000
0000
0000
0000
0000
0000
0000
ENDCHAR
STARTCHAR uni0350
ENCODING 848
SWIDTH 720 0
DWIDTH 15 0
BBX 15 30 0 -6
BITMAP
0780
0780
00F0
0780
0780
0000
0000
0000
0000
0000
0000
0000
0000
0000
0000
0000
0000
0000
0000
0000
0000
0000
0000
0000
0000
0000
0000
0000
0000
0000
ENDCHAR
STARTCHAR uni0351
ENCODING 849
SWIDTH 720 0
DWIDTH 15 0
BBX 15 30 0 -6
BITMAP
00E0
00E0
0380
0380
0380
00E0
0000
0000
0000
0000
0000
0000
0000
0000
0000
0000
0000
0000
0000
0000
0000
0000
0000
0000
0000
0000
0000
0000
0000
0000
ENDCHAR
STARTCHAR uni0352
ENCODING 850
SWIDTH 720 0
DWIDTH 15 0
BBX 15 30 0 -6
BITMAP
1FF0
1FF0
381C
0380
0380
0380
0000
0000
0000
0000
0000
0000
0000
0000
0000
0000
0000
0000
0000
0000
0000
0000
0000
0000
0000
0000
0000
0000
0000
0000
ENDCHAR
STARTCHAR uni0353
ENCODING 851
SWIDTH 720 0
DWIDTH 15 0
BBX 15 30 0 -6
BITMAP
0000
0000
0000
0000
0000
0000
0000
0000
0000
0000
0000
0000
0000
0000
0000
0000
0000
0000
0000
0000
0000
0000
0000
0000
0460
0460
0380
0380
0380
0460
ENDCHAR
STARTCHAR uni0354
ENCODING 852
SWIDTH 720 0
DWIDTH 15 0
BBX 15 30 0 -6
BITMAP
0000
0000
0000
0000
0000
0000
0000
0000
0000
0000
0000
0000
0000
0000
0000
0000
0000
0000
0000
0000
0000
0000
0000
0000
0000
0000
03E0
1F00
1F00
03E0
ENDCHAR
STARTCHAR uni0355
ENCODING 853
SWIDTH 720 0
DWIDTH 15 0
BBX 15 30 0 -6
BITMAP
0000
0000
0000
0000
0000
0000
0000
0000
0000
0000
0000
0000
0000
0000
0000
0000
0000
0000
0000
0000
0000
0000
0000
0000
0000
0000
1F00
03E0
03E0
1F00
ENDCHAR
STARTCHAR uni0356
ENCODING 854
SWIDTH 720 0
DWIDTH 15 0
BBX 15 30 0 -6
BITMAP
0000
0000
0000
0000
0000
0000
0000
0000
0000
0000
0000
0000
0000
0000
0000
0000
0000
0000
0000
0000
0000
0000
0000
0000
0060
0060
3860
0790
0790
3890
ENDCHAR
STARTCHAR uni0357
ENCODING 855
SWIDTH 720 0
DWIDTH 15 0
BBX 15 30 0 -6
BITMAP
0380
0380
00E0
00E0
00E0
0380
0000
0000
0000
0000
0000
0000
0000
0000
0000
0000
0000
0000
0000
0000
0000
0000
0000
0000
0000
0000
0000
0000
0000
0000
ENDCHAR
STARTCHAR uni0358
ENCODING 856
SWIDTH 720 0
DWIDTH 15 0
BBX 15 30 0 -6
BITMAP
000E
000E
000E
0000
0000
0000
0000
0000
0000
0000
0000
0000
0000
0000
0000
0000
0000
0000
0000
0000
0000
0000
0000
0000
0000
0000
0000
0000
0000
0000
ENDCHAR
STARTCHAR uni0359
ENCODING 857
SWIDTH 720 0
DWIDTH 15 0
BBX 15 30 0 -6
BITMAP
0000
0000
0000
0000
0000
0000
0000
0000
0000
0000
0000
0000
0000
0000
0000
0000
0000
0000
0000
0000
0000
0000
0000
1C70
07E0
07E0
3FFC
07E0
07E0
1C70
ENDCHAR
STARTCHAR uni035A
ENCODING 858
SWIDTH 720 0
DWIDTH 15 0
BBX 15 30 0 -6
BITMAP
0000
0000
0000
0000
0000
0000
0000
0000
0000
0000
0000
0000
0000
0000
0000
0000
0000
0000
0000
0000
0000
0000
0000
0000
0000
0000
0770
188C
188C
0770
ENDCHAR
STARTCHAR uni035B
ENCODING 859
SWIDTH 720 0
DWIDTH 15 0
BBX 15 30 0 -6
BITMAP
0700
0700
1C00
3FFC
3FFC
0070
00E0
00E0
0000
0000
0000
0000
0000
0000
0000
0000
0000
0000
0000
0000
0000
0000
0000
0000
0000
0000
0000
0000
0000
0000
ENDCHAR
STARTCHAR uni035C
ENCODING 860
SWIDTH 720 0
DWIDTH 15 0
BBX 15 30 0 -6
BITMAP
0000
0000
0000
0000
0000
0000
0000
0000
0000
0000
0000
0000
0000
0000
0000
0000
0000
0000
0000
0000
0000
0000
0000
0000
0000
0000
0000
1802
1802
07FC
ENDCHAR
STARTCHAR uni035D
ENCODING 861
SWIDTH 720 0
DWIDTH 15 0
BBX 15 30 0 -6
BITMAP
1802
1802
07FC
0000
0000
0000
0000
0000
0000
0000
0000
0000
0000
0000
0000
0000
0000
0000
0000
0000
0000
0000
0000
0000
0000
0000
0000
0000
0000
0000
ENDCHAR
STARTCHAR uni035E
ENCODING 862
SWIDTH 720 0
DWIDTH 15 0
BBX 15 30 0 -6
BITMAP
0000
0000
03FE
0000
0000
0000
0000
0000
0000
0000
0000
0000
0000
0000
0000
0000
0000
0000
0000
0000
0000
0000
0000
0000
0000
0000
0000
0000
0000
0000
ENDCHAR
STARTCHAR uni035F
ENCODING 863
SWIDTH 720 0
DWIDTH 15 0
BBX 15 30 0 -6
BITMAP
0000
0000
0000
0000
0000
0000
0000
0000
0000
0000
0000
0000
0000
0000
0000
0000
0000
0000
0000
0000
0000
0000
0000
0000
0000
0000
0000
03FE
03FE
0000
ENDCHAR
STARTCHAR uni0360
ENCODING 864
SWIDTH 720 0
DWIDTH 15 0
BBX 15 30 0 -6
BITMAP
0782
0782
187C
0000
0000
0000
0000
0000
0000
0000
0000
0000
0000
0000
0000
0000
0000
0000
0000
0000
0000
0000
0000
0000
0000
0000
0000
0000
0000
0000
ENDCHAR
STARTCHAR uni0361
ENCODING 865
SWIDTH 720 0
DWIDTH 15 0
BBX 15 30 0 -6
BITMAP
07FC
07FC
1802
0000
0000
0000
0000
0000
0000
0000
0000
0000
0000
0000
0000
0000
0000
0000
0000
0000
0000
0000
0000
0000
0000
0000
0000
0000
0000
0000
ENDCHAR
STARTCHAR uni0362
ENCODING 866
SWIDTH 720 0
DWIDTH 15 0
BBX 15 30 0 -6
BITMAP
0000
0000
0000
0000
0000
0000
0000
0000
0000
0000
0000
0000
0000
0000
0000
0000
0000
0000
0000
0000
0000
0000
0000
0000
0000
0000
000C
03FE
03FE
000C
ENDCHAR
STARTCHAR uni0363
ENCODING 867
SWIDTH 720 0
DWIDTH 15 0
BBX 15 30 0 -6
BITMAP
0000
0000
0380
0060
0060
03E0
0460
0460
03E0
0000
0000
0000
0000
0000
0000
0000
0000
0000
0000
0000
0000
0000
0000
0000
0000
0000
0000
0000
0000
0000
ENDCHAR
STARTCHAR uni0364
ENCODING 868
SWIDTH 720 0
DWIDTH 15 0
BBX 15 30 0 -6
BITMAP
0000
0000
0380
0460
0460
07E0
0400
0400
0380
0000
0000
0000
0000
0000
0000
0000
0000
0000
0000
0000
0000
0000
0000
0000
0000
0000
0000
0000
0000
0000
ENDCHAR
STARTCHAR uni0365
ENCODING 869
SWIDTH 720 0
DWIDTH 15 0
BBX 15 30 0 -6
BITMAP
0300
0300
0000
0700
0700
0300
0300
0300
0780
0000
0000
0000
0000
0000
0000
0000
0000
0000
0000
0000
0000
0000
0000
0000
0000
0000
0000
0000
0000
0000
ENDCHAR
STARTCHAR uni0366
ENCODING 870
SWIDTH 720 0
DWIDTH 15 0
BBX 15 30 0 -6
BITMAP
0000
0000
0380
0460
0460
0460
0380
0380
0000
0000
0000
0000
0000
0000
0000
0000
0000
0000
0000
0000
0000
0000
0000
0000
0000
0000
0000
0000
0000
0000
ENDCHAR
STARTCHAR uni0367
ENCODING 871
SWIDTH 720 0
DWIDTH 15 0
BBX 15 30 0 -6
BITMAP
0000
0000
0460
0460
0460
0460
03E0
03E0
0000
0000
0000
0000
0000
0000
0000
0000
0000
0000
0000
0000
0000
0000
0000
0000
0000
0000
0000
0000
0000
0000
ENDCHAR
STARTCHAR uni0368
ENCODING 872
SWIDTH 720 0
DWIDTH 15 0
BBX 15 30 0 -6
BITMAP
0000
0000
0380
0400
0400
0400
0380
0380
0000
0000
0000
0000
0000
0000
0000
0000
0000
0000
0000
0000
0000
0000
0000
0000
0000
0000
0000
0000
0000
0000
ENDCHAR
STARTCHAR uni0369
ENCODING 873
SWIDTH 720 0
DWIDTH 15 0
BBX 15 30 0 -6
BITMAP
0060
0060
0060
03E0
03E0
0460
0460
0460
03E0
0000
0000
0000
0000
0000
0000
0000
0000
0000
0000
0000
0000
0000
0000
0000
0000
0000
0000
0000
0000
0000
ENDCHAR
STARTCHAR uni036A
ENCODING 874
SWIDTH 720 0
DWIDTH 15 0
BBX 15 30 0 -6
BITMAP
0400
0400
0400
0780
0780
0460
0460
0460
0460
0000
0000
0000
0000
0000
0000
0000
0000
0000
0000
0000
0000
0000
0000
0000
0000
0000
0000
0000
0000
0000
ENDCHAR
STARTCHAR uni036B
ENCODING 875
SWIDTH 720 0
DWIDTH 15 0
BBX 15 30 0 -6
BITMAP
0000
0000
0760
0490
0490
0490
0490
0490
0000
0000
0000
0000
0000
0000
0000
0000
0000
0000
0000
0000
0000
0000
0000
0000
0000
0000
0000
0000
0000
0000
ENDCHAR
STARTCHAR uni036C
ENCODING 876
SWIDTH 720 0
DWIDTH 15 0
BBX 15 30 0 -6
BITMAP
0000
0000
0480
0760
0760
0400
0400
0400
0000
0000
0000
0000
0000
0000
0000
0000
0000
0000
0000
0000
0000
0000
0000
0000
0000
0000
0000
0000
0000
0000
ENDCHAR
STARTCHAR uni036D
ENCODING 877
SWIDTH 720 0
DWIDTH 15 0
BBX 15 30 0 -6
BITMAP
0300
0300
0300
0780
0780
0300
0300
0300
00E0
0000
0000
0000
0000
0000
0000
0000
0000
0000
0000
0000
0000
0000
0000
0000
0000
0000
0000
0000
0000
0000
ENDCHAR
STARTCHAR uni036E
ENCODING 878
SWIDTH 720 0
DWIDTH 15 0
BBX 15 30 0 -6
BITMAP
0000
0000
0460
0460
0460
0380
0380
0380
0000
0000
0000
0000
0000
0000
0000
0000
0000
0000
0000
0000
0000
0000
0000
0000
0000
0000
0000
0000
0000
0000
ENDCHAR
STARTCHAR uni036F
ENCODING 879
SWIDTH 720 0
DWIDTH 15 0
BBX 15 30 0 -6
BITMAP
0000
0000
0460
0380
0380
0380
0460
0460
0000
0000
0000
0000
0000
0000
0000
0000
0000
0000
0000
0000
0000
0000
0000
0000
0000
0000
0000
0000
0000
0000
ENDCHAR
STARTCHAR uni0370
ENCODING 880
SWIDTH 720 0
DWIDTH 15 0
BBX 15 30 0 -6
BITMAP
0000
0000
0000
0000
0000
3800
3800
3800
3800
3800
3800
3800
3800
3800
3FE0
3800
3800
3800
3800
3800
3800
3800
3800
3800
0000
0000
0000
0000
0000
0000
ENDCHAR
STARTCHAR uni0371
ENCODING 881
SWIDTH 720 0
DWIDTH 15 0
BBX 15 30 0 -6
BITMAP
0000
0000
0000
0000
0000
0000
0000
0000
0000
0000
0000
0000
3800
3800
DC00
1C00
1C00
1FE0
1C00
1C00
1C00
1C00
1C00
1C00
0000
0000
0000
0000
0000
0000
ENDCHAR
STARTCHAR uni0372
ENCODING 882
SWIDTH 720 0
DWIDTH 15 0
BBX 15 30 0 -6
BITMAP
0000
0000
0000
0000
0000
3FFC
238C
238C
238C
238C
238C
0380
0380
0380
0380
0380
0380
0380
0380
0380
0380
0380
0380
0380
0000
0000
0000
0000
0000
0000
ENDCHAR
STARTCHAR uni0373
ENCODING 883
SWIDTH 720 0
DWIDTH 15 0
BBX 15 30 0 -6
BITMAP
0000
0000
0000
0000
0000
07F0
1B90
1B90
1B90
1B90
1B90
0380
0380
0380
0380
0380
0380
0380
0380
0380
0380
0380
0380
0380
0000
0000
0000
0000
0000
0000
ENDCHAR
STARTCHAR uni0374
ENCODING 884
SWIDTH 720 0
DWIDTH 15 0
BBX 15 30 0 -6
BITMAP
0000
0000
0000
0000
0000
00E0
0380
0380
0700
0000
0000
0000
0000
0000
0000
0000
0000
0000
0000
0000
0000
0000
0000
0000
0000
0000
0000
0000
0000
0000
ENDCHAR
STARTCHAR uni0375
ENCODING 885
SWIDTH 720 0
DWIDTH 15 0
BBX 15 30 0 -6
BITMAP
0000
0000
0000
0000
0000
0000
0000
0000
0000
0000
0000
0000
0000
0000
0000
0000
0000
0000
0000
0000
0000
0000
0000
0000
00E0
00E0
0380
0700
0700
0000
ENDCHAR
STARTCHAR uni0376
ENCODING 886
SWIDTH 720 0
DWIDTH 15 0
BBX 15 30 0 -6
BITMAP
0000
0000
0000
0000
0000
381C
387C
387C
387C
38FC
38FC
38FC
3B9C
3B9C
3B9C
3F1C
3F1C
3F1C
3C1C
3C1C
3C1C
381C
381C
381C
0000
0000
0000
0000
0000
0000
ENDCHAR
STARTCHAR uni0377
ENCODING 887
SWIDTH 720 0
DWIDTH 15 0
BBX 15 30 0 -6
BITMAP
0000
0000
0000
0000
0000
0000
0000
0000
0000
0000
0000
0000
381C
381C
387C
38FC
38FC
389C
3B1C
3B1C
3F1C
3C1C
3C1C
380E
0000
0000
0000
0000
0000
0000
ENDCHAR
STARTCHAR uni037A
ENCODING 890
SWIDTH 720 0
DWIDTH 15 0
BBX 15 30 0 -6
BITMAP
0000
0000
0000
0000
0000
0000
0000
0000
0000
0000
0000
0000
0000
0000
0000
0000
0000
0000
0000
0000
0000
0000
0000
0000
0000
0000
0700
0700
0700
0380
ENDCHAR
STARTCHAR uni037B
ENCODING 891
SWIDTH 720 0
DWIDTH 15 0
BBX 15 30 0 -6
BITMAP
0000
0000
0000
0000
0000
0000
0000
0000
0000
0000
0000
0000
1FE0
1FE0
3870
001C
001C
001C
001C
001C
001C
3870
3870
1FE0
0000
0000
0000
0000
0000
0000
ENDCHAR
STARTCHAR uni037C
ENCODING 892
SWIDTH 720 0
DWIDTH 15 0
BBX 15 30 0 -6
BITMAP
0000
0000
0000
0000
0000
0000
0000
0000
0000
0000
0000
0000
07F0
07F0
1C1C
3800
3800
38E0
38E0
38E0
3800
1C1C
1C1C
07F0
0000
0000
0000
0000
0000
0000
ENDCHAR
STARTCHAR uni037D
ENCODING 893
SWIDTH 720 0
DWIDTH 15 0
BBX 15 30 0 -6
BITMAP
0000
0000
0000
0000
0000
0000
0000
0000
0000
0000
0000
0000
1FE0
1FE0
3870
001C
001C
071C
071C
071C
001C
3870
3870
1FE0
0000
0000
0000
0000
0000
0000
ENDCHAR
STARTCHAR uni037E
ENCODING 894
SWIDTH 720 0
DWIDTH 15 0
BBX 15 30 0 -6
BITMAP
0000
0000
0000
0000
0000
0000
0000
0000
0000
0000
0000
0000
03E0
03E0
03E0
0000
0000
0000
0000
0000
0000
03E0
03E0
03E0
0780
0780
0000
0000
0000
0000
ENDCHAR
STARTCHAR tonos
ENCODING 900
SWIDTH 720 0
DWIDTH 15 0
BBX 15 30 0 -6
BITMAP
0000
0000
0000
0000
0000
00E0
0380
0380
0700
0000
0000
0000
0000
0000
0000
0000
0000
0000
0000
0000
0000
0000
0000
0000
0000
0000
0000
0000
0000
0000
ENDCHAR
STARTCHAR dieresistonos
ENCODING 901
SWIDTH 720 0
DWIDTH 15 0
BBX 15 30 0 -6
BITMAP
0000
0000
0000
0000
0000
00E0
3B9C
3B9C
3F1C
0000
0000
0000
0000
0000
0000
0000
0000
0000
0000
0000
0000
0000
0000
0000
0000
0000
0000
0000
0000
0000
ENDCHAR
STARTCHAR Alphatonos
ENCODING 902
SWIDTH 720 0
DWIDTH 15 0
BBX 15 30 0 -6
BITMAP
0000
0000
0000
0000
0000
1CE0
3BF0
3BF0
271C
071C
071C
071C
071C
071C
071C
07FC
07FC
071C
071C
071C
071C
071C
071C
071C
0000
0000
0000
0000
0000
0000
ENDCHAR
STARTCHAR anoteleia
ENCODING 903
SWIDTH 720 0
DWIDTH 15 0
BBX 15 30 0 -6
BITMAP
0000
0000
0000
0000
0000
0000
0000
0000
0000
0000
0000
0000
03E0
03E0
03E0
03E0
03E0
0000
0000
0000
0000
0000
0000
0000
0000
0000
0000
0000
0000
0000
ENDCHAR
STARTCHAR Epsilontonos
ENCODING 904
SWIDTH 720 0
DWIDTH 15 0
BBX 15 30 0 -6
BITMAP
0000
0000
0000
0000
0000
3FFC
E700
E700
C700
0700
0700
0700
0700
0700
07F0
0700
0700
0700
0700
0700
0700
0700
0700
07FC
0000
0000
0000
0000
0000
0000
ENDCHAR
STARTCHAR Etatonos
ENCODING 905
SWIDTH 720 0
DWIDTH 15 0
BBX 15 30 0 -6
BITMAP
0000
0000
0000
0000
0000
3F1C
E71C
E71C
C71C
071C
071C
071C
071C
071C
07FC
071C
071C
071C
071C
071C
071C
071C
071C
071C
0000
0000
0000
0000
0000
0000
ENDCHAR
STARTCHAR Iotatonos
ENCODING 906
SWIDTH 720 0
DWIDTH 15 0
BBX 15 30 0 -6
BITMAP
0000
0000
0000
0000
0000
3FFC
E0E0
E0E0
C0E0
00E0
00E0
00E0
00E0
00E0
00E0
00E0
00E0
00E0
00E0
00E0
00E0
00E0
00E0
07FC
0000
0000
0000
0000
0000
0000
ENDCHAR
STARTCHAR Omicrontonos
ENCODING 908
SWIDTH 720 0
DWIDTH 15 0
BBX 15 30 0 -6
BITMAP
0000
0000
0000
0000
0000
38E0
E3F0
E3F0
C71C
071C
071C
071C
071C
071C
071C
071C
071C
071C
071C
071C
071C
03F0
03F0
00E0
0000
0000
0000
0000
0000
0000
ENDCHAR
STARTCHAR Upsilontonos
ENCODING 910
SWIDTH 720 0
DWIDTH 15 0
BBX 15 30 0 -6
BITMAP
0000
0000
0000
0000
0000
3F1C
E71C
E71C
C71C
071C
071C
071C
03F0
03F0
03F0
00E0
00E0
00E0
00E0
00E0
00E0
00E0
00E0
00E0
0000
0000
0000
0000
0000
0000
ENDCHAR
STARTCHAR Omegatonos
ENCODING 911
SWIDTH 720 0
DWIDTH 15 0
BBX 15 30 0 -6
BITMAP
0000
0000
0000
0000
0000
1CE0
3BF0
3BF0
271C
071C
071C
071C
071C
071C
071C
071C
071C
071C
071C
071C
03F0
00E0
00E0
07FC
0000
0000
0000
0000
0000
0000
ENDCHAR
STARTCHAR iotadieresistonos
ENCODING 912
SWIDTH 720 0
DWIDTH 15 0
BBX 15 30 0 -6
BITMAP
0000
0000
0000
0000
0000
00E0
3B9C
3B9C
3F1C
0000
0000
0000
0380
0380
0380
0380
0380
0380
0380
0380
0380
039C
039C
00F0
0000
0000
0000
0000
0000
0000
ENDCHAR
STARTCHAR Alpha
ENCODING 913
SWIDTH 720 0
DWIDTH 15 0
BBX 15 30 0 -6
BITMAP
0000
0000
0000
0000
0000
0380
07E0
07E0
1C70
1C70
1C70
381C
381C
381C
381C
3FFC
3FFC
381C
381C
381C
381C
381C
381C
381C
0000
0000
0000
0000
0000
0000
ENDCHAR
STARTCHAR Beta
ENCODING 914
SWIDTH 720 0
DWIDTH 15 0
BBX 15 30 0 -6
BITMAP
0000
0000
0000
0000
0000
3F80
38E0
38E0
3870
3870
3870
3870
38E0
38E0
3FE0
3870
3870
381C
381C
381C
381C
3870
3870
3FE0
0000
0000
0000
0000
0000
0000
ENDCHAR
STARTCHAR Gamma
ENCODING 915
SWIDTH 720 0
DWIDTH 15 0
BBX 15 30 0 -6
BITMAP
0000
0000
0000
0000
0000
3FFC
3800
3800
3800
3800
3800
3800
3800
3800
3800
3800
3800
3800
3800
3800
3800
3800
3800
3800
0000
0000
0000
0000
0000
0000
ENDCHAR
STARTCHAR Delta
ENCODING 916
SWIDTH 720 0
DWIDTH 15 0
BBX 15 30 0 -6
BITMAP
0000
0000
0000
0000
0000
0380
0380
0380
0380
07E0
07E0
07E0
07E0
07E0
1C70
1C70
1C70
1C70
381C
381C
381C
381C
381C
3FFC
0000
0000
0000
0000
0000
0000
ENDCHAR
STARTCHAR Epsilon
ENCODING 917
SWIDTH 720 0
DWIDTH 15 0
BBX 15 30 0 -6
BITMAP
0000
0000
0000
0000
0000
3FFC
3800
3800
3800
3800
3800
3800
3800
3800
3FE0
3800
3800
3800
3800
3800
3800
3800
3800
3FFC
0000
0000
0000
0000
0000
0000
ENDCHAR
ENDFONT
